<svg width="116" height="169" viewBox="0 0 116 169" fill="none" xmlns="http://www.w3.org/2000/svg">
<g id="Component 12">
<path id="Vector" d="M80.2864 118.682C78.3963 118.022 76.5081 116.912 74.7327 115.271C69.1031 110.07 67.8878 85.2689 67.8878 85.2689L67.913 85.2312L78.233 70.3359C78.233 70.3359 79.0147 71.5189 80.2592 73.4745C81.531 75.4762 83.2869 78.2882 85.1751 81.4645C89.5446 88.8284 94.6239 98.1604 96.0648 103.939C98.6744 114.419 89.4046 121.848 80.2864 118.682Z" fill="white"/>
<path id="Vector_2" d="M96.4868 108.273C95.9987 116.347 88.0881 121.387 80.2864 118.682C78.3963 118.022 76.5081 116.912 74.7327 115.271C69.1031 110.07 67.8878 85.2689 67.8878 85.2689L67.913 85.2312L70.0754 82.1094C70.5849 88.7572 72.2728 105.175 76.7298 109.295C78.4994 110.931 86.1844 113.171 88.1601 113.38C93.0643 113.908 93.5641 112.593 96.4868 108.273Z" fill="#371A45" fill-opacity="0.25"/>
<path id="Vector_3" d="M84.5567 120.418C81.1751 120.418 77.4804 119.163 74.1143 116.054C68.2436 110.631 66.9913 86.3557 66.9407 85.3256C66.9155 84.7582 67.316 84.2766 67.8411 84.2494C68.372 84.2159 68.8134 84.6535 68.8406 85.2188C69.1692 91.9943 70.9855 110.47 75.3491 114.501C81.1187 119.829 87.32 118.904 90.8766 116.485C94.7425 113.864 96.374 109.161 95.1431 104.216C92.549 93.8075 77.6087 71.1694 77.4551 70.9412C77.1518 70.4805 77.249 69.8377 77.6768 69.5111C78.1027 69.1845 78.6997 69.2892 79.005 69.7498C79.6272 70.692 94.2991 92.9156 96.9807 103.684C98.4372 109.534 96.4868 115.099 91.8917 118.221C89.8985 119.574 87.3356 120.418 84.5567 120.418Z" fill="#371A45"/>
<path id="Vector_4" d="M77.7429 99.9066C77.3832 99.9066 77.039 99.6846 76.8795 99.314C76.6578 98.7989 76.864 98.1938 77.3423 97.9551C77.7487 97.7499 87.3628 93.0159 93.6516 95.6541C94.1397 95.8592 94.3827 96.4518 94.1922 96.9794C94.0016 97.5071 93.4513 97.7667 92.9612 97.5615C87.4289 95.2395 78.2329 99.7621 78.1396 99.8123C78.0151 99.8793 77.8771 99.9066 77.7429 99.9066Z" fill="#371A45"/>
<path id="Vector_5" d="M87.9325 103.362C87.9325 103.657 87.9073 103.948 87.8528 104.237C87.8003 104.524 87.7206 104.804 87.6175 105.076C87.5125 105.349 87.3842 105.606 87.2325 105.851C87.0808 106.096 86.9077 106.322 86.7152 106.53C86.5227 106.737 86.3127 106.923 86.0852 107.086C85.8577 107.25 85.6185 107.388 85.3657 107.501C85.1148 107.614 84.8543 107.698 84.5859 107.756C84.3176 107.813 84.0473 107.842 83.775 107.842C83.5028 107.842 83.2325 107.813 82.9641 107.756C82.6958 107.698 82.4352 107.614 82.1843 107.501C81.9315 107.388 81.6924 107.25 81.4648 107.086C81.2373 106.923 81.0273 106.737 80.8348 106.53C80.6423 106.322 80.4692 106.096 80.3175 105.851C80.1659 105.606 80.0375 105.349 79.9325 105.076C79.8295 104.804 79.7497 104.524 79.6972 104.237C79.6428 103.948 79.6175 103.657 79.6175 103.362C79.6175 103.068 79.6428 102.775 79.6972 102.488C79.7497 102.2 79.8295 101.919 79.9325 101.647C80.0375 101.375 80.1659 101.117 80.3175 100.872C80.4692 100.629 80.6423 100.401 80.8348 100.194C81.0273 99.9864 81.2373 99.8 81.4648 99.6367C81.6924 99.4734 81.9315 99.3352 82.1843 99.2221C82.4352 99.1091 82.6958 99.0253 82.9641 98.9667C83.2325 98.9102 83.5028 98.8809 83.775 98.8809C84.0473 98.8809 84.3176 98.9102 84.5859 98.9667C84.8543 99.0253 85.1148 99.1091 85.3657 99.2221C85.6185 99.3352 85.8577 99.4734 86.0852 99.6367C86.3127 99.8 86.5227 99.9864 86.7152 100.194C86.9077 100.401 87.0808 100.629 87.2325 100.872C87.3842 101.117 87.5125 101.375 87.6175 101.647C87.7206 101.919 87.8003 102.2 87.8528 102.488C87.9073 102.775 87.9325 103.068 87.9325 103.362Z" fill="white"/>
<path id="Vector_6" d="M87.9286 103.466C87.8723 105.941 85.9666 107.897 83.6719 107.836C81.3773 107.775 79.5591 105.724 79.6175 103.251C79.6311 102.568 79.7867 101.921 80.0589 101.35C80.6928 102.88 82.1027 103.967 83.7595 104.011C85.4162 104.055 86.8727 103.041 87.5728 101.549C87.8159 102.131 87.9442 102.786 87.9286 103.466Z" fill="#371A45" fill-opacity="0.35"/>
<path id="Vector_7" d="M83.775 108.862C83.7342 108.862 83.6933 108.862 83.6467 108.862C82.2816 108.829 81.0118 108.219 80.0745 107.154C79.1333 106.09 78.6335 104.693 78.6646 103.224C78.7308 100.19 81.0779 97.7839 83.8936 97.8551C85.2568 97.8886 86.5285 98.4999 87.4658 99.5636C88.407 100.629 88.9068 102.026 88.8757 103.496C88.8445 104.964 88.2787 106.335 87.2908 107.344C86.338 108.33 85.0934 108.862 83.775 108.862ZM83.775 99.907C82.0463 99.907 80.6151 101.4 80.5742 103.278C80.5334 105.181 81.9335 106.766 83.6972 106.817C83.7245 106.817 83.7497 106.817 83.775 106.817C85.5037 106.817 86.935 105.326 86.9758 103.445C87.0166 101.544 85.6165 99.9572 83.8528 99.907C83.8256 99.907 83.8003 99.907 83.775 99.907Z" fill="#371A45"/>
<path id="Vector_8" d="M90.0288 111.163L88.16 113.387L84.4342 117.823C82.3807 117.817 81.2373 115.244 80.6364 112.034C79.7769 107.476 80.0083 101.643 80.2495 100.091C80.5587 98.1543 83.3219 95.6271 86.3438 97.545C90.7133 100.323 90.0288 111.163 90.0288 111.163Z" fill="white"/>
<path id="Vector_9" d="M88.1659 113.387L84.4381 117.824C82.3846 117.817 81.2431 115.244 80.6403 112.034C82.0054 113.06 84.4595 114.191 88.1659 113.387Z" fill="#371A45" fill-opacity="0.25"/>
<path id="Vector_10" d="M89.8732 111.153C89.6165 109.384 89.3851 107.644 89.0701 105.952C88.7473 104.267 88.3817 102.602 87.7634 101.145C87.4542 100.424 87.0886 99.746 86.6355 99.2205C86.5188 99.0928 86.4099 98.9588 86.2816 98.8541C86.2194 98.7996 86.163 98.7326 86.0968 98.6887L85.9004 98.5442C85.7721 98.4437 85.6126 98.3767 85.4726 98.2825C85.4007 98.2343 85.3287 98.205 85.2529 98.1778L85.0312 98.0836C84.4284 97.8512 83.7964 97.8721 83.2033 98.0836C82.6024 98.2783 82.056 98.7264 81.6651 99.2582C81.4804 99.5304 81.3346 99.8193 81.2587 100.092C81.247 100.156 81.2334 100.219 81.2179 100.284L81.1809 100.573C81.1615 100.772 81.1459 100.983 81.1304 101.195C81.0779 102.043 81.0584 102.914 81.0584 103.779C81.0681 105.514 81.1304 107.248 81.2684 108.967C81.3346 109.828 81.4337 110.676 81.5465 111.519C81.671 112.355 81.8246 113.182 82.019 113.98C82.2155 114.78 82.4566 115.544 82.8124 116.21C82.9816 116.559 83.2033 116.836 83.4619 117.097C83.7244 117.357 84.0531 117.524 84.4381 117.663L84.4595 117.673C84.5412 117.7 84.5878 117.801 84.5567 117.889C84.5373 117.95 84.4906 117.996 84.4342 118.006C84.3253 118.029 84.2125 118.04 84.0998 118.056C84.0434 118.06 83.9811 118.073 83.9247 118.073L83.7497 118.056C83.6311 118.04 83.5067 118.04 83.3939 118.012L83.0497 117.895C82.5966 117.717 82.1804 117.407 81.846 117.051C81.1615 116.337 80.7123 115.46 80.3623 114.591C80.0181 113.71 79.7925 112.805 79.6116 111.901C79.4269 110.998 79.2966 110.087 79.1994 109.185C79.0147 107.372 78.968 105.552 79.0147 103.745C79.0399 102.836 79.0866 101.932 79.1644 101.011C79.1838 100.778 79.2052 100.546 79.2363 100.307C79.2519 100.19 79.2713 100.058 79.2869 99.9366C79.318 99.7858 79.355 99.6309 79.39 99.4801C79.565 98.9043 79.8333 98.4165 80.1406 97.9789C80.4653 97.5559 80.8251 97.1749 81.2373 96.8692C81.4376 96.7142 81.6593 96.576 81.8751 96.442C82.1066 96.3269 82.3282 96.1991 82.5752 96.1217C82.6997 96.0756 82.8183 96.0316 82.9408 95.994L83.3161 95.9102C83.5689 95.8432 83.8256 95.8495 84.0842 95.8223C84.3409 95.8223 84.5976 95.8432 84.8562 95.8704C85.1032 95.927 85.3598 95.9605 85.6029 96.0421L85.9627 96.1698C86.0813 96.2159 86.1999 96.2599 86.3069 96.3206C86.5285 96.442 86.7541 96.5425 86.9661 96.6912L87.285 96.9131C87.3939 96.9906 87.4853 97.0806 87.5825 97.1623C87.7847 97.3235 87.9539 97.5182 88.1289 97.7067C88.8076 98.4709 89.2762 99.365 89.6321 100.257C89.8071 100.707 89.9568 101.161 90.0794 101.616C90.198 102.076 90.301 102.531 90.3827 102.991C90.5422 103.911 90.6452 104.832 90.6666 105.747C90.7016 106.662 90.6763 107.577 90.5986 108.479C90.5227 109.384 90.3944 110.282 90.1766 111.17C90.1571 111.264 90.0638 111.318 89.9821 111.291C89.9257 111.281 89.8849 111.224 89.8732 111.153Z" fill="#371A45"/>
<path id="Vector_11" d="M52.226 72.1729L49.0661 110.399L47.7652 126.184C47.7652 126.184 31.5473 126.76 26.9211 119.874C25.208 117.324 24.4243 110.071 24.4515 102.148C24.4924 92.4994 25.7427 81.8483 28.0121 77.4848C31.6504 70.4811 46.647 71.2076 52.226 72.1729Z" fill="white"/>
<path id="Vector_12" d="M49.0661 110.399L47.7652 126.184C47.7652 126.184 31.5473 126.76 26.9211 119.873C25.208 117.323 24.4243 110.07 24.4515 102.147L34.5225 100.479C34.5225 100.479 38.0228 100.629 37.9664 112.616C37.9547 115.971 42.6704 117.367 46.2678 114.779C47.5746 113.837 48.4536 112.273 49.0661 110.399Z" fill="#371A45" fill-opacity="0.25"/>
<path id="Vector_13" d="M46.7462 127.227C42.9776 127.227 30.365 126.745 26.155 120.472C23.9148 117.141 23.3392 107.453 23.5453 99.5091C23.7515 91.6134 24.8152 81.5485 27.1837 76.9861C31.1623 69.3228 46.7151 70.1813 52.3758 71.1633C52.895 71.2512 53.245 71.7788 53.1633 72.3379C53.0817 72.899 52.5916 73.2759 52.0724 73.188C45.8653 72.118 32.016 71.8793 28.8463 77.989C27.0339 81.4815 25.7019 89.9488 25.4491 99.5698C25.2021 108.99 26.1083 116.909 27.699 119.275C31.9751 125.642 47.5785 125.169 47.7379 125.164C48.263 125.137 48.7005 125.592 48.7219 126.157C48.7433 126.722 48.3252 127.193 47.8002 127.216C47.7029 127.216 47.3315 127.227 46.7462 127.227Z" fill="#371A45"/>
<path id="Vector_14" d="M25.418 100.518L33.9197 101.465C34.682 101.549 35.2887 102.175 35.4073 102.985C35.8293 105.962 36.4671 112.893 33.735 115.089C31.4657 116.913 27.8682 116.586 25.805 114.595C23.4987 112.371 23.4423 105.592 23.5648 102.242C23.6076 101.199 24.4515 100.412 25.418 100.518Z" fill="white"/>
<path id="Vector_15" d="M35.4034 102.985C35.8254 105.963 36.4632 112.893 33.7291 115.09C31.4598 116.913 27.8623 116.587 25.7991 114.595C24.3834 113.226 23.8117 110.134 23.6173 107.177C23.9615 108.664 24.5332 109.878 25.2643 110.682C29.4433 115.305 32.7879 110.1 32.7879 110.1C32.7879 110.1 33.313 111.402 33.7505 111.49C35.5979 111.85 35.3762 105.586 35.1915 102.347C35.3004 102.541 35.3723 102.753 35.4034 102.985Z" fill="#371A45" fill-opacity="0.25"/>
<path id="Vector_16" d="M30.1375 117.319C28.3368 117.319 26.5089 116.657 25.1652 115.361C22.7364 113.021 22.4389 106.911 22.6139 102.198C22.645 101.421 22.9737 100.684 23.5201 100.173C24.0646 99.6642 24.7899 99.415 25.5113 99.4967L34.0131 100.445C35.2012 100.579 36.1599 101.559 36.3388 102.83C36.8794 106.666 37.3383 113.464 34.297 115.91C33.1322 116.858 31.6465 117.319 30.1375 117.319ZM25.243 101.532C25.068 101.532 24.9027 101.599 24.7705 101.72C24.6149 101.865 24.5274 102.064 24.5235 102.281C24.3057 108.142 25.0213 112.461 26.4428 113.831C28.2338 115.56 31.3101 115.759 33.1691 114.268C34.7851 112.966 35.2693 108.808 34.472 103.136C34.4195 102.786 34.157 102.514 33.8283 102.48L25.3247 101.532C25.2955 101.532 25.2683 101.532 25.243 101.532Z" fill="#371A45"/>
<path id="Vector_17" d="M32.613 104.704C32.5877 105.814 32.6596 106.921 32.6596 108.042C32.6596 109.162 32.613 110.292 32.4127 111.425C32.2065 112.55 31.841 113.703 31.1312 114.689C30.7812 115.184 30.3436 115.621 29.8497 115.965C29.3597 116.314 28.8152 116.576 28.259 116.758H28.2532C27.8468 116.896 27.4093 116.647 27.2867 116.21C27.1623 115.772 27.3898 115.301 27.7962 115.167C27.8273 115.156 27.8623 115.15 27.8935 115.14C28.7841 114.972 29.6066 114.568 30.2503 113.869C30.8998 113.176 31.3529 112.229 31.6601 111.214C31.9693 110.194 32.1443 109.107 32.2688 108.014C32.403 106.921 32.4593 105.808 32.613 104.704Z" fill="#371A45"/>
<path id="Vector_18" d="M32.9222 76.375C34.0947 76.398 35.2634 76.4483 36.4321 76.5153C37.6008 76.5802 38.7676 76.6702 39.9363 76.7854C41.105 76.9026 42.2776 77.0408 43.4521 77.2397C44.6247 77.4449 45.7992 77.6732 47.0029 78.094C47.5027 78.272 47.7749 78.8478 47.6096 79.3859C47.4463 79.924 46.9096 80.2192 46.4117 80.0412C46.3845 80.0308 46.3651 80.0245 46.3437 80.014H46.3398C45.3558 79.5701 44.2494 79.2477 43.1429 78.965C42.0364 78.6761 40.9047 78.4437 39.7671 78.2385C38.6295 78.0291 37.4861 77.8448 36.3349 77.6836C35.1857 77.5245 34.0345 77.3737 32.8813 77.2565H32.8755C32.6499 77.2355 32.4846 77.0199 32.506 76.7749C32.5313 76.5467 32.7102 76.375 32.9222 76.375Z" fill="#371A45"/>
<path id="Vector_19" d="M92.2418 71.2202V71.1699C92.267 71.1699 92.267 71.1867 92.2418 71.2202Z" fill="white"/>
<path id="Vector_20" d="M92.2418 71.2202V71.1699C92.267 71.1699 92.267 71.1867 92.2418 71.2202Z" fill="white"/>
<path id="Vector_21" d="M92.2418 71.1699C92.267 71.1699 92.267 71.1867 92.2418 71.2202V71.1699Z" fill="white"/>
<path id="Vector_22" d="M93.9705 160.552C94.0424 167.089 87.4289 167.51 79.3336 167.516C73.5387 167.52 69.1945 166.467 67.0341 164.461C63.4872 161.172 64.3933 142.615 60.5489 108.791L80.759 106.811C80.759 106.811 81.9374 113.586 83.1936 123.234C84.3098 131.813 85.4843 142.658 85.9471 153.027C85.9471 153.027 93.214 155.156 93.9238 159.869C93.9491 160.085 93.9705 160.313 93.9705 160.552Z" fill="white"/>
<path id="Vector_23" d="M93.9705 160.552C94.0424 167.089 87.4289 167.51 79.3336 167.516C73.5387 167.52 69.1945 166.467 67.0341 164.461C63.4872 161.172 64.3933 142.615 60.5489 108.791L80.759 106.811C80.759 106.811 81.9374 113.586 83.1936 123.234C78.7619 126.695 74.8046 128.303 70.6568 133.465C65.6845 139.648 66.8007 160.828 76.3992 162.198C84.0064 163.284 90.8105 163.058 93.918 159.863C93.9491 160.085 93.9705 160.313 93.9705 160.552Z" fill="#371A45" fill-opacity="0.25"/>
<path id="Vector_24" d="M79.3025 168.535C73.1984 168.535 68.7414 167.392 66.406 165.231C63.9811 162.985 63.493 156.01 62.5149 142.114C61.8965 133.337 61.1303 122.409 59.596 108.906C59.5338 108.347 59.9052 107.832 60.4244 107.765C60.9456 107.698 61.424 108.098 61.4862 108.657C63.0243 122.208 63.7963 133.159 64.4128 141.959C65.2587 154.013 65.8187 161.982 67.6466 163.671C69.6009 165.485 73.739 166.477 79.3025 166.477C79.3122 166.477 79.3239 166.477 79.3336 166.477C84.757 166.473 89.8071 166.285 91.9015 164C92.6735 163.156 93.039 162.032 93.0235 160.552C92.9865 156.942 87.7167 154.595 85.6943 154.002L85.0312 153.808L84.9943 153.066C84.0278 131.362 79.8645 107.233 79.8217 106.994C79.7245 106.44 80.0648 105.902 80.584 105.797C81.0993 105.69 81.5971 106.056 81.6963 106.618C81.7371 106.854 85.8343 130.592 86.863 152.25C88.9068 152.983 94.8767 155.543 94.9272 160.535C94.9486 162.558 94.3866 164.21 93.2549 165.447C90.6414 168.297 85.4065 168.529 79.3394 168.535C79.3239 168.535 79.3122 168.535 79.3025 168.535Z" fill="#371A45"/>
<path id="Vector_25" d="M56.4166 110.648C56.3641 110.043 56.3077 109.433 56.2513 108.812C56.3077 109.433 56.3641 110.049 56.4166 110.648Z" fill="#371A45" fill-opacity="0.35"/>
<path id="Vector_26" d="M84.0375 109.202C83.8878 110.575 83.6311 111.874 83.2402 113.082C82.4682 115.456 81.2782 117.525 79.7808 119.298C68.2436 132.96 38.2581 129.051 37.3227 111.884C37.2858 111.298 37.2916 110.686 37.3324 110.067C37.4705 107.86 37.6611 105.525 37.8789 103.107C39.1954 88.5026 41.5522 70.7032 39.6387 58.5718C43.6893 62.9352 70.9135 64.849 71.0788 62.0935C71.248 59.3695 49.4628 47.8034 58.9426 49.4282C65.9218 51.0194 76.1367 52.439 78.1338 58.5718C78.2582 59.9244 78.8455 61.6664 79.2674 62.9017L81.0681 82.0432C82.2368 91.2476 84.8717 101.434 84.0375 109.202Z" fill="white"/>
<path id="Vector_27" d="M81.5368 81.9654C82.3846 84.9197 82.9252 87.9138 83.4308 90.9477C83.9442 93.9754 84.4595 97.0198 84.8095 100.119C84.9846 101.666 85.1129 103.23 85.1596 104.809C85.2062 106.383 85.181 107.981 84.9904 109.578C84.9029 110.376 84.7629 111.174 84.584 111.967L84.4381 112.56C84.3876 112.761 84.3253 112.954 84.2689 113.148C84.1562 113.542 84.022 113.919 83.8781 114.302C83.3122 115.816 82.5597 117.246 81.6554 118.55C79.8489 121.165 77.4493 123.234 74.8396 124.758C72.2203 126.289 69.3909 127.304 66.5032 127.926C63.6155 128.542 60.6617 128.758 57.7292 128.603C54.7949 128.441 51.8663 127.91 49.0506 126.928C46.2406 125.935 43.5143 124.482 41.2022 122.342C40.0549 121.272 39.0204 120.024 38.2075 118.598C37.3889 117.185 36.7977 115.6 36.4944 113.952C36.3446 113.132 36.2571 112.294 36.2357 111.463C36.226 111.048 36.2318 110.632 36.2513 110.221C36.2727 109.804 36.3038 109.44 36.3232 109.047C36.4263 107.503 36.5508 105.962 36.6849 104.428C36.9513 101.354 37.2547 98.2886 37.5542 95.2337C38.155 89.1178 38.752 83.0122 39.0768 76.9088C39.2323 73.8582 39.3296 70.8096 39.2771 67.7694C39.2323 64.7376 39.0418 61.7099 38.5887 58.7535L38.0481 55.2276L40.3894 57.7506C40.5644 57.939 40.8269 58.1379 41.1147 58.3117C41.4083 58.4876 41.7272 58.6551 42.0617 58.8038C42.7306 59.1095 43.4463 59.3649 44.1774 59.591C45.6397 60.0454 47.1526 60.395 48.6752 60.6945C51.7282 61.2891 54.8299 61.6764 57.9334 61.9361C59.4891 62.0638 61.0428 62.1538 62.5965 62.1978C64.1464 62.2355 65.7001 62.2355 67.2188 62.1266C67.9753 62.0701 68.7317 61.9863 69.4104 61.8314C69.5815 61.7937 69.7409 61.7476 69.879 61.6995C70.019 61.6534 70.1415 61.5927 70.194 61.5592C70.2135 61.5487 70.2096 61.5383 70.1571 61.599C70.1357 61.6262 70.0949 61.6869 70.0696 61.7644C70.0482 61.8105 70.0385 61.8544 70.0287 61.9047C70.019 61.9528 70.019 62.0094 70.019 62.0366C70.0229 62.1748 70.0443 62.2083 70.0385 62.1978C70.0346 62.1915 70.019 62.1476 69.9879 62.1036C69.8596 61.8984 69.6068 61.622 69.3501 61.3666C69.0876 61.1048 68.7978 60.8494 68.5061 60.6002C67.913 60.0956 67.2849 59.6141 66.6529 59.1304C64.0997 57.2125 61.4181 55.439 58.8046 53.4541C58.1512 52.9495 57.4959 52.4386 56.8483 51.8398C56.6831 51.6911 56.5236 51.5299 56.3602 51.3519C56.195 51.1698 56.0297 50.9813 55.8547 50.7029C55.7672 50.5584 55.6758 50.3993 55.5921 50.1271C55.5727 50.0601 55.5571 49.9763 55.5455 49.8946C55.5357 49.7941 55.526 49.7104 55.5357 49.5952C55.5416 49.3775 55.6174 49.1011 55.7477 48.9022C55.8138 48.7912 55.8799 48.7137 55.9519 48.6405C56.0199 48.5735 56.0977 48.5127 56.158 48.4751C56.2864 48.3913 56.405 48.3348 56.5041 48.3034C56.7044 48.2301 56.8639 48.2029 57.002 48.1861C57.5639 48.1296 57.9801 48.1798 58.4137 48.2301C58.6296 48.2573 58.8202 48.2866 59.0554 48.3243C59.2713 48.3683 59.4774 48.4185 59.6641 48.4583L61.9684 48.9629C65.0564 49.6392 68.1911 50.3092 71.2636 51.4734C72.792 52.068 74.3166 52.782 75.7264 53.8247C76.4264 54.3461 77.0954 54.9554 77.6768 55.6882C78.2524 56.4147 78.7366 57.2732 79.0341 58.2049L79.0711 58.3264L79.0808 58.4499C79.1372 59.0697 79.2966 59.7627 79.4872 60.4453C79.6778 61.1321 79.9092 61.8209 80.1464 62.5244C80.3273 63.0563 80.0686 63.6446 79.5806 63.8393C79.0866 64.032 78.5402 63.7619 78.3613 63.228C78.1182 62.5244 77.8713 61.7979 77.6612 61.0441C77.4493 60.2904 77.2548 59.5198 77.1673 58.6425L77.2179 58.8875C76.7803 57.5391 75.8139 56.421 74.6199 55.5437C73.4259 54.6685 72.0356 54.009 70.6043 53.4646C67.7225 52.3842 64.6597 51.7351 61.5776 51.0797L59.2518 50.5877C59.0516 50.5416 58.8765 50.4977 58.7015 50.4704C58.5518 50.4474 58.3515 50.416 58.1765 50.393C57.8265 50.349 57.4551 50.326 57.2295 50.3532C57.1731 50.3595 57.142 50.3699 57.1517 50.3658C57.1575 50.3595 57.1828 50.3532 57.2295 50.3218C57.28 50.2883 57.352 50.2255 57.4298 50.104C57.5017 49.9889 57.5484 49.8172 57.5542 49.7104C57.5542 49.6434 57.5542 49.612 57.5484 49.5659C57.5484 49.5387 57.5387 49.5052 57.5328 49.4884C57.5114 49.4214 57.5173 49.4445 57.5387 49.478C57.5834 49.5492 57.6865 49.6769 57.7954 49.8004C57.9081 49.9219 58.0365 50.0496 58.1707 50.1773C58.7171 50.6819 59.3394 51.1698 59.9713 51.6451C62.5149 53.5525 65.2062 55.3281 67.8314 57.2732C68.4906 57.761 69.144 58.2657 69.7915 58.81C70.1162 59.0822 70.4352 59.3649 70.7599 59.6748C71.0788 59.9972 71.3977 60.3134 71.7225 60.8054C71.8041 60.9331 71.8858 61.0776 71.9636 61.2598C72.0356 61.444 72.1231 61.6869 72.1231 62.0366C72.1231 62.1141 72.1133 62.225 72.0978 62.3255C72.0822 62.426 72.0511 62.5202 72.0142 62.6145C71.9481 62.7903 71.8547 62.9348 71.7672 63.0458C71.5922 63.2677 71.423 63.3892 71.2791 63.4897C70.9913 63.6718 70.7444 63.7723 70.5129 63.8498C70.2815 63.9273 70.0599 63.988 69.844 64.0383C68.9787 64.233 68.1658 64.3167 67.353 64.3774C65.7254 64.4926 64.1308 64.4926 62.5343 64.4549C60.9397 64.4109 59.3491 64.3209 57.7642 64.1932C54.5946 63.9336 51.4346 63.5336 48.2844 62.9244C46.7093 62.6145 45.14 62.2522 43.5746 61.7644C42.7929 61.5215 42.0111 61.243 41.2275 60.8892C40.8366 60.7112 40.4458 60.5123 40.0549 60.2736C39.664 60.0286 39.2673 59.7522 38.8823 59.3419L40.683 58.3389C41.1614 61.4545 41.3578 64.5868 41.4025 67.6982C41.455 70.8138 41.3617 73.9147 41.2022 77.0072C40.8736 83.1902 40.2766 89.3292 39.6796 95.4431C39.3801 98.5043 39.0768 101.559 38.8142 104.61C38.6801 106.134 38.5634 107.658 38.4603 109.185C38.4389 109.555 38.4039 109.959 38.3884 110.309C38.367 110.665 38.367 111.019 38.3728 111.369C38.3884 112.072 38.4642 112.778 38.5887 113.458C38.8395 114.834 39.3237 116.149 40.0141 117.346C40.6986 118.548 41.5775 119.624 42.5867 120.567C44.6052 122.457 47.0904 123.806 49.6942 124.737C52.3038 125.663 55.0574 126.174 57.8265 126.335C60.5956 126.49 63.3841 126.295 66.0968 125.724C68.8095 125.152 71.4541 124.206 73.8635 122.807C76.267 121.41 78.4332 119.547 80.0434 117.225C80.8523 116.065 81.5212 114.8 82.0249 113.458C82.1493 113.127 82.2777 112.782 82.3691 112.445C82.4216 112.273 82.4721 112.106 82.5188 111.934L82.6472 111.413C82.8066 110.715 82.9369 109.999 83.0186 109.273C83.1994 107.82 83.2286 106.329 83.1878 104.832C83.1528 103.335 83.0283 101.831 82.865 100.324C82.5344 97.3129 82.0405 94.2957 81.531 91.2744C81.0157 88.2572 80.5062 85.1982 80.5742 82.0596C80.5781 81.7706 80.7998 81.5424 81.0682 81.555C81.2996 81.5989 81.4746 81.7539 81.5368 81.9654Z" fill="#371A45"/>
<path id="Vector_28" d="M66.3651 141.195C64.5586 141.195 63.3899 141.088 63.2402 141.071C62.7151 141.023 62.3301 140.523 62.3748 139.963C62.4215 139.398 62.8843 138.988 63.4055 139.032C63.5241 139.042 75.495 140.118 84.1756 134.907C84.6345 134.628 85.216 134.806 85.4687 135.305C85.7254 135.799 85.5601 136.425 85.0973 136.697C78.6238 140.59 70.6763 141.195 66.3651 141.195Z" fill="#371A45"/>
<path id="Vector_29" d="M85.7565 154.029C85.4279 153.941 85.0254 153.864 84.6501 153.803C84.2689 153.736 83.8839 153.692 83.4969 153.648C82.7191 153.569 81.9432 153.548 81.1654 153.569C80.3837 153.586 79.6117 153.68 78.8455 153.824C78.0735 153.958 77.3307 154.201 76.5956 154.48L76.5703 154.49C76.3234 154.584 76.0492 154.44 75.9675 154.174C75.8858 153.925 75.9986 153.653 76.2203 153.542C76.9806 153.16 77.7682 152.815 78.583 152.583C79.3958 152.34 80.2184 152.151 81.0584 152.044C81.8907 151.929 82.7347 151.866 83.5747 151.862C83.9967 151.862 84.4187 151.866 84.8406 151.896C85.0507 151.906 85.2626 151.923 85.4785 151.946C85.6943 151.967 85.8946 151.99 86.1416 152.028C86.6627 152.111 87.0225 152.633 86.9447 153.192C86.8688 153.753 86.3846 154.14 85.8654 154.059C85.8343 154.052 85.8071 154.046 85.7779 154.042L85.7565 154.029Z" fill="#371A45"/>
<path id="Vector_30" d="M61.7428 120.767C61.7428 120.767 57.2295 145.868 55.1138 157.612C53.3072 167.631 46.9815 168.28 33.0874 167.725C28.1968 167.532 24.471 165.713 24.8463 161.404C25.3519 155.616 32.9319 153.426 32.9319 153.426C32.9319 153.426 35.6601 124.226 37.5172 108.286L61.7428 120.767Z" fill="white"/>
<path id="Vector_31" d="M53.0506 151.536C54.5946 141.05 60.3214 125.437 61.5114 122.06C60.5586 127.344 56.9417 147.466 55.1138 157.612C53.3072 167.627 46.9776 168.28 33.0874 167.721C28.2026 167.52 24.471 165.707 24.8521 161.4C24.8929 160.956 24.9707 160.529 25.0893 160.129C26.1997 161.737 28.6713 162.508 31.0281 162.652C46.0462 163.567 51.5882 161.482 53.0506 151.536Z" fill="#371A45" fill-opacity="0.25"/>
<path id="Vector_32" d="M62.2115 120.862C61.9334 124.681 61.3248 128.431 60.6675 132.166L56.7044 154.591L56.2105 157.396C56.1327 157.851 56.0394 158.361 55.9324 158.843C55.8235 159.331 55.701 159.819 55.5513 160.3C55.2635 161.272 54.8823 162.231 54.3729 163.135C53.8692 164.038 53.2255 164.882 52.473 165.591C51.7224 166.301 50.8687 166.86 49.982 167.287C49.0972 167.714 48.1813 168.02 47.2712 168.242C45.4433 168.69 43.6212 168.858 41.8264 168.939C40.0238 169.023 38.2386 169.006 36.4632 168.969C35.5726 168.946 34.6878 168.918 33.8011 168.885L33.138 168.858C32.9124 168.845 32.6791 168.835 32.4476 168.818C31.9848 168.791 31.522 168.734 31.0592 168.673C30.1316 168.542 29.1963 168.33 28.2746 167.987C27.3587 167.637 26.433 167.149 25.6299 166.389C25.2274 166.012 24.8618 165.564 24.574 165.053C24.2862 164.542 24.0743 163.977 23.9556 163.401C23.8331 162.823 23.7962 162.248 23.8234 161.686C23.8429 161.134 23.9304 160.573 24.0645 160.034C24.3426 158.954 24.8521 157.968 25.4802 157.135C26.1083 156.297 26.8434 155.6 27.6212 155.005C28.399 154.406 29.2216 153.918 30.0655 153.491C30.4875 153.282 30.9192 153.087 31.3528 152.909C31.5687 152.821 31.7904 152.738 32.0101 152.656C32.2376 152.572 32.4476 152.499 32.7063 152.428L32.0062 153.315C32.716 145.78 33.4413 138.255 34.1978 130.725C34.9542 123.196 35.7262 115.671 36.5974 108.152C36.6635 107.593 37.136 107.193 37.6572 107.26C38.1764 107.327 38.5478 107.842 38.4856 108.401V108.408C37.6202 115.903 36.8482 123.429 36.0918 130.947C35.3412 138.466 34.61 145.996 33.9041 153.521L33.838 154.214L33.2041 154.406C33.0407 154.457 32.8288 154.534 32.6343 154.607C32.4379 154.679 32.2435 154.762 32.0471 154.846C31.6601 155.011 31.2751 155.194 30.8998 155.388C30.1472 155.782 29.4316 156.232 28.7782 156.747C27.4656 157.767 26.4019 159.092 26.0305 160.617C25.8458 161.372 25.8088 162.204 25.9683 162.901C26.1239 163.606 26.4778 164.209 27.0086 164.704C27.5395 165.198 28.2279 165.568 28.9746 165.847C29.7213 166.123 30.5245 166.305 31.347 166.423C31.7593 166.477 32.1754 166.527 32.5915 166.55C32.8035 166.567 33.0096 166.573 33.2255 166.584L33.8847 166.611C34.7637 166.645 35.6387 166.672 36.5196 166.689C38.2736 166.728 40.0199 166.739 41.7486 166.655C43.4715 166.573 45.1866 166.406 46.8065 166.006C48.4224 165.612 49.9314 164.942 51.1001 163.862C52.2727 162.786 53.0758 161.282 53.5853 159.603C53.7136 159.18 53.8323 158.755 53.9295 158.315C54.0287 157.878 54.1103 157.447 54.1978 156.969L54.7132 154.17L56.7608 142.968L58.8085 131.768C59.4891 128.037 60.2299 124.31 61.2956 120.661C61.3714 120.39 61.6456 120.24 61.8965 120.323C62.0929 120.407 62.227 120.629 62.2115 120.862Z" fill="#371A45"/>
<path id="Vector_33" d="M50.2406 140.673C38.8453 140.673 34.2756 137.911 34.048 137.767C33.5969 137.484 33.4413 136.858 33.7038 136.364C33.9664 135.876 34.5478 135.711 35.0009 135.993C35.0787 136.037 41.5639 139.859 58.3359 138.2C58.8551 138.144 59.3238 138.56 59.3704 139.126C59.4171 139.691 59.0301 140.189 58.5109 140.24C55.4268 140.545 52.6791 140.673 50.2406 140.673Z" fill="#371A45"/>
<path id="Vector_34" d="M32.4593 152.401C33.1438 152.283 33.7719 152.216 34.4253 152.166C35.0729 152.118 35.7224 152.089 36.3699 152.089C37.6669 152.078 38.964 152.166 40.2513 152.361C41.5367 152.562 42.8143 152.872 44.0432 153.337C44.6616 153.569 45.2625 153.854 45.8459 154.168C46.4273 154.49 46.9873 154.863 47.5221 155.271C47.7379 155.433 47.7846 155.755 47.6368 155.987C47.491 156.209 47.2129 156.27 46.9971 156.126L46.9815 156.115C46.4681 155.776 45.9373 155.466 45.3811 155.206C44.825 154.951 44.2552 154.729 43.6738 154.551C42.5051 154.197 41.3014 153.986 40.086 153.881C38.8706 153.781 37.6455 153.781 36.4263 153.875C35.8196 153.919 35.207 153.986 34.6042 154.074C34.0072 154.164 33.385 154.275 32.8346 154.407L32.8133 154.413C32.2999 154.534 31.7904 154.191 31.6757 153.636C31.5629 153.081 31.8818 152.533 32.3971 152.411C32.4185 152.405 32.4379 152.401 32.4593 152.401Z" fill="#371A45"/>
<path id="Vector_35" d="M84.0375 109.202C83.9598 109.912 83.8567 110.592 83.7186 111.258C83.6875 111.419 83.6506 111.574 83.6156 111.729C83.5067 112.196 83.3783 112.644 83.2403 113.088C83.1119 113.488 82.9661 113.875 82.8183 114.252C82.7813 114.346 82.7463 114.436 82.7036 114.524C82.6627 114.625 82.6219 114.719 82.5811 114.813C82.5247 114.935 82.4722 115.062 82.4158 115.184C82.0871 115.887 81.7157 116.564 81.3151 117.208C81.2373 117.324 81.1654 117.441 81.0876 117.556C81.0157 117.667 80.9437 117.774 80.8718 117.878C80.7745 118.023 80.6715 118.161 80.5742 118.299C80.4906 118.41 80.4089 118.521 80.3214 118.632C80.2806 118.682 80.2437 118.733 80.2028 118.783C80.1153 118.898 80.0278 119.009 79.9364 119.116C79.88 119.181 79.8217 119.248 79.7711 119.315C75.2519 124.66 67.913 127.315 60.5897 127.537L61.9684 120.351C63.6311 120.263 65.284 120.079 66.9038 119.809L57.6553 120.156C55.0574 120.257 52.8542 118.046 52.7628 115.244L52.7005 113.36C43.5901 114.497 38.6762 112.566 37.3072 111.901C37.2702 111.314 37.2761 110.703 37.3169 110.083C37.4569 107.876 37.6455 105.542 37.8633 103.123C42.8804 105.596 49.4122 105.347 52.4322 105.058L52.3544 102.659C52.2727 100.207 53.8381 98.0837 55.9791 97.5246C56.2825 97.4409 56.5955 97.3969 56.9203 97.3843L78.8747 96.5531C81.4804 96.4526 83.6817 98.6657 83.7692 101.465L84.0375 109.202Z" fill="#371A45" fill-opacity="0.25"/>
<path id="Vector_36" d="M80.1834 114.924L58.2232 115.755C55.6233 115.853 53.42 113.642 53.3286 110.837L52.9164 98.2444C52.8347 95.7884 54.3982 93.6632 56.5392 93.1104C56.8425 93.0267 57.1575 92.9827 57.4803 92.9701L79.4367 92.1389C82.0405 92.0405 84.2437 94.2515 84.3312 97.0572L84.6559 107.028L84.7434 109.645C84.8407 112.451 82.7813 114.823 80.1834 114.924Z" fill="white"/>
<path id="Vector_37" d="M80.1834 114.924L58.2232 115.755C55.6233 115.853 53.42 113.642 53.3286 110.836L52.9164 98.2443C52.8347 95.7883 54.3982 93.6631 56.5392 93.1104C57.8167 93.9521 58.6237 94.4964 58.6237 94.4964C60.0239 104.559 59.8547 112.068 74.373 110.481C79.3803 109.932 82.69 108.219 84.6559 107.032L84.7434 109.649C84.8407 112.451 82.7813 114.823 80.1834 114.924Z" fill="#371A45" fill-opacity="0.25"/>
<path id="Vector_38" d="M58.474 116.764C56.9261 116.764 55.4579 116.138 54.3106 114.988C53.1128 113.787 52.4225 112.162 52.3661 110.409L51.9849 98.7489C51.8663 95.1162 54.5109 92.0613 57.8828 91.9336L78.9777 91.1359C80.6053 91.0752 82.1591 91.7012 83.3589 92.9051C84.5567 94.107 85.2471 95.7318 85.3035 97.4843L85.6846 109.145C85.8032 112.777 83.1566 115.832 79.7867 115.96L58.6899 116.758C58.6179 116.764 58.546 116.764 58.474 116.764ZM79.1955 93.1815C79.143 93.1815 79.0963 93.1815 79.0458 93.1878L57.949 93.9855C55.6291 94.0735 53.807 96.1819 53.8887 98.6819L54.2698 110.342C54.3106 111.546 54.7851 112.666 55.6135 113.498C56.4361 114.329 57.5114 114.756 58.6296 114.718L79.7244 113.918C80.8406 113.875 81.881 113.364 82.653 112.472C83.425 111.584 83.8256 110.426 83.7847 109.222L83.4036 97.5617C83.3628 96.3578 82.8902 95.2397 82.0618 94.4064C81.2684 93.6086 80.2592 93.1815 79.1955 93.1815Z" fill="#371A45"/>
<path id="Vector_39" d="M81.0623 114.796C80.7804 114.867 80.4867 114.911 80.1834 114.923L58.2232 115.755C56.3175 115.826 54.6257 114.662 53.8226 112.922C53.5289 112.289 53.3539 111.584 53.3325 110.836L53.1478 105.242L53.0856 103.395L52.9164 98.2441C52.823 95.4384 54.8824 93.0703 57.4803 92.9698L62.2271 92.7939C60.055 93.3195 58.4546 95.4594 58.5362 97.9384L58.7579 104.743L58.9485 110.537C59.0399 113.336 61.2431 115.549 63.843 115.455L81.0623 114.796Z" fill="white"/>
<path id="Vector_40" d="M81.0623 114.796C80.7804 114.867 80.4867 114.911 80.1834 114.924L58.2232 115.755C55.6233 115.854 53.42 113.643 53.3325 110.837L53.0856 103.396C53.6826 104.687 54.7287 106.262 56.3175 106.373C57.1925 106.434 58.0268 105.73 58.7521 104.738L58.9427 110.531C59.036 113.333 61.2373 115.544 63.8372 115.45L81.0623 114.796Z" fill="#371A45" fill-opacity="0.25"/>
<path id="Vector_41" d="M58.052 116.781C56.6169 116.781 55.2518 116.199 54.1881 115.133C53.0758 114.013 52.4322 112.499 52.3816 110.874L51.9694 98.2821C51.8566 94.9111 54.3165 92.0677 57.4512 91.9504L62.1959 91.7725L62.4371 93.7972C60.6675 94.2306 59.4269 95.9601 59.4891 97.9115L59.8994 110.504C59.9363 111.584 60.3641 112.593 61.105 113.336C61.8459 114.08 62.8027 114.473 63.8061 114.429L81.0312 113.774L81.284 115.799C80.934 115.887 80.5742 115.937 80.2145 115.95L58.2582 116.781C58.192 116.781 58.124 116.781 58.052 116.781ZM58.8299 93.9458L57.5173 93.9961C55.4327 94.0735 53.7973 95.9642 53.8731 98.2109L54.2854 110.803C54.3204 111.883 54.7482 112.888 55.4891 113.636C56.23 114.379 57.1925 114.773 58.192 114.735L59.6524 114.679C58.6335 113.575 58.0481 112.128 57.9956 110.575L57.5834 97.9827C57.5387 96.4751 58.0054 95.0555 58.8299 93.9458Z" fill="#371A45"/>
<path id="Vector_42" d="M67.4035 104.011C67.4133 104.476 66.9096 108.253 66.9096 108.253C66.9096 108.253 65.8031 108.286 64.4497 108.33C62.756 108.385 61.3248 106.534 61.2645 104.206C61.2022 101.871 62.5246 99.9363 64.2183 99.8861C65.3598 99.8463 66.6782 99.8086 66.6782 99.8086C66.6782 99.8086 67.3841 103.257 67.4035 104.011Z" fill="#22A7F0"/>
<path id="Vector_43" d="M67.4035 104.011C67.4133 104.476 66.9096 108.253 66.9096 108.253C66.9096 108.253 65.8031 108.286 64.4497 108.33C62.756 108.385 61.3248 106.534 61.2645 104.206C61.2022 101.871 62.5246 99.9363 64.2183 99.8861C65.3598 99.8463 66.6782 99.8086 66.6782 99.8086C66.6782 99.8086 67.3841 103.257 67.4035 104.011Z" fill="#371A45" fill-opacity="0.35"/>
<path id="Vector_44" d="M64.3778 109.107C62.334 109.107 60.6267 106.944 60.5489 104.233C60.4711 101.481 62.1085 99.1866 64.1969 99.1196L67.2499 99.0254L67.3783 99.6472C67.4969 100.236 68.0939 103.207 68.1192 103.994C68.1347 104.488 67.738 107.47 67.6194 108.368L67.5319 109.007L64.4711 109.101C64.44 109.107 64.4089 109.107 64.3778 109.107ZM66.1124 100.596L64.2436 100.656C62.9427 100.694 61.9276 102.281 61.9801 104.189C62.0307 106.096 63.1371 107.61 64.4283 107.57L66.2913 107.509C66.5032 105.908 66.6938 104.3 66.6938 104.034C66.6782 103.6 66.3652 101.892 66.1124 100.596Z" fill="#371A45"/>
<path id="Vector_45" d="M69.8751 103.944C69.8829 104.223 69.8712 104.497 69.8382 104.771C69.8071 105.044 69.7546 105.309 69.6846 105.569C69.6146 105.827 69.5271 106.074 69.422 106.308C69.3151 106.543 69.1945 106.758 69.0565 106.959C68.9203 107.16 68.7687 107.34 68.6053 107.5C68.442 107.659 68.2689 107.795 68.0861 107.908C67.9014 108.019 67.7128 108.105 67.5164 108.165C67.32 108.226 67.1197 108.26 66.9194 108.266C66.7171 108.272 66.5168 108.251 66.3165 108.203C66.1182 108.155 65.9237 108.082 65.7351 107.981C65.5445 107.881 65.3656 107.757 65.1926 107.608C65.0214 107.46 64.862 107.288 64.7142 107.098C64.5645 106.905 64.4322 106.696 64.3136 106.469C64.195 106.241 64.0939 106.003 64.0103 105.747C63.9266 105.494 63.8605 105.232 63.8139 104.962C63.7672 104.69 63.74 104.418 63.7322 104.139C63.7244 103.863 63.738 103.586 63.7691 103.314C63.8002 103.04 63.8528 102.774 63.9228 102.516C63.9928 102.257 64.0803 102.01 64.1853 101.777C64.2922 101.543 64.4128 101.325 64.5509 101.124C64.6889 100.923 64.8387 100.743 65.002 100.584C65.1653 100.425 65.3384 100.289 65.5232 100.178C65.7059 100.065 65.8946 99.9787 66.091 99.9179C66.2874 99.8593 66.4877 99.8258 66.688 99.8195C66.8902 99.8132 67.0905 99.8321 67.2908 99.8802C67.4891 99.9284 67.6836 100.004 67.8722 100.102C68.0628 100.203 68.2417 100.328 68.4148 100.477C68.5859 100.626 68.7453 100.795 68.8951 100.988C69.0429 101.178 69.1751 101.388 69.2937 101.616C69.4123 101.842 69.5134 102.083 69.5971 102.336C69.6807 102.59 69.7468 102.851 69.7935 103.124C69.8401 103.394 69.8674 103.668 69.8751 103.944Z" fill="#22A7F0"/>
<path id="Vector_46" d="M63.7283 104.128C63.7905 106.46 65.2159 108.307 66.9155 108.252C68.6131 108.196 69.9354 106.261 69.8693 103.927C69.8635 103.61 69.8285 103.307 69.7721 103.007C69.3793 104.626 68.2883 105.801 66.9719 105.84C65.5056 105.884 64.2436 104.515 63.8897 102.635C63.7652 103.106 63.7147 103.606 63.7283 104.128Z" fill="#371A45" fill-opacity="0.35"/>
<path id="Vector_47" d="M63.7283 104.128C63.7341 104.288 63.7438 104.445 63.7652 104.599C64.053 102.757 65.2217 101.371 66.6529 101.327C68.2319 101.277 69.5815 102.88 69.8012 104.987C69.8595 104.648 69.879 104.294 69.8693 103.934C69.807 101.599 68.3817 99.7523 66.684 99.8089C64.9903 99.8633 63.6621 101.794 63.7283 104.128Z" fill="white"/>
<path id="Vector_48" d="M66.8435 109.029C64.7998 109.029 63.0905 106.867 63.0146 104.155C62.9777 102.857 63.318 101.615 63.9714 100.661C64.6597 99.6513 65.6184 99.0756 66.6627 99.042C67.7069 99.0148 68.6909 99.5257 69.4376 100.489C70.1415 101.4 70.5479 102.618 70.5849 103.916C70.6199 105.215 70.2815 106.456 69.6262 107.409C68.9378 108.418 67.9811 108.996 66.9349 109.029C66.9038 109.023 66.8746 109.029 66.8435 109.029ZM66.756 100.573C66.7404 100.573 66.7191 100.573 66.7035 100.573C66.1065 100.589 65.5465 100.945 65.1187 101.565C64.6559 102.241 64.4128 103.146 64.44 104.105C64.4906 106.012 65.5931 107.526 66.8882 107.486C67.4852 107.47 68.0472 107.116 68.475 106.494C68.9378 105.818 69.179 104.915 69.1537 103.954C69.1284 102.995 68.8406 102.114 68.335 101.465C67.8936 100.889 67.3316 100.573 66.756 100.573Z" fill="#371A45"/>
<path id="Vector_49" d="M73.354 115.859C72.9612 115.859 72.6423 115.522 72.6384 115.099L72.5703 108.724C72.5509 106.982 73.3384 105.363 74.6763 104.381C75.6389 103.678 76.1892 102.513 76.1523 101.259L75.8897 92.2769C75.88 91.8498 76.1892 91.4959 76.5801 91.4854C76.9768 91.4792 77.3054 91.8058 77.3151 92.2287L77.5776 101.211C77.6301 102.991 76.8426 104.653 75.4794 105.652C74.5421 106.339 73.986 107.476 74.0015 108.701L74.0677 115.078C74.0735 115.505 73.7604 115.849 73.3637 115.853C73.3637 115.859 73.3579 115.859 73.354 115.859Z" fill="#371A45"/>
<path id="Vector_50" d="M38.1764 98.5879C38.1764 98.5879 35.3004 98.9983 35.2071 102.618C35.1098 106.517 37.4706 107.281 37.4706 107.281C37.4706 107.281 43.1118 110.776 55.7672 108.579C55.7672 108.579 58.9641 103.318 54.6665 100.441C54.6665 100.441 44.9397 102.08 38.1764 98.5879Z" fill="white"/>
<path id="Vector_51" d="M55.773 108.579C43.1176 110.776 37.4764 107.281 37.4764 107.281C37.4764 107.281 35.1137 106.517 35.2129 102.624C35.2226 102.319 35.2479 102.036 35.2945 101.776C35.9693 103.102 36.9824 103.428 36.9824 103.428C36.9824 103.428 42.0111 106.544 53.2295 105.043C54.7073 104.842 55.9363 103.694 56.2669 102.137C56.2727 102.12 56.2727 102.109 56.2766 102.093C57.9645 104.963 55.773 108.579 55.773 108.579Z" fill="#371A45" fill-opacity="0.25"/>
<path id="Vector_52" d="M47.8566 110.276C41.0836 110.276 37.667 108.496 37.1011 108.169C36.5449 107.943 34.2036 106.729 34.3067 102.598C34.3787 99.6685 36.0102 98.4499 36.9766 97.983C37.6417 97.6626 38.4176 97.6626 39.0982 97.9788C44.5488 100.512 51.7944 99.8423 53.8887 99.5743C54.614 99.48 55.351 99.7145 55.9013 100.207C57.9548 102.043 58.3768 104.893 57.0584 108.025C56.6792 108.923 55.9111 109.551 55.001 109.689C52.298 110.11 49.9217 110.276 47.8566 110.276ZM38.0384 99.681C37.9236 99.681 37.8167 99.702 37.7136 99.7522C36.6849 100.251 36.1443 101.222 36.1074 102.646C36.0296 105.768 37.7136 106.346 37.7292 106.35C37.7953 106.373 37.8575 106.4 37.9197 106.44C37.9664 106.467 43.2401 109.566 54.7385 107.765C55.036 107.721 55.2946 107.516 55.4171 107.221C56.1016 105.592 56.545 103.308 54.7482 101.699C54.5732 101.545 54.3359 101.471 54.1007 101.505C51.8974 101.787 44.2435 102.487 38.3884 99.7627C38.2737 99.7083 38.155 99.681 38.0384 99.681Z" fill="#371A45"/>
<path id="Vector_53" d="M50.7851 70.4096L47.8216 75.8325L40.2396 89.6767L40.0043 90.1101C39.6737 89.8379 39.349 89.5616 39.0262 89.2831C24.5429 77.0197 11.5784 61.2722 9.95852 60.3845C5.19818 57.7777 1.30123 53.0436 0.988148 50.1437C0.39116 44.6768 7.27694 36.2199 8.40285 34.8778C8.50592 34.7564 8.55842 34.6957 8.55842 34.6957C8.55842 34.6957 2.58854 25.6735 6.50494 22.7233C10.5186 19.702 20.0762 34.2287 20.7296 35.0956C21.9488 36.7204 24.9299 29.1115 29.0933 29.5826C34.0597 30.1479 27.5531 41.6764 27.9246 42.9243C28.3563 44.3774 31.8312 49.4548 37.8731 56.5298C38.4389 57.1914 39.0262 57.8677 39.6329 58.5608C42.7831 62.1475 46.5148 66.1571 50.7851 70.4096Z" fill="white"/>
<path id="Vector_54" d="M40.2396 89.6768L40.0043 90.1102C39.6737 89.838 39.349 89.5617 39.0262 89.2832C24.5429 77.0198 11.5784 61.2724 9.95852 60.3846C5.19818 57.7778 1.30123 53.0437 0.988148 50.1438C0.39116 44.6769 7.27694 36.2201 8.40285 34.8779C11.9712 37.9726 20.3387 45.1354 20.3387 45.1354C20.3387 45.1354 20.2609 70.2485 40.2396 89.6768Z" fill="#371A45" fill-opacity="0.25"/>
<path id="Vector_55" d="M40.0043 91.1361C39.8021 91.1361 39.5979 91.0628 39.4229 90.9204C29.3811 82.5641 19.9829 72.3945 14.3689 66.3183C12.1151 63.8769 9.98381 61.5716 9.521 61.2932C4.66732 58.6382 0.410618 53.6864 0.0411462 50.2588C-0.555841 44.748 5.51127 36.8585 7.35473 34.6077C6.30466 32.8594 3.75142 28.186 4.2959 24.771C4.4923 23.5399 5.05429 22.5684 5.95852 21.8879C8.94346 19.6412 13.9158 23.6006 21.1516 34.0026C21.1924 34.057 21.2294 34.1073 21.2605 34.1575C21.5949 33.8644 22.12 33.2426 22.5264 32.761C24.1307 30.8535 26.3397 28.2405 29.1905 28.5692C30.472 28.7137 31.1254 29.4339 31.4443 30.0097C32.6499 32.1831 31.3937 35.91 29.7564 40.1898C29.3908 41.1383 28.9494 42.3087 28.8716 42.7358C29.6689 44.8254 37.383 55.665 51.4229 69.6558C51.8099 70.0369 51.8352 70.6859 51.4754 71.1026C51.1196 71.5193 50.5187 71.5465 50.1317 71.1571C36.1132 57.1956 27.7593 45.7341 27.0184 43.2446C26.8181 42.5641 27.1117 41.7308 27.9965 39.4151C28.9182 37.0072 30.6256 32.5328 29.8128 31.0629C29.7155 30.887 29.5308 30.6693 28.996 30.6086C27.102 30.3929 25.346 32.472 23.9362 34.1408C22.8395 35.4389 22.0422 36.3812 21.0893 36.3539C20.6635 36.3414 20.2726 36.1257 19.9887 35.7488C19.9323 35.6714 19.8079 35.4934 19.629 35.2379C18.6858 33.8853 16.1851 30.2924 13.4568 27.359C10.4622 24.1387 8.12673 22.7568 7.04555 23.5734C6.56718 23.9335 6.27743 24.4381 6.17048 25.1186C5.72323 27.8971 8.30175 32.5495 9.33043 34.1073C9.59295 34.5072 9.56184 35.0453 9.25265 35.3992C7.04943 37.9452 1.44125 45.5352 1.92934 50.0264C2.19186 52.449 5.73295 56.9255 10.3902 59.4757C11.0436 59.8296 12.4126 61.2994 15.7165 64.8819C21.2955 70.9205 30.6412 81.0335 40.5858 89.3061C41.0019 89.6495 41.0797 90.2923 40.7549 90.7424C40.5702 90.9979 40.2921 91.1361 40.0043 91.1361Z" fill="#371A45"/>
<path id="Vector_56" d="M7.73004 58.9645C7.73004 58.9645 6.16076 57.9323 4.53314 56.2594C2.63523 54.3017 0.657582 51.4687 1.029 48.3574C1.71349 42.5973 8.55843 34.689 8.55843 34.689C10.5555 34.4839 13.2216 36.0416 15.5376 38.2045C18.2289 40.7108 20.4321 44.0316 20.5604 46.3222C20.7238 49.4943 14.8317 60.3946 7.73004 58.9645Z" fill="white"/>
<path id="Vector_57" d="M7.73004 58.9654C7.73004 58.9654 6.16076 57.9331 4.53314 56.2602C6.03631 55.9273 8.04895 54.9348 10.2405 52.3385C14.7656 46.9888 16.9163 42.9918 15.5376 38.2012C18.2289 40.7074 20.4321 44.0282 20.5604 46.3188C20.7238 49.4951 14.8317 60.3954 7.73004 58.9654Z" fill="#371A45" fill-opacity="0.25"/>
<path id="Vector_58" d="M8.06837 58.0116C8.18699 58.0116 8.30172 58.0158 8.4145 58.0326C8.46117 58.043 8.54868 58.043 8.63035 58.0493L8.87148 58.0598C9.03677 58.0765 9.19623 58.0556 9.36152 58.0493L9.60265 58.0388L9.84377 57.9991C10.4933 57.9048 11.1369 57.7059 11.7592 57.4128C12.9998 56.814 14.1413 55.9157 15.1564 54.8395C16.1695 53.7696 17.066 52.5426 17.8224 51.2298C18.2036 50.5744 18.5477 49.8982 18.8414 49.2051C19.135 48.5183 19.3859 47.8023 19.5259 47.1322L19.5667 46.8873C19.5823 46.8056 19.5823 46.7386 19.592 46.6611C19.6017 46.5774 19.5978 46.523 19.6017 46.4601C19.6075 46.4057 19.5978 46.3282 19.5881 46.2508C19.5667 45.9513 19.4792 45.6247 19.3761 45.296C19.1603 44.6364 18.8355 43.9769 18.4602 43.3383C17.7038 42.0632 16.7568 40.8718 15.7223 39.7956C14.6819 38.7215 13.5443 37.7437 12.3309 36.9731C11.7242 36.5921 11.0961 36.2592 10.4622 36.0246C9.83405 35.7922 9.19623 35.6771 8.64008 35.721L9.24679 35.3986C8.51173 36.2696 7.78057 37.2118 7.08635 38.154C6.39213 39.1025 5.73292 40.0782 5.10482 41.0707C4.48644 42.0694 3.90501 43.0891 3.39553 44.1381C3.26135 44.3977 3.16023 44.6637 3.03578 44.9296L2.86077 45.3295C2.80437 45.4635 2.7577 45.5954 2.70714 45.7336C2.60797 46.0058 2.50102 46.2717 2.41351 46.5376L2.18211 47.3479C2.13544 47.4819 2.11404 47.6201 2.0946 47.752L2.02265 48.1582C2.00126 48.2901 1.96626 48.4283 1.95459 48.556L1.92348 48.9392C1.90792 49.4501 1.96626 49.9652 2.08876 50.4802C2.326 51.5062 2.81993 52.5049 3.4422 53.4199C4.06446 54.3391 4.81119 55.1892 5.62402 55.9764C6.03044 56.3701 6.45242 56.7407 6.88606 57.1008C7.10191 57.2788 7.32359 57.4568 7.54333 57.6222L7.8778 57.8713L8.04892 57.9949L8.17143 58.0765L8.19282 58.0891C8.1831 58.0661 8.11504 58.0284 8.06837 58.0116ZM7.38971 59.9233C7.32748 59.896 7.24581 59.8458 7.20497 59.8248L7.17969 59.8081L7.12719 59.7746L7.02996 59.7076L6.83939 59.5736L6.46797 59.2972C6.22101 59.1151 5.98572 58.9203 5.74848 58.7256C5.274 58.3383 4.81702 57.9279 4.36976 57.4945C3.47914 56.636 2.64492 55.6938 1.91959 54.6239C1.19814 53.5581 0.575877 52.35 0.256965 50.9806C0.0975089 50.2981 0.0138914 49.582 0.0352819 48.8617L0.0761182 48.3236C0.0916749 48.1456 0.132511 47.9865 0.159735 47.8148L0.251131 47.3102C0.282244 47.1427 0.307524 46.971 0.360028 46.8161C1.03869 44.2365 2.24822 42.0297 3.53554 39.9233C4.85202 37.8337 6.2774 35.876 7.86419 33.9958C8.02364 33.8031 8.24338 33.6963 8.46506 33.6796C9.41791 33.5979 10.2871 33.7968 11.0805 34.0858C11.872 34.3789 12.6031 34.7726 13.2935 35.206C14.678 36.0812 15.907 37.1448 17.0387 38.3153C18.1666 39.492 19.2011 40.7776 20.0665 42.2349C20.4923 42.9677 20.8832 43.7487 21.1729 44.6197C21.311 45.0636 21.4296 45.5179 21.4763 46.033C21.5074 46.2675 21.5074 46.5879 21.486 46.837C21.4705 46.9606 21.4666 47.0925 21.4452 47.216L21.3829 47.5698C21.1924 48.4848 20.8987 49.2889 20.5643 50.0761C20.2298 50.8571 19.8487 51.6067 19.4325 52.327C18.5983 53.7696 17.6221 55.1117 16.4845 56.3198C15.3508 57.5238 14.0344 58.5769 12.5215 59.3077C11.7592 59.6636 10.9464 59.9233 10.1024 60.0447L9.78738 60.0908L9.46847 60.1075C9.25845 60.118 9.04261 60.1347 8.83065 60.118L8.51173 60.1012C8.40284 60.0949 8.30561 60.0949 8.16754 60.074C7.90502 60.03 7.6425 59.9798 7.38971 59.9233Z" fill="#371A45"/>
<path id="Vector_59" d="M22.9989 75.0832C22.6489 75.0832 22.3144 74.8738 22.1452 74.5137C21.9138 74.0091 22.1044 73.3935 22.5731 73.1381C22.68 73.0774 33.6222 67.1163 37.3577 56.8085C37.5483 56.2809 38.0986 56.0213 38.5887 56.2265C39.0768 56.4317 39.3198 57.0242 39.1293 57.5518C35.1195 68.6071 23.8895 74.7189 23.417 74.9722C23.2867 75.0497 23.1428 75.0832 22.9989 75.0832Z" fill="#371A45"/>
<path id="Vector_60" d="M34.6159 37.3733L36.2824 38.0559C36.5819 38.1773 36.9163 38.0161 37.0291 37.6958L44.6616 16.0375C44.7744 15.7151 44.6247 15.3549 44.3272 15.2335L42.6587 14.5509C39.5143 13.2653 36.0004 14.9676 34.8065 18.3553L31.0787 28.9123C29.8847 32.3 31.4715 36.0919 34.6159 37.3733Z" fill="white"/>
<path id="Vector_61" d="M36.4885 38.2886C36.3952 38.2886 36.3077 38.2718 36.2202 38.232L34.5537 37.5516C31.3256 36.2304 29.6941 32.3212 30.9192 28.8455L34.6412 18.2886C35.2323 16.6031 36.401 15.2673 37.9295 14.5282C39.4579 13.7911 41.1555 13.7367 42.7209 14.3732L44.3894 15.0558C44.578 15.1333 44.7277 15.284 44.8113 15.4829C44.893 15.6818 44.8989 15.9038 44.825 16.1048L37.1944 37.7609C37.1225 37.9661 36.9824 38.1273 36.7977 38.2174C36.6985 38.2655 36.5916 38.2886 36.4885 38.2886ZM34.6762 37.2019L36.3446 37.8845C36.5546 37.9661 36.786 37.8552 36.8697 37.629L44.5022 15.9708C44.578 15.7426 44.4769 15.4934 44.2649 15.4055L42.5965 14.7229C39.5454 13.475 36.1288 15.1333 34.9698 18.4163L31.2498 28.9733C30.0869 32.2668 31.6251 35.954 34.6762 37.2019Z" fill="#371A45"/>
<path id="Vector_62" d="M32.86 23.8604L31.6563 27.2774C30.1434 31.5676 32.1502 36.3708 36.1327 37.9998C36.5138 38.1547 36.9358 37.9495 37.0797 37.5391L39.0826 31.867C38.8862 32.0848 38.5829 32.1623 38.3009 32.0513L37.8323 31.8566C34.6879 30.571 32.7724 27.2984 32.86 23.8604Z" fill="#371A45" fill-opacity="0.25"/>
<path id="Vector_63" d="M36.4827 39.1468C36.2979 39.1468 36.1132 39.1154 35.9324 39.0358L34.2659 38.3554C30.6217 36.8625 28.7841 32.4613 30.1686 28.5396L33.8886 17.9827C35.2731 14.0568 39.3607 12.0782 42.999 13.569L44.6655 14.2516C45.4686 14.5782 45.8711 15.5497 45.5678 16.4144L37.9353 38.0727C37.7039 38.7364 37.1108 39.1468 36.4827 39.1468ZM34.9601 36.3914L36.2571 36.9232L43.6057 16.0648L42.3087 15.533C41.033 15.0116 39.6426 15.0556 38.3981 15.6607C37.1516 16.2637 36.2007 17.3504 35.7165 18.7323L31.9946 29.2892C30.9912 32.1284 32.3252 35.3173 34.9601 36.3914Z" fill="#371A45"/>
<path id="Vector_64" d="M111.089 42.5414L109.42 41.8588C109.123 41.7373 108.786 41.8986 108.673 42.221L101.041 63.8772C100.928 64.1996 101.078 64.5597 101.375 64.6812L103.044 65.3638C106.188 66.6494 109.704 64.9471 110.898 61.5593L114.618 51.0024C115.818 47.6146 114.233 43.827 111.089 42.5414Z" fill="white"/>
<path id="Vector_65" d="M105.21 65.9853C104.46 65.9853 103.707 65.8346 102.982 65.5414L101.315 64.8589C101.125 64.7814 100.975 64.6306 100.893 64.4317C100.81 64.2328 100.806 64.0109 100.878 63.812L108.51 42.1537C108.582 41.9485 108.72 41.7873 108.905 41.6994C109.092 41.6093 109.298 41.6051 109.482 41.6826L111.149 42.3631C114.377 43.6843 116.008 47.5934 114.783 51.0691L111.061 61.626C110.47 63.3116 109.302 64.6474 107.773 65.3865C106.954 65.7843 106.085 65.9853 105.21 65.9853ZM109.214 42.0092C109.158 42.0092 109.101 42.0197 109.049 42.0469C108.952 42.0972 108.874 42.1809 108.839 42.2919L101.206 63.9502C101.171 64.0611 101.171 64.1763 101.216 64.2831C101.263 64.3878 101.34 64.4715 101.444 64.5092L103.11 65.1918C104.588 65.7969 106.194 65.7466 107.635 65.0473C109.076 64.348 110.177 63.0896 110.739 61.4983L114.459 50.9414C115.021 49.3501 114.974 47.6206 114.324 46.067C113.677 44.5155 112.508 43.3283 111.03 42.7232L109.364 42.0427C109.311 42.0155 109.267 42.0092 109.214 42.0092Z" fill="#371A45"/>
<path id="Vector_66" d="M103.182 57.8006L101.097 63.7219C100.954 64.1323 101.144 64.5866 101.525 64.7478C103.616 65.6021 105.838 65.4137 107.701 64.4212C109.379 63.523 110.764 61.9652 111.48 59.9237L112.559 56.8584C110.48 59.0862 107.301 59.93 104.376 58.7365L103.656 58.4434C103.388 58.3282 103.225 58.077 103.182 57.8006Z" fill="#371A45" fill-opacity="0.25"/>
<path id="Vector_67" d="M105.21 66.8498C104.36 66.8498 103.516 66.6823 102.7 66.3494L101.031 65.6689C100.646 65.5077 100.337 65.1978 100.166 64.7874C99.9968 64.377 99.9812 63.9227 100.131 63.506L107.763 41.8477C107.913 41.4311 108.201 41.1003 108.582 40.916C108.961 40.7338 109.383 40.7171 109.77 40.8783L111.437 41.5588C113.202 42.2812 114.599 43.7008 115.375 45.5517C116.147 47.4047 116.209 49.4713 115.534 51.3745L111.814 61.9315C111.145 63.8326 109.827 65.336 108.108 66.1735C107.182 66.6216 106.198 66.8498 105.21 66.8498ZM102.097 63.8557L103.394 64.3875C104.67 64.9088 106.06 64.8649 107.305 64.2598C108.551 63.6546 109.502 62.568 109.986 61.1882L113.708 50.6312C114.706 47.792 113.377 44.6032 110.743 43.5228L109.446 42.991L102.097 63.8557Z" fill="#371A45"/>
<path id="Vector_68" d="M85.1751 81.4717C83.9034 82.171 82.5811 82.7803 81.2335 83.2954C77.0331 84.8929 72.51 85.5923 67.913 85.2363C65.5406 85.0479 63.1469 84.5831 60.7706 83.8167C55.773 82.1982 51.3977 79.4198 47.8157 75.8331C44.4652 72.4788 41.8148 68.4189 40.0082 63.9445C39.0515 61.5764 38.3359 59.0994 37.8731 56.5429C38.439 57.2025 39.0262 57.8788 39.6329 58.5718C39.5396 57.7448 39.4365 56.947 39.314 56.1765C38.8823 53.4546 39.6543 53.4043 39.8177 50.6489C39.9888 47.9269 49.4531 47.8034 58.9329 49.4282C65.9121 51.0195 76.127 52.4391 78.1241 58.5718C78.2485 59.9244 78.8338 61.6664 79.2558 62.9018L80.2553 73.488C81.531 75.4834 83.2869 78.2954 85.1751 81.4717Z" fill="#371A45" fill-opacity="0.25"/>
<path id="Vector_69" d="M108.957 39.9575C108.957 40.594 108.942 41.2305 108.913 41.867C108.885 42.5014 108.841 43.1379 108.782 43.7703C108.726 44.4047 108.652 45.0349 108.567 45.6652C108.479 46.2954 108.378 46.9235 108.263 47.5475C108.148 48.1714 108.018 48.7933 107.874 49.411C107.732 50.0286 107.573 50.64 107.402 51.2493C107.231 51.8586 107.046 52.4637 106.846 53.0625C106.647 53.6635 106.435 54.256 106.208 54.8444C105.982 55.4327 105.743 56.0148 105.49 56.5906C105.237 57.1664 104.973 57.7338 104.693 58.2949C104.415 58.8582 104.123 59.4109 103.82 59.9574C103.516 60.5039 103.2 61.042 102.871 61.5696C102.544 62.0994 102.204 62.6207 101.852 63.1316C101.5 63.6425 101.136 64.145 100.761 64.6371C100.386 65.1291 100.001 65.6107 99.604 66.0818C99.2073 66.555 98.7989 67.0156 98.3808 67.4658C97.9627 67.9159 97.5349 68.3556 97.0974 68.7828C96.6599 69.2099 96.2126 69.6245 95.7556 70.0286C95.2987 70.4327 94.8339 70.8242 94.3594 71.2032C93.883 71.5843 93.4007 71.9507 92.9088 72.3046C92.4187 72.6563 91.919 72.9976 91.4114 73.3242C90.9058 73.653 90.3905 73.967 89.8694 74.2664C89.3482 74.5658 88.8212 74.8527 88.2865 75.1249C87.7537 75.3971 87.2131 75.6546 86.6666 75.8975C86.1202 76.1425 85.5699 76.3707 85.0137 76.5864C84.4576 76.7999 83.8956 76.9988 83.3297 77.1852C82.7658 77.3694 82.196 77.539 81.6224 77.694C81.0487 77.8489 80.4731 77.9871 79.8936 78.1127C79.3142 78.2363 78.7308 78.3452 78.1474 78.4394C77.5621 78.5315 76.9768 78.609 76.3876 78.6718C75.8003 78.7346 75.2111 78.7807 74.6199 78.8121C74.0307 78.8435 73.4396 78.8602 72.8484 78.8602C72.2573 78.8602 71.668 78.8435 71.0769 78.8121C70.4877 78.7807 69.8985 78.7346 69.3093 78.6718C68.722 78.609 68.1347 78.5315 67.5514 78.4394C66.966 78.3452 66.3846 78.2363 65.8051 78.1127C65.2256 77.9871 64.6481 77.8489 64.0744 77.694C63.5027 77.539 62.933 77.3694 62.3671 77.1852C61.8012 76.9988 61.2412 76.7999 60.685 76.5864C60.1289 76.3707 59.5766 76.1425 59.0302 75.8975C58.4857 75.6546 57.9451 75.3971 57.4103 75.1249C56.8756 74.8527 56.3486 74.5658 55.8274 74.2664C55.3063 73.967 54.7929 73.653 54.2854 73.3242C53.7779 72.9976 53.28 72.6563 52.7881 72.3046C52.2961 71.9507 51.8138 71.5843 51.3393 71.2032C50.8649 70.8242 50.3982 70.4327 49.9412 70.0286C49.4862 69.6245 49.0389 69.2099 48.5994 68.7828C48.1619 68.3536 47.7341 67.9159 47.316 67.4658C46.8979 67.0156 46.4915 66.555 46.0948 66.0818C45.6981 65.6107 45.3111 65.1291 44.9378 64.6371C44.5625 64.145 44.1988 63.6425 43.8469 63.1316C43.4949 62.6207 43.1546 62.0994 42.8259 61.5696C42.4973 61.042 42.1823 60.5039 41.877 59.9574C41.5736 59.4109 41.2819 58.8582 41.0039 58.2949C40.7258 57.7338 40.4594 57.1664 40.2066 56.5906C39.9557 56.0148 39.7146 55.4327 39.489 54.8444C39.2635 54.256 39.0496 53.6635 38.8512 53.0625C38.6529 52.4637 38.4662 51.8586 38.2951 51.2493C38.1239 50.64 37.9664 50.0286 37.8225 49.411C37.6786 48.7933 37.5503 48.1714 37.4336 47.5475C37.3189 46.9235 37.2178 46.2954 37.1322 45.6652C37.0447 45.0349 36.9727 44.4047 36.9144 43.7703C36.8561 43.1379 36.8133 42.5014 36.7841 41.867C36.7549 41.2305 36.7413 40.594 36.7413 39.9575C36.7413 39.3209 36.7549 38.6844 36.7841 38.0479C36.8133 37.4135 36.8561 36.7791 36.9144 36.1447C36.9727 35.5102 37.0447 34.88 37.1322 34.2498C37.2178 33.6195 37.3189 32.9935 37.4336 32.3674C37.5503 31.7435 37.6786 31.1237 37.8225 30.5061C37.9664 29.8884 38.1239 29.2749 38.2951 28.6656C38.4662 28.0563 38.6529 27.4512 38.8512 26.8524C39.0496 26.2515 39.2635 25.6589 39.489 25.0706C39.7146 24.4822 39.9557 23.9001 40.2066 23.3243C40.4594 22.7485 40.7258 22.1811 41.0039 21.62C41.2819 21.0567 41.5736 20.504 41.877 19.9575C42.1823 19.411 42.4973 18.875 42.8259 18.3453C43.1546 17.8155 43.4949 17.2942 43.8469 16.7833C44.1988 16.2724 44.5625 15.7699 44.9378 15.2779C45.3111 14.7858 45.6981 14.3042 46.0948 13.8331C46.4915 13.3599 46.8979 12.8993 47.316 12.4491C47.7341 11.999 48.1619 11.5614 48.5994 11.1321C49.0389 10.705 49.4862 10.2904 49.9412 9.88633C50.3982 9.48223 50.8649 9.09068 51.3393 8.71171C51.8138 8.33273 52.2961 7.96632 52.7881 7.61246C53.28 7.25861 53.7779 6.91732 54.2854 6.59069C54.7929 6.26196 55.3063 5.94999 55.8274 5.64848C56.3486 5.34907 56.8756 5.06222 57.4103 4.79002C57.9451 4.51783 58.4857 4.26029 59.0302 4.01741C59.5766 3.77244 60.1289 3.54421 60.685 3.32855C61.2412 3.11498 61.8012 2.91607 62.3671 2.72973C62.933 2.54547 63.5027 2.37587 64.0744 2.22093C64.6481 2.06599 65.2256 1.9278 65.8051 1.80217C66.3846 1.67864 66.966 1.56976 67.5514 1.47554C68.1347 1.38341 68.722 1.30594 69.3093 1.24313C69.8985 1.18032 70.4877 1.13425 71.0769 1.10284C71.668 1.07144 72.2573 1.05469 72.8484 1.05469C73.4396 1.05469 74.0307 1.07144 74.6199 1.10284C75.2111 1.13425 75.8003 1.18032 76.3876 1.24313C76.9768 1.30594 77.5621 1.38341 78.1474 1.47554C78.7308 1.56976 79.3142 1.67864 79.8936 1.80217C80.4731 1.9278 81.0487 2.06599 81.6224 2.22093C82.196 2.37587 82.7658 2.54547 83.3297 2.72973C83.8956 2.91607 84.4576 3.11498 85.0137 3.32855C85.5699 3.54421 86.1202 3.77244 86.6666 4.01741C87.2131 4.26029 87.7537 4.51783 88.2865 4.79002C88.8212 5.06222 89.3482 5.34907 89.8694 5.64848C90.3905 5.94999 90.9058 6.26196 91.4114 6.59069C91.919 6.91732 92.4187 7.25861 92.9088 7.61246C93.4007 7.96632 93.883 8.33273 94.3594 8.71171C94.8339 9.09068 95.2987 9.48223 95.7556 9.88633C96.2126 10.2904 96.6599 10.705 97.0974 11.1321C97.5349 11.5614 97.9627 11.999 98.3808 12.4491C98.7989 12.8993 99.2073 13.3599 99.604 13.8331C100.001 14.3042 100.386 14.7858 100.761 15.2779C101.136 15.7699 101.5 16.2724 101.852 16.7833C102.204 17.2942 102.544 17.8155 102.871 18.3453C103.2 18.875 103.516 19.411 103.82 19.9575C104.123 20.504 104.415 21.0567 104.693 21.62C104.973 22.1811 105.237 22.7485 105.49 23.3243C105.743 23.9001 105.982 24.4822 106.208 25.0706C106.435 25.6589 106.647 26.2515 106.846 26.8524C107.046 27.4512 107.231 28.0563 107.402 28.6656C107.573 29.2749 107.732 29.8884 107.874 30.5061C108.018 31.1237 108.148 31.7435 108.263 32.3674C108.378 32.9935 108.479 33.6195 108.567 34.2498C108.652 34.88 108.726 35.5102 108.782 36.1447C108.841 36.7791 108.885 37.4135 108.913 38.0479C108.942 38.6844 108.957 39.3209 108.957 39.9575Z" fill="white"/>
<path id="Vector_70" d="M72.8289 79.0531C69.3792 79.0531 65.8751 78.5213 62.406 77.3969C53.1225 74.3902 45.4842 67.6712 40.893 58.4774C36.3038 49.2835 35.3101 38.7098 38.0986 28.7077C40.8891 18.7057 47.1273 10.477 55.6602 5.52939C64.193 0.583834 74.0074 -0.486097 83.2908 2.5185C102.453 8.71824 113.358 30.5587 107.604 51.2077C102.884 68.1088 88.4323 79.0531 72.8289 79.0531ZM72.8017 1.22244C66.9407 1.22244 61.1361 2.78651 55.8235 5.8623C47.3743 10.7639 41.1983 18.915 38.4331 28.8187C35.6698 38.7224 36.6577 49.1893 41.2022 58.2994C45.7525 67.4053 53.317 74.0573 62.509 77.0368C65.9412 78.1444 69.4162 78.6762 72.8289 78.6762C88.2826 78.6762 102.591 67.8429 107.264 51.0967C112.967 30.6529 102.163 9.02394 83.1877 2.88073C79.7653 1.77102 76.2709 1.22244 72.8017 1.22244Z" fill="#371A45"/>
<path id="Vector_71" d="M40.0335 23.7119C39.3451 25.3241 38.752 27.0117 38.2639 28.7622C32.5313 49.34 43.3587 71.0318 62.4585 77.2127C81.5562 83.3894 101.69 71.7248 107.429 51.147C107.592 50.5544 107.748 49.9598 107.882 49.3672C100.491 66.7499 82.1532 76.038 64.6811 70.3827C46.1337 64.3819 35.3879 43.7496 40.0335 23.7119Z" fill="#371A45" fill-opacity="0.25"/>
<path id="Vector_72" d="M72.8289 79.9132C69.3034 79.9132 65.7215 79.3688 62.1746 78.2214C52.6889 75.1498 44.8775 68.2864 40.1832 58.8873C35.4909 49.4882 34.4759 38.6822 37.3266 28.4623C43.209 7.36522 63.9305 -4.64481 83.5125 1.69312C103.094 8.03104 114.243 30.353 108.36 51.4522C103.548 68.7302 88.7765 79.9132 72.8289 79.9132ZM72.8639 2.09722C57.7545 2.09722 43.7613 12.6939 39.1954 29.0612C36.4944 38.7429 37.4569 48.9836 41.9022 57.8844C46.3495 66.7893 53.7448 73.2926 62.7365 76.203C66.091 77.2897 69.4881 77.8069 72.8289 77.8069C87.9384 77.8069 101.932 67.2102 106.498 50.8408C112.071 30.8534 101.51 9.70608 82.9563 3.70107C79.5961 2.61858 76.2047 2.09722 72.8639 2.09722Z" fill="#371A45"/>
<path id="Vector_73" d="M38.1103 29.7545C35.9732 37.0137 36.1793 44.499 38.2795 51.3457C39.8546 56.4818 49.2256 67.7318 63.4152 72.7276C76.5742 77.3633 90.8105 73.8813 94.8397 70.6589C100.218 66.3625 104.388 60.3742 106.523 53.115C112.174 33.9149 99.1995 20.7218 80.3059 14.2688C61.4123 7.81357 43.7613 10.5544 38.1103 29.7545Z" fill="#371A45"/>
<path id="Vector_74" d="M77.1109 76.0484C72.6539 76.0484 67.8352 75.3993 63.1118 73.7306C48.0588 68.4312 38.9076 56.752 37.3538 51.6787C35.1098 44.3651 35.0534 36.6745 37.1788 29.4384C39.9518 20.0079 45.6028 13.9296 53.9762 11.3794C61.2742 9.15575 70.4818 9.81111 80.6053 13.2701C90.7288 16.7248 98.6025 21.9091 103.378 28.2533C108.86 35.5271 110.229 44.0049 107.454 53.4375C105.323 60.6737 101.165 66.9216 95.4211 71.507C92.6481 73.7264 85.5251 76.0484 77.1109 76.0484ZM63.2868 12.1897C60.1172 12.1897 57.1731 12.5938 54.507 13.4041C46.8065 15.7491 41.6047 21.3542 39.0359 30.0707C37.0349 36.8797 37.0913 44.1264 39.2012 51.0192C40.6013 55.5941 49.4997 66.7289 63.7146 71.7352C76.5392 76.2536 90.4138 72.8889 94.2524 69.8215C99.6623 65.4978 103.584 59.6142 105.585 52.8052C112.533 29.1892 90.0132 18.693 80.0025 15.278C74.0073 13.2261 68.3603 12.1897 63.2868 12.1897Z" fill="#371A45"/>
<path id="Vector_75" d="M50.0345 14.1133C44.5897 16.986 40.3796 22.0425 38.1103 29.754C35.9732 37.0132 36.1793 44.4985 38.2795 51.3452C39.8546 56.4813 49.2256 67.7313 63.421 72.7334C68.4283 74.4963 73.5951 75.0826 78.2991 74.9549C60.9767 68.4138 49.5814 54.6387 47.631 48.2694C44.965 39.5739 44.7083 30.0701 47.4151 20.8658C48.1308 18.4056 49.0155 16.1589 50.0345 14.1133Z" fill="#111A28" fill-opacity="0.35"/>
<path id="Vector_76" d="M108.761 36.9129C108.38 36.9129 108.02 36.67 107.867 36.2701C107.861 36.2638 107.855 36.247 107.855 36.2428L107.83 36.1591C104.794 25.1855 95.1392 16.1926 81.3404 11.4858C67.6194 6.79986 54.9602 7.99751 46.5965 14.7626L46.4876 14.8505L46.3651 14.9008C45.8653 15.1122 45.3053 14.8505 45.103 14.3187C44.928 13.8476 45.0875 13.3199 45.4686 13.0478C54.3418 5.89534 67.6252 4.59928 81.9335 9.48411C96.3487 14.4066 106.472 23.9104 109.698 35.554C109.848 36.0712 109.605 36.6365 109.132 36.8417C109.008 36.8856 108.885 36.9129 108.761 36.9129Z" fill="#371A45"/>
<path id="Vector_77" d="M95.4775 61.9212C95.4775 61.9212 106.573 44.8588 99.3181 34.0737C92.0609 23.2906 78.4177 18.6654 78.4585 19.7144C78.4585 19.7144 92.3954 28.8078 94.5208 43.6779C96.1581 55.1498 95.4775 61.9212 95.4775 61.9212Z" fill="white" fill-opacity="0.5"/>
</g>
</svg>
