<svg width="152" height="148" viewBox="0 0 152 148" fill="none" xmlns="http://www.w3.org/2000/svg">
<g id="Component 11">
<path id="Vector" d="M91.7183 138.473C91.7183 138.473 98.8127 154.647 121.843 141.624C121.843 141.624 109.874 141.892 106.834 130.994C106.834 130.994 99.6016 137.496 91.7183 138.473Z" fill="#F73232"/>
<path id="Vector_2" d="M105.742 146.694C97.3799 146.694 93.4061 141.394 92.1641 139.306C93.063 138.947 93.9418 138.581 94.8004 138.209C97.268 137.35 99.6438 136.271 101.71 134.788C103.588 133.728 105.338 132.617 106.951 131.463C106.958 131.459 106.964 131.457 106.971 131.455C110.061 141.39 120.76 141.624 121.766 141.624C121.815 141.624 121.843 141.624 121.843 141.624C115.232 145.362 109.936 146.696 105.742 146.694Z" fill="#BC2121"/>
<path id="Vector_3" d="M115.704 86.5404C115.704 86.5404 114.053 86.5089 111.795 87.3874C108.78 88.5612 104.684 91.362 102.003 98.0252C102.003 98.0252 95.7472 94.7517 88.6785 95.0019C87.9942 95.0235 87.2988 95.0826 86.6035 95.1811C86.6035 95.1811 90.9442 75.3393 115.704 86.5404Z" fill="#F73232"/>
<path id="Vector_4" d="M102.297 97.3224C101.456 97.0387 100.557 96.7512 99.6053 96.4695C96.736 95.6246 93.1053 94.7619 89.0471 94.2655C90.9221 90.7183 94.9766 85.875 103.152 85.875C105.634 85.875 108.496 86.3221 111.794 87.3877C108.89 88.5202 104.977 91.1634 102.297 97.3224Z" fill="#BC2121"/>
<path id="Vector_5" d="M45.4603 125.151C45.198 127.313 44.743 129.442 44.1302 131.518C42.9029 135.653 41.0408 139.582 38.7346 143.155C37.2321 145.483 36.0286 145.674 33.5574 145.205C24.9365 143.578 16.1469 140.242 9.17536 134.449C6.5005 132.229 3.0184 128.71 1.77086 124.818C1.20213 123.035 1.10123 121.17 1.76536 119.321C1.79655 119.238 1.8259 119.153 1.85893 119.07C4.31364 112.525 10.1165 107.44 15.646 103.966C21.7718 100.115 28.6791 97.9681 35.5644 96.3116C35.9882 96.2073 36.4322 96.1068 36.8597 96.1974C37.0028 96.2269 37.1349 96.2782 37.2596 96.3451C37.8082 96.6307 38.2173 97.2137 38.4943 97.8125C38.5714 97.976 38.6466 98.1394 38.7255 98.3029C42.7029 106.873 46.6895 115.222 45.4603 125.151Z" fill="#F73232"/>
<path id="Vector_6" d="M38.3624 145.052C38.3495 145.091 38.3404 145.132 38.3257 145.174C38.1386 145.81 37.9111 146.554 37.8432 146.527C37.6762 146.47 37.7331 146.157 37.768 145.969C37.834 145.615 37.9184 145.239 38.1275 144.957L38.1441 144.931C38.1496 144.924 38.2211 144.973 38.3624 145.052Z" fill="#DFE5E9"/>
<path id="Vector_7" d="M109.588 114.28C109.571 115.613 109.457 117.199 109.312 118.804C109.134 120.744 108.907 122.716 108.734 124.319C108.476 126.694 107.351 128.168 106.058 130.232C105.887 130.504 105.775 130.84 105.524 131.024C97.4754 136.907 91.7019 139.164 84.5671 140.982C74.9629 143.432 65.1624 144.915 55.3179 145.626C53.8043 145.733 40.94 147.56 38.3257 145.173C38.2505 145.104 38.1826 145.029 38.1275 144.957C37.8175 144.551 37.7643 144.043 38.045 143.41C39.6631 139.759 41.4023 136.011 42.7746 132.166C44.7321 126.685 45.954 120.994 45.0587 115.076C44.4955 111.343 43.3672 107.696 41.6848 104.365C40.9235 102.85 36.4489 97.2488 38.7164 95.7125C40.1071 94.773 42.571 95.096 44.1451 94.968C50.2066 94.4599 56.3452 94.9562 62.4105 95.096C71.0974 95.2969 79.7769 95.6928 88.4455 96.2857C92.0652 96.5279 95.5234 96.7623 99.0275 97.6782C101.075 98.21 103.26 98.8127 104.715 100.414L104.755 100.461C104.841 100.556 104.924 100.65 105.003 100.751C105.153 100.948 105.295 101.155 105.425 101.377L105.443 101.407C106.122 102.584 106.775 103.808 107.351 105.068C108.696 108.015 109.635 111.15 109.588 114.28Z" fill="#DFE5E9"/>
<path id="Vector_8" d="M104.304 99.7768C104.304 99.5995 104.262 99.6448 104.429 99.6448L104.304 99.7768Z" fill="#DFE5E9"/>
<path id="Vector_9" d="M110.4 128.499C110.442 128.229 110.42 127.935 110.532 127.689C110.56 127.63 111.097 128.227 111.143 128.278C111.464 128.647 111.857 129.029 112.29 129.243C112.71 129.45 113.174 129.462 113.596 129.608C114.605 129.954 115.383 130.573 116.44 130.88C117.849 131.292 119.28 131.802 120.727 132.123C123.661 132.771 127.058 132.536 130.021 132.324C130.808 132.267 131.544 131.975 132.289 131.774C133.019 131.577 133.814 131.304 134.41 130.795C134.551 130.673 134.599 130.307 134.758 130.218C134.788 130.203 134.859 130.22 134.94 130.24C135.103 130.277 135.301 130.313 135.254 130.073C135.237 129.984 132.845 129.397 132.641 129.344C131.606 129.076 130.577 127.849 129.695 127.234C129.381 127.016 127.748 125.091 128.034 124.764C128.315 124.443 128.842 124.567 129.337 124.69C129.638 124.764 129.926 124.839 130.142 124.814C131.008 124.715 132.014 124.225 132.832 123.904C133.735 123.549 134.703 123.364 135.615 123.006C137.571 122.237 139.484 120.548 141.44 119.693C142.524 119.22 143.346 118.988 144.287 118.184C144.953 117.615 145.524 116.654 146.315 116.266C146.663 116.094 147.056 115.891 147.423 115.783C147.56 115.742 147.872 115.767 147.823 115.623C147.707 115.287 146.839 115.568 146.674 115.588C145.764 115.692 144.992 115.899 144.06 115.785C142.434 115.588 140.884 115.011 139.277 114.69C138.688 114.572 138.209 114.127 137.624 113.973C137.042 113.823 136.505 113.823 135.938 113.563C135.698 113.453 135.547 113.313 135.679 112.931C135.83 112.502 135.564 111.151 135.921 110.985C137.879 110.081 139.4 109.791 141.469 109.392C142.222 109.244 142.877 109.203 143.609 109.136C143.64 109.132 143.752 109.157 143.878 109.183C144.045 109.214 144.234 109.25 144.273 109.216C144.374 109.132 144.396 108.917 144.315 108.809C144.196 108.647 143.926 108.742 143.757 108.637C142.952 108.145 142.132 107.625 141.326 107.107C140.642 106.668 140.125 105.935 139.369 105.632C137.147 104.741 134.753 104.04 132.362 103.751C131.014 103.587 129.704 103.428 128.359 103.471C127.934 103.485 127.517 103.53 127.093 103.627C126.936 103.662 126.769 103.646 126.607 103.67C126.537 103.682 126.4 103.826 126.407 103.749C126.484 103.04 128.31 102.837 128.73 102.691C129.46 102.437 130.106 101.952 130.849 101.712C132.012 101.336 133.236 101.456 134.38 101.007C134.712 100.877 136.239 100.702 136.281 100.31C136.29 100.209 135.443 99.9454 135.364 99.8883C134.668 99.4058 133.823 99.3073 133.078 98.7873C132.111 98.1137 130.792 97.0186 129.647 96.7212C128.818 96.5065 127.913 96.6247 127.086 96.41C125.172 95.9156 123.283 95.699 121.29 95.8112C121.01 95.827 120.72 95.8171 120.43 95.8073C119.804 95.7856 119.17 95.7659 118.581 95.9964C118.08 96.1953 117.663 96.5538 117.157 96.7507C116.44 97.0344 115.245 97.2746 114.647 97.7867C114.117 98.2378 113.691 98.8818 113.137 99.3545C112.031 100.3 110.835 100.477 110.349 102.11C110.241 102.47 111.057 102.675 111.211 103.04C111.591 103.93 111.484 104.903 111.787 105.787C112.004 106.423 112.442 106.91 112.659 107.542C112.857 108.125 112.642 108.72 112.76 109.307C112.932 110.181 113.071 110.814 113.082 111.716C113.09 112.488 113.435 113.053 113.636 113.741C113.893 114.617 113.622 115.72 113.526 116.612C113.372 118.064 112.871 119.33 112.611 120.727C112.297 122.43 112.448 124.211 112.064 125.919C111.895 126.673 111.176 127.654 110.763 128.233C110.615 128.442 110.508 128.782 110.393 129.013C110.33 129.137 110.231 129.547 110.257 129.409C110.308 129.105 110.351 128.802 110.4 128.499Z" fill="#FA7A1D"/>
<path id="Vector_10" d="M111.558 126.453C111.558 126.453 111.668 125.655 118.68 129.389C125.692 133.124 129.922 131.134 129.922 131.134C129.922 131.134 123.186 128.568 124.123 124.664C124.123 124.664 124.431 120.631 129.922 121.414C133.803 121.966 142.741 117.617 142.741 117.617C142.741 117.617 138.677 116.731 135.679 115.947C132.621 115.151 132.357 112.9 135.14 109.534C136.457 107.942 131.689 108.571 132.733 107.929C133.294 107.584 133.964 107.594 134.612 107.602C135.169 107.609 135.709 107.619 136.147 107.399C136.147 107.399 131.489 103.997 124.987 106.16C118.485 108.322 121.843 103.412 121.843 103.412C121.843 103.412 123.389 100.233 129.042 99.5853C129.042 99.5853 124.466 97.338 118.817 98.6871C113.169 100.038 111.958 104.503 111.958 104.503C111.958 104.503 114.836 107.483 114.04 113.784C113.244 120.085 111.558 126.453 111.558 126.453Z" fill="#FFDA0A"/>
<path id="Vector_11" d="M109.096 123.885C109.096 123.885 109.184 123.302 114.702 126.034C120.221 128.763 123.551 127.308 123.551 127.308C123.551 127.308 118.247 125.431 118.986 122.577C118.986 122.577 119.228 119.626 123.551 120.2C126.605 120.603 133.639 117.422 133.639 117.422C133.639 117.422 130.44 116.774 128.08 116.201C125.673 115.618 125.468 113.974 127.658 111.512C128.693 110.348 124.939 110.807 125.763 110.338C126.203 110.086 126.73 110.092 127.242 110.099C127.68 110.105 128.104 110.111 128.449 109.95C128.449 109.95 124.783 107.464 119.665 109.044C114.548 110.627 117.735 105.959 117.735 105.959C117.735 105.959 119.182 102.207 122.354 99.7078C122.354 99.7078 118.397 98.2385 114.387 101.567C110.052 104.965 109.411 107.834 109.411 107.834C109.411 107.834 111.677 110.013 111.051 114.622C110.422 119.229 109.096 123.885 109.096 123.885Z" fill="#F93D38"/>
<path id="Vector_12" d="M88.5206 48.645C88.1372 48.6864 87.7208 48.7849 87.3373 48.6785C86.9704 48.58 86.8126 48.1349 86.9704 47.7784C87.0419 47.6149 87.1575 47.481 87.2566 47.3372C87.418 47.1009 87.5428 46.835 87.6235 46.5553C87.7208 46.2126 87.7538 45.8541 87.829 45.5035C87.9207 45.08 88.1225 44.8102 88.3317 44.4557C88.6472 43.916 88.572 43.5024 88.5298 42.9095C88.5151 42.6968 88.5408 42.4742 88.5317 42.2576C88.5151 41.9011 88.4986 41.2767 88.1721 41.066C87.2878 40.4948 86.2641 40.9163 85.5908 41.6569C84.934 42.3817 84.1341 42.8662 83.6149 43.7328C83.1122 44.5738 83.0315 45.4444 82.8847 46.3977C82.8187 46.2638 82.7563 46.1042 82.7435 45.9526C82.7233 45.7477 82.76 45.5587 82.7893 45.3597C82.8407 45.0052 82.9709 44.5305 82.8792 44.176C82.7178 43.5398 82.0463 42.2911 81.7289 41.7534C81.3785 41.1625 80.3163 40.7508 79.3439 41.5347C78.8266 41.9484 78.999 42.7362 78.9476 43.331C78.8779 44.1051 79.1219 45.6414 79.0779 46.3997C79.01 47.5755 78.9385 48.7376 78.8339 49.9095C78.8082 50.2089 79.0651 50.6501 78.8266 50.8116C78.6046 50.9633 78.1679 50.912 77.9129 51.0125C77.3662 51.2252 76.9552 51.7156 76.6195 52.1568C75.6178 53.4765 76.9167 55.0325 74.9775 56.1217C74.5758 56.3482 74.0309 56.6554 73.9685 56.3718C73.8456 55.8124 73.6915 55.2688 73.5447 54.7134C73.3392 53.9433 73.1154 53.1771 72.8384 52.4345C72.6971 52.0544 72.5448 51.6802 72.3724 51.3158C72.233 51.0243 72.1321 50.654 71.9266 50.4098C71.6147 50.0395 71.1157 49.9942 70.6882 49.8918C70.1709 49.7677 69.7562 49.4388 69.2646 49.2359C68.661 48.9858 67.9271 48.8085 67.3932 49.3186C67.2483 49.4565 67.1566 49.6456 67.0318 49.8051C66.5181 50.4689 66.4117 49.7933 66.5402 49.293C66.6924 48.714 67.0282 48.196 67.34 47.7036C68.3381 46.122 69.3416 44.631 69.9268 42.8051C70.2039 41.9444 70.4662 41.257 71.2423 40.8099C72.0275 40.3589 72.9503 40.16 73.6731 39.5868C75.7719 37.9225 76.9461 35.1788 77.1956 32.4371C77.4524 29.6127 76.7553 25.8488 74.4125 24.153C73.4585 23.4636 72.3082 23.1898 71.3212 22.5635C69.7599 21.5748 69.2113 20.6924 68.639 18.9631C66.863 13.5979 63.3699 10.1057 58.4862 7.13361C55.083 5.06355 51.2597 3.95466 47.5207 2.82608C41.6536 1.05343 36.1003 0.96874 30.5506 4.07678C25.9604 6.64514 22.0398 10.4327 18.0312 13.8894C15.7746 15.8334 13.3015 17.4563 11.5697 19.9951C9.85796 22.5005 8.95166 25.4746 8.78655 28.5669C8.74985 29.2385 8.71316 29.92 8.84159 30.5798C8.97001 31.2534 9.26171 31.8778 9.49104 32.5199C10.423 35.1158 10.2139 38.1904 10.5643 40.9261C10.9789 44.176 11.6981 47.3805 13.1346 50.2975C15.0407 54.1678 17.9981 57.2955 20.9097 60.3583C23.0855 62.6489 25.2632 64.9396 27.4409 67.2302C31.4073 71.4038 31.3449 76.3672 30.9945 81.953C30.8239 84.677 29.8571 86.9874 28.6407 89.3371C27.3969 91.738 25.3237 93.2802 23.7992 95.4389C23.5313 95.8191 23.28 96.2327 23.2103 96.7034C22.9681 98.3224 24.3973 97.9581 25.3329 97.7296C27.6409 97.1702 29.9158 96.7861 32.1852 96.0239C34.5647 95.2242 36.9589 94.3497 39.4613 94.1488C44.1891 93.7707 48.9169 93.3905 53.6428 93.0104C55.6059 92.8509 53.1695 94.3832 52.8209 94.7732C52.166 95.5118 51.6358 96.3666 51.1881 97.2628C50.0653 99.5042 50.08 101.771 50.6487 104.223C50.7276 104.56 50.8212 104.905 51.0138 105.185C51.4523 105.821 52.2192 105.927 52.8741 106.159C53.7474 106.469 54.6262 106.764 55.5196 106.997C57.2717 107.452 59.1081 107.672 60.884 107.243C62.2894 106.906 63.6103 106.077 65.0009 105.612C66.4741 105.122 67.984 104.669 69.3104 103.8C71.0955 102.634 72.3008 100.83 73.0328 98.7557C73.3833 97.7591 73.7704 96.7783 74.1446 95.7915C74.4547 94.9682 74.6785 93.6525 75.1793 92.9887C75.2601 93.4299 75.161 93.9716 75.1188 94.4325C75.1078 94.5625 75.0968 94.6964 75.1371 94.8205C75.427 95.6772 77.3607 94.7614 77.8597 94.6058C80.7988 93.686 83.5232 91.9251 85.6018 89.4651C86.8988 87.9308 86.9887 85.4944 87.0419 83.5169C87.0768 82.3214 87.0548 81.1199 86.9044 79.9342C86.6035 77.5923 85.7247 75.4356 84.2185 73.6964C83.6461 73.0347 82.9673 72.3807 82.7801 71.4629C82.5783 70.4683 82.8866 69.3791 83.2516 68.4691C83.7066 67.3366 84.0735 66.1666 84.3597 64.9731C84.6496 63.7598 84.7854 62.5307 85.0239 61.3057C85.1523 60.6419 85.4018 59.9565 85.8953 59.5074C86.4751 58.9815 87.2199 58.7156 87.8253 58.2311C88.5206 57.6737 89.093 56.9371 89.6049 56.1886C90.2727 55.2117 90.669 53.9551 91.2065 52.8836C91.5441 52.2159 91.4469 51.3493 91.5129 50.6205C91.6964 48.5505 89.948 48.4875 88.5206 48.645Z" fill="#F5F5F5"/>
<path id="Vector_13" d="M71.4329 106.16L71.488 106.276C71.6292 105.311 71.2788 104.673 70.6991 104.363C70.5321 104.064 70.1138 103.426 70.3707 103.873L70.5688 104.3C70.0973 104.099 69.5048 104.09 68.8993 104.281C67.472 104.73 66.0098 105.539 64.5201 105.862C63.7239 106.034 62.9313 106.136 62.1369 106.357C61.1187 106.64 60.1813 107.164 59.13 107.359C57.7944 107.607 56.4496 107.434 55.1214 107.381C53.9729 107.337 53.2538 106.778 52.1163 107.398C50.9476 108.033 50.6082 110.696 50.9018 111.905C51.2797 113.469 53.1418 116.478 54.7324 116.829C55.1819 116.927 55.6681 116.922 56.1561 116.916C56.5267 116.912 56.8955 116.908 57.2477 116.949C58.198 117.061 59.2658 117.487 60.1996 117.296C61.3884 117.053 62.2012 116.516 63.2689 116.019C63.7239 115.807 64.2064 115.878 64.6559 115.618C65.7071 115.013 66.7565 114.174 67.7344 113.443C68.2976 113.026 68.6884 112.431 69.1984 111.96C70.1817 111.058 71.5614 110.174 71.5944 108.596C71.6091 107.899 71.5815 106.973 71.4329 106.16Z" fill="#3596CE"/>
<path id="Vector_14" d="M66.7255 40.6331C66.309 39.4848 65.4064 38.4842 64.823 37.4876C62.904 34.2102 63.392 29.8613 64.9422 26.3692C65.2339 25.7133 65.566 25.0574 65.6687 24.3385C65.9788 22.1759 63.9057 21.9947 62.5572 21.2266C60.7171 20.1787 58.8623 19.1585 56.9727 18.217C53.2888 16.3853 49.4581 14.845 45.4605 14.0296C38.1055 12.5288 30.3616 13.5707 23.458 16.6827C19.1558 18.6227 14.9747 21.5259 12.3971 25.798C5.16688 37.789 12.0705 53.2602 21.8912 60.7979C27.1877 64.8652 33.9153 67.0435 40.4263 66.1887C47.3501 65.2807 53.7676 61.1347 58.5926 55.866C61.1648 53.0574 63.3663 49.8568 65.1367 46.408C65.8247 45.0686 66.9291 43.4792 66.9511 41.8838C66.9566 41.4465 66.8686 41.0309 66.7255 40.6331Z" fill="#042C6F"/>
<path id="Vector_15" d="M13.6391 50.3984C12.0283 47.0678 11.4834 44.4463 11.4761 44.4089L11.4724 44.3951C9.88913 36.9598 10.9881 30.4621 14.7417 25.0831C17.5633 21.0395 20.917 19.1625 20.95 19.1447C20.9849 19.125 21.0197 19.1034 21.0527 19.0797C21.1041 19.0423 26.2667 15.4163 34.4161 14.4492C35.6269 14.3054 36.9478 14.2188 38.366 14.2188C45.1724 14.2188 54.2097 16.2474 64.1368 23.8679C62.4049 22.8811 60.6602 21.9258 58.8806 21.0454C55.2004 19.2117 51.3697 17.6715 47.3703 16.858C45.1375 16.4011 42.8663 16.1805 40.595 16.1805C35.3884 16.1805 30.1726 17.3425 25.3696 19.5091C21.0674 21.4492 16.8863 24.3524 14.3087 28.6244C10.1882 35.4531 10.6578 43.4162 13.6391 50.3984Z" fill="#506392"/>
<path id="Vector_16" d="M24.5551 25.0516C24.2322 23.3184 22.2527 22.7629 20.5685 23.1135C17.4386 22.9382 13.2282 29.7452 16.4681 32.0654C18.6807 33.647 20.8492 31.9925 22.5701 30.3124C23.0948 29.8003 23.7295 29.2114 24.0396 28.4709C24.2983 27.8524 24.3221 27.2044 24.4065 26.5426C24.4652 26.0896 24.6413 25.5125 24.5551 25.0516Z" fill="#EEF1F7"/>
<path id="Vector_17" d="M16.6919 37.0046L17.9871 36.01C17.4643 35.165 16.424 35.9588 15.8626 36.3625C15.0297 36.9574 13.5841 38.2494 13.3309 39.3426C13.241 39.7266 13.3309 40.2624 13.3309 40.6563C13.3309 41.1447 13.1327 42.0074 13.5749 42.3226C14.395 42.9095 15.3728 42.6988 16.191 42.3226C17.4973 41.7218 18.5559 40.8552 18.8054 39.2559C19.1136 37.2666 18 36.3684 16.6919 37.0046Z" fill="#EEF1F7"/>
<path id="Vector_18" d="M104.755 100.462C104.793 100.545 104.86 100.649 104.942 100.76C104.867 100.767 104.792 100.777 104.715 100.787V100.32C104.715 100.358 104.731 100.405 104.755 100.462Z" fill="#516E87"/>
<path id="Vector_19" d="M114.387 116.672C114.229 122.068 112.592 127.463 108.835 130.382C108.244 130.839 105.81 132.476 105.524 131.024L105.522 131.012C105.43 130.534 105.659 130.053 105.874 129.622C107.501 126.303 108.523 122.669 108.912 118.964C109.404 114.289 108.898 109.498 107.351 105.069C107.316 104.962 107.278 104.862 107.241 104.758C106.942 103.928 106.623 103.115 106.195 102.355C106.092 102.17 105.749 101.774 105.425 101.378C105.243 101.163 105.071 100.944 104.942 100.759L105.003 100.751C106.856 100.539 108.323 100.655 109.877 101.963C111.206 103.085 112.185 104.655 112.813 106.327C113.902 109.238 114.493 112.955 114.387 116.672Z" fill="#516E87"/>
<path id="Vector_20" d="M37.6504 144.512C26.0299 143.072 18.2548 139.547 13.2408 136.139C8.59744 132.982 5.78498 129.596 4.2439 127.311C3.75589 126.587 3.36145 125.923 3.0459 125.348C11.6429 128.796 23.9036 131.544 41.1508 131.544C41.7617 131.544 42.3745 131.54 42.9964 131.534C42.9249 131.745 42.8497 131.956 42.7744 132.166C41.4021 136.011 39.6629 139.759 38.0448 143.411C37.9219 143.691 37.8632 143.945 37.8613 144.177C37.8613 144.218 37.8632 144.256 37.8668 144.297C37.7953 144.372 37.7238 144.445 37.6504 144.512Z" fill="#BC2121"/>
<path id="Vector_21" d="M38.0448 143.411C39.6629 139.759 41.4021 136.011 42.7744 132.167C42.8496 131.956 42.9249 131.745 42.9964 131.534C43.3707 131.53 43.7504 131.524 44.1302 131.519C44.0697 131.717 44.0091 131.916 43.9467 132.115C43.5578 132.133 43.167 132.149 42.7744 132.167C41.4021 136.011 39.6629 139.759 38.0448 143.411Z" fill="#A9989B"/>
<path id="Vector_22" d="M94.8005 138.209C95.5527 137.882 96.2902 137.549 97.0112 137.209C98.6569 136.435 100.224 135.627 101.71 134.788C99.6439 136.271 97.2681 137.351 94.8005 138.209Z" fill="#A01C1C"/>
<path id="Vector_23" d="M49.1021 145.186C45.0293 145.186 41.3087 144.953 37.9146 144.544C37.8908 144.465 37.8743 144.382 37.8669 144.297C38.1531 143.992 38.4393 143.614 38.7347 143.155C40.9289 139.756 42.7232 136.033 43.9468 132.115C49.2819 131.873 54.3711 131.463 59.2108 130.922C59.264 131.054 59.3191 131.184 59.3796 131.31C60.1428 134.18 62.9589 135.084 65.3623 135.651C65.4944 135.657 65.6283 135.659 65.7586 135.659C70.1745 135.659 74.1611 132.517 76.1737 128.353C85.6825 126.518 93.8923 124.243 100.757 121.938C101.422 122.067 102.095 122.167 102.781 122.238C103.619 122.323 104.473 122.366 105.344 122.366C106.014 122.366 106.692 122.34 107.38 122.289C106.5 125.147 105.137 128.074 103.293 131.056C103.223 131.17 103.175 131.292 103.148 131.416C96.1287 135.812 88.0051 138.737 81.7417 140.547C72.7026 143.159 65.4632 144.075 65.388 144.085C59.4163 144.851 54.0042 145.186 49.1021 145.186Z" fill="#BEC1C4"/>
<path id="Vector_24" d="M106.951 131.464C108.353 130.457 109.652 129.419 110.842 128.35C110.842 128.35 110.842 128.348 110.844 128.348C110.732 128.493 110.618 128.635 110.499 128.775C110.442 128.842 110.385 128.909 110.325 128.976C109.872 129.492 109.375 129.963 108.835 130.382C108.523 130.623 107.701 131.19 106.951 131.464ZM106.946 128.797C108.09 126.528 108.969 124.271 109.58 122.043C110.407 121.919 111.242 121.763 112.092 121.568C111.028 124.371 109.729 126.325 109.439 126.744C108.641 127.457 107.808 128.141 106.946 128.797Z" fill="#455C72"/>
<path id="Vector_25" d="M37.8668 144.297C37.8632 144.256 37.8613 144.218 37.8613 144.177C37.8632 143.945 37.9219 143.691 38.0448 143.411C39.6629 139.759 41.4021 136.011 42.7744 132.166C43.167 132.149 43.5578 132.133 43.9467 132.115C42.7231 136.033 40.9288 139.755 38.7346 143.155C38.4392 143.614 38.153 143.992 37.8668 144.297Z" fill="#908083"/>
<path id="Vector_26" d="M70.3249 112.5C69.6865 112.622 69.8094 112.524 70.0571 112.711C70.2864 112.575 70.4387 112.478 70.3249 112.5Z" fill="#F5F5F5"/>
<path id="Vector_27" d="M77.0744 120.92C76.8304 120.516 76.7753 119.959 76.4616 119.603C75.7406 118.785 74.8453 118.269 74.1078 117.485C73.3263 116.652 72.8328 115.596 72.1539 114.683C71.6219 113.97 70.8037 113.8 70.3212 113.008C70.2331 112.867 70.1377 112.774 70.057 112.711C69.7396 112.898 69.2773 113.158 69.1672 113.276C68.3948 114.111 67.45 114.958 66.5841 115.624C65.2393 116.658 63.3111 117.355 61.7315 117.743C60.9206 117.944 59.2493 118.011 58.6365 118.634C58.3668 118.909 58.1559 119.285 58.2769 119.691C58.442 120.241 59.0805 120.292 59.33 120.704C59.8712 121.59 60.5005 122.421 60.805 123.437C61.2105 124.789 60.6106 126.435 60.4454 127.79C60.3189 128.816 60.5243 129.963 60.7812 130.918C60.9518 131.558 61.0252 132.48 61.4765 132.988C61.9058 133.476 62.4654 133.492 62.9827 133.817C63.3185 134.026 63.568 134.412 63.9936 134.451C64.9256 134.534 65.8392 134.946 66.7712 134.995C67.4188 135.032 67.9985 134.666 68.6076 134.516C69.3011 134.347 70.0093 134.343 70.6936 134.132C72.9924 133.423 74.9004 129.425 75.7516 127.296C76.3864 125.706 77.656 124.211 77.7037 122.364C77.7183 121.775 77.3606 121.389 77.0744 120.92Z" fill="#F5F5F5"/>
<path id="Vector_28" d="M4.43848 116.404C5.48421 114.393 7.02345 112.031 9.27085 109.65C13.9051 104.736 22.2838 99.0259 37.1331 96.2861C37.1771 96.3039 37.2193 96.3236 37.2597 96.3452C37.5826 96.5126 37.8541 96.7805 38.0816 97.0956C38.0889 97.4777 38.177 97.9071 38.3274 98.3582C23.9111 100.405 12.5199 108.399 4.43848 116.404Z" fill="#F96767"/>
<path id="Vector_29" d="M38.3274 98.3582C38.1769 97.9072 38.0889 97.4778 38.0815 97.0957C38.243 97.3183 38.3806 97.5645 38.4943 97.8126C38.5714 97.9761 38.6466 98.1396 38.7255 98.3031C38.5916 98.3208 38.4595 98.3385 38.3274 98.3582Z" fill="#E9E5E9"/>
<path id="Vector_30" d="M69.3195 49.2578C69.3012 49.2499 69.2828 49.244 69.2645 49.2361C69.0498 49.1475 68.8187 49.0667 68.5857 49.0234C68.6591 48.9466 68.7618 48.9111 68.8664 48.9111C68.8701 48.9111 68.8719 48.9111 68.8756 48.9111L68.9141 48.921C68.9233 48.921 68.9324 48.921 68.9416 48.921C69.1177 48.921 69.2975 49.0293 69.3195 49.2578Z" fill="#D3D8E1"/>
<path id="Vector_31" d="M42.4114 69.8304L47.9611 67.8135C48.8857 67.1675 50.0232 66.3186 51.0909 65.9758C52.2688 65.5977 53.5346 65.2392 54.6354 64.6444C55.1601 64.3608 55.6169 63.9038 56.1398 63.5887C57.5029 62.7693 58.9247 62.2749 60.2255 61.2448C60.9868 60.6421 61.6987 59.7598 62.3995 59.0704C63.6067 57.8788 64.3497 56.3051 65.2156 54.8456C65.7568 53.9297 66.4118 53.1064 66.8778 52.1315C67.1695 51.5189 67.2942 50.8453 67.5676 50.345C67.5859 50.0595 67.63 49.7758 67.6263 49.4902C67.6171 49.2381 67.8189 49.0943 68.0189 49.0943C68.1748 49.0943 68.3271 49.183 68.3748 49.374C68.3877 49.4981 68.3858 49.6123 68.3932 49.7325H68.4133C68.4372 49.5651 68.4647 49.3957 68.4922 49.2263C68.5032 49.1416 68.5363 49.0746 68.5858 49.0234C68.8188 49.0668 69.05 49.1475 69.2646 49.2362C69.2829 49.244 69.3013 49.2499 69.3196 49.2578C69.3251 49.374 69.3086 49.4824 69.3086 49.5966C69.3453 49.5808 69.3839 49.573 69.4242 49.573C69.6811 49.573 70.004 49.8743 70.1159 50.2505C70.2663 50.3155 70.3929 50.4534 70.3617 50.6523C70.3232 50.7685 70.2645 50.867 70.2241 50.9793C70.3048 51.6607 70.1544 52.4624 69.9691 53.071C69.4921 54.6191 68.6849 56.2539 67.7345 57.538C67.4282 57.9497 66.9823 58.1939 66.6319 58.5622C65.9678 59.2595 65.4101 60.199 64.6634 60.7918C64.0158 61.3039 63.3278 61.8416 62.6655 62.3419C62.0766 62.787 61.3189 62.8717 60.7171 63.2932C57.4625 65.5681 54.0043 67.1694 50.2158 68.1404C49.6416 68.2882 49.1517 68.7215 48.5518 68.7943C46.4622 69.0524 44.4313 69.2631 42.4114 69.8304Z" fill="#CBD0D8"/>
<path id="Vector_32" d="M69.3141 41.2103C68.9545 41.2103 68.4885 41.0685 68.0794 40.7356C68.1546 40.4638 68.1913 40.2983 68.2023 40.2629C68.3381 39.674 68.0042 39.0772 67.4575 38.9314C67.3731 38.9098 67.2905 38.8999 67.208 38.8999C67.0814 38.8999 66.9585 38.9235 66.8466 38.9708C66.6613 38.6498 66.487 38.3189 66.32 37.9801L65.7807 35.4511C65.7807 35.4511 65.7219 35.7367 65.5825 36.2429C64.3221 32.7764 64.1534 28.7446 66.2577 25.7095C66.2907 25.6858 66.3237 25.6661 66.3549 25.6523C66.4283 25.7134 66.4998 25.7745 66.5732 25.8355C66.7622 25.9951 66.986 26.0719 67.208 26.0719C67.3419 26.0719 67.4777 26.0443 67.6024 25.9872C67.6465 26.4815 67.3364 27.2792 66.8869 27.3265C66.5842 28.1262 66.3787 28.9652 66.2283 29.8062C66.3365 29.7255 66.4338 29.69 66.5145 29.69C66.9511 29.69 66.9952 30.6807 66.4741 30.9151C66.2742 32.2939 66.553 33.7139 66.9456 35.0237C66.3567 36.6605 71.6716 38.5296 70.0755 39.5006C70.9488 39.8887 71.6698 40.2747 70.7359 40.7277C70.5488 40.6785 70.369 40.5957 70.1856 40.5248C70.1232 40.6509 70.0425 40.775 69.9195 40.8636C69.9049 41.0822 69.659 41.2103 69.3141 41.2103Z" fill="#CBD0D8"/>
<path id="Vector_33" d="M72.3118 39.8075C72.2347 39.8075 72.1559 39.8035 72.0733 39.7976C71.3009 39.7326 70.4423 38.8463 69.969 38.2554C69.4388 37.5976 69.2755 37.0875 68.9838 36.2898C68.7912 35.7619 68.5417 35.3365 68.4316 34.7692C68.0683 32.8823 68.4738 30.6744 69.1801 28.9412C69.6406 27.8165 70.3708 26.0714 71.455 25.4865C71.8587 25.2698 72.2201 24.9823 72.6549 24.8326C72.8328 24.7735 73.009 24.6927 73.1869 24.6317C73.264 24.6061 73.4309 24.5352 73.5025 24.5352C73.5337 24.5352 73.5465 24.547 73.53 24.5805C73.4951 24.6553 73.3887 24.6671 73.3135 24.6947C73.2585 24.7183 73.1851 24.7006 73.1374 24.738C73.1227 24.7498 73.141 24.7518 73.1667 24.7518C73.1887 24.7518 73.2199 24.7498 73.2346 24.7498C73.3722 24.7479 73.4878 24.6455 73.6199 24.6317C73.6291 24.6317 73.6437 24.6297 73.6566 24.6297C73.8841 24.6297 74.528 24.7538 74.6234 24.8759C74.8693 25.191 74.8968 25.713 75.0454 26.0892C75.2472 26.5954 75.4802 27.0464 75.7462 27.5053C76.0141 27.9721 75.9884 28.8328 76.0691 29.3528C76.1847 30.0855 76.3369 30.8694 76.3149 31.612C76.2415 34.2 75.4967 39.8075 72.3118 39.8075Z" fill="#CBD0D8"/>
<path id="Vector_34" d="M36.234 68.148C33.7004 68.148 31.1944 67.7324 28.791 66.724C28.4901 66.6472 28.1856 66.592 27.8866 66.5014C27.7563 66.4561 27.7031 66.3458 27.6792 66.2277C27.4756 66.1252 27.261 66.0661 27.0591 65.9539C26.883 65.8318 26.8702 65.621 26.9472 65.4536C29.7707 66.4187 32.8437 66.9052 36.1313 66.9052C36.8578 66.9052 37.5935 66.8816 38.3383 66.8343C43.8202 66.4857 48.8066 64.8706 53.1583 62.0304C55.813 60.2972 58.2329 58.1109 60.3812 55.5091C61.4251 54.7311 62.5167 54.0141 63.59 53.2814C64.0615 52.6709 64.5843 52.0366 65.0393 52.0366C65.0411 52.0366 65.0448 52.0366 65.0466 52.0366C65.4943 51.5462 65.9566 51.0715 66.3364 51.042C66.3455 51.042 66.3566 51.042 66.3676 51.042C66.5529 51.042 66.6794 51.1858 66.7198 51.5718C66.6042 51.6998 66.4666 51.7964 66.3455 51.9185C66.3602 51.9736 66.4171 52.0071 66.4061 52.0662C62.6029 58.0715 56.8606 62.383 50.5312 64.8233C46.0162 66.6314 41.0738 68.148 36.234 68.148Z" fill="#CBD0D8"/>
<path id="Vector_35" d="M59.2108 130.921C58.6311 129.476 58.4806 127.843 58.71 126.295C58.8054 125.741 58.8824 125.188 59.0237 124.646C59.1338 123.49 59.7355 123.031 60.3813 123.031C60.4785 123.031 60.5776 123.041 60.6748 123.061C60.7244 123.183 60.7666 123.309 60.8051 123.437C61.2105 124.788 60.6106 126.435 60.4455 127.79C60.3281 128.755 60.5024 129.828 60.7372 130.748C60.2309 130.807 59.7208 130.866 59.2108 130.921ZM75.2215 128.534C75.427 128.083 75.6049 127.662 75.7517 127.295C76.2434 126.061 77.1203 124.883 77.5092 123.555C77.368 125.221 76.8983 126.852 76.1736 128.353C75.8581 128.414 75.5407 128.475 75.2215 128.534Z" fill="#B9C2CE"/>
<path id="Vector_36" d="M77.5203 121.635C77.3973 121.393 77.2249 121.168 77.0744 120.92C76.8304 120.516 76.7754 119.959 76.4617 119.602C75.7407 118.785 74.8454 118.269 74.1079 117.485C73.3263 116.652 72.8328 115.596 72.154 114.682C71.622 113.969 70.8037 113.8 70.3212 113.008C70.2332 112.866 70.1378 112.774 70.0571 112.711C69.7397 112.898 69.2773 113.158 69.1673 113.276C68.8627 113.607 68.5307 113.938 68.1876 114.259C68.0702 114.146 67.9748 114.02 67.9106 113.886C67.617 114.095 67.3455 114.306 66.9969 114.509C65.5586 115.338 63.946 115.968 62.4122 116.443C62.6874 116.303 62.9681 116.159 63.269 116.02C63.724 115.807 64.2065 115.878 64.656 115.618C65.7072 115.013 66.7566 114.174 67.7344 113.443C68.2977 113.026 68.6884 112.431 69.1985 111.96C69.6259 111.568 70.1268 111.18 70.5597 110.737C70.3946 111.139 70.1818 111.537 69.9084 111.933C72.8897 114.473 75.9076 117.499 77.4854 121.245C77.5001 121.375 77.5129 121.507 77.5203 121.635ZM70.3506 112.496C70.3433 112.496 70.3359 112.498 70.3249 112.5C69.6865 112.622 69.8094 112.523 70.0571 112.711C70.2644 112.588 70.4093 112.496 70.3506 112.496ZM56.1599 117.761C56.1599 117.761 52.3567 116.559 51.7219 115.354C51.0872 114.148 50.2065 111.942 50.2065 111.942C50.2065 111.942 50.5239 112.187 51.0908 112.506C51.7109 114.137 53.3291 116.52 54.7325 116.829C55.0738 116.904 55.4389 116.92 55.8076 116.92C55.9232 116.92 56.0406 116.918 56.1562 116.916C56.2718 116.916 56.3892 116.916 56.5029 116.916C56.7561 116.916 57.0056 116.922 57.2478 116.949C57.8275 117.016 58.4513 117.201 59.0585 117.294C57.345 117.642 56.1599 117.761 56.1599 117.761ZM65.0816 105.719C65.0724 105.677 65.0651 105.636 65.0559 105.594C65.5989 105.413 66.1457 105.236 66.685 105.043L67.4189 104.814C67.406 104.803 67.3914 104.793 67.3804 104.781C67.9326 104.558 68.4756 104.306 68.993 103.997C69.0223 104.076 69.059 104.153 69.1049 104.224C69.037 104.239 68.9691 104.259 68.8994 104.281C67.6519 104.675 66.3787 105.34 65.0816 105.719Z" fill="#B9C2CE"/>
<path id="Vector_37" d="M65.0558 105.594C65.0521 105.58 65.0503 105.567 65.0466 105.553L66.6849 105.043C66.1456 105.236 65.5988 105.413 65.0558 105.594ZM67.3802 104.781C66.9454 104.401 66.6409 103.861 66.7785 103.199C68.3471 99.5731 70.9559 96.3292 71.5815 92.2698C71.6586 91.9271 71.6861 91.5923 71.7209 91.2555C71.51 91.2633 71.3027 91.2673 71.0935 91.2673C66.6446 91.2673 62.2103 89.4769 58.5631 86.7982C57.8256 87.3222 56.9615 87.7299 56.6129 87.8559C55.4626 88.2676 54.4994 89.2031 53.3363 89.6187C52.5584 89.8964 51.7035 89.9634 50.9054 90.1781C50.2853 90.3455 49.7423 90.6902 49.135 90.8852C48.6617 91.0388 48.1719 91.0506 47.6967 91.0664C47.5829 91.4879 47.4105 91.8916 47.194 92.2698C47.2252 92.4392 47.2142 92.6204 47.1683 92.7977C45.9575 92.8902 44.765 92.9986 43.5927 93.1246C43.5431 93.0143 43.4991 92.902 43.4624 92.7878C44.1742 91.8129 44.7742 90.7178 45.1906 89.8767C45.6603 90.1466 46.24 90.2825 46.9353 90.2825C48.3645 90.2825 50.2853 89.7113 52.7676 88.563C55.6461 87.2316 58.2017 85.6066 58.3063 85.5397C58.3319 85.5239 58.3576 85.5062 58.3796 85.4884C58.5631 85.4057 58.7245 85.2679 58.8383 85.0768L59.3795 84.1846C62.1241 86.6367 66.129 88.1041 70.1964 88.5532C71.0825 88.6516 71.9723 88.7028 72.8529 88.7028C72.8584 88.7028 72.8621 88.7028 72.8657 88.7028C72.8731 88.7028 72.8786 88.7028 72.8841 88.7028C73.4895 88.7028 74.0894 88.6792 74.6783 88.6319C75.0618 93.4791 73.2217 98.2554 69.2002 102.843C68.9195 103.162 68.8534 103.615 68.9929 103.997C68.4755 104.306 67.9325 104.558 67.3802 104.781Z" fill="#CBD0D8"/>
<path id="Vector_38" d="M59.0585 117.294C58.4513 117.201 57.8275 117.016 57.2478 116.949C57.0056 116.922 56.7561 116.916 56.5029 116.916C56.3892 116.916 56.2718 116.916 56.1562 116.916C56.0406 116.918 55.9232 116.92 55.8076 116.92C55.4389 116.92 55.0738 116.904 54.7325 116.829C53.329 116.52 51.7109 114.137 51.0908 112.506C52.1879 113.126 54.2133 114.034 56.657 114.034C58.9063 114.034 61.5096 113.264 64.0725 110.792C64.0725 110.792 65.5696 108.33 65.0816 105.719C66.3786 105.34 67.6519 104.675 68.8994 104.281C68.9691 104.259 69.037 104.239 69.1049 104.224C69.1452 104.283 69.1911 104.342 69.2443 104.395C69.4424 104.594 69.692 104.692 69.9451 104.692C70.2038 104.692 70.4643 104.588 70.6625 104.377C70.8478 104.651 71.0037 105.134 71.0496 105.977C71.1321 107.407 71.2477 109.081 70.5597 110.737C70.1268 111.18 69.6259 111.568 69.1984 111.96C68.6884 112.431 68.2977 113.026 67.7344 113.443C66.7566 114.174 65.7072 115.013 64.6559 115.618C64.2065 115.878 63.724 115.807 63.269 116.02C62.9681 116.159 62.6874 116.303 62.4122 116.443C61.2032 116.815 60.0437 117.093 59.0585 117.294Z" fill="#2C7FB6"/>
<path id="Vector_39" d="M65.7584 135.659C65.6282 135.659 65.4942 135.657 65.3622 135.651C62.9588 135.084 60.1427 134.18 59.3795 131.31C59.3189 131.184 59.2639 131.054 59.2107 130.922C59.7207 130.867 60.2307 130.808 60.7371 130.749C60.7499 130.804 60.7646 130.863 60.7811 130.918C60.9517 131.558 61.0251 132.48 61.4764 132.988C61.9057 133.476 62.4653 133.492 62.9827 133.817C63.3184 134.026 63.5679 134.412 63.9935 134.451C64.9255 134.534 65.8392 134.946 66.7711 134.995C66.8005 134.997 66.8298 134.999 66.8574 134.999C67.4701 134.999 68.026 134.658 68.6076 134.516C69.3011 134.347 70.0092 134.343 70.6935 134.132C72.5979 133.545 74.2343 130.701 75.2214 128.535C75.5406 128.476 75.858 128.415 76.1735 128.354C74.161 132.517 70.1743 135.659 65.7584 135.659Z" fill="#9EA4AD"/>
<path id="Vector_40" d="M70.0571 112.711C69.8094 112.524 69.6865 112.622 70.3249 112.5C70.3359 112.498 70.3433 112.496 70.3506 112.496C70.4093 112.496 70.2644 112.589 70.0571 112.711Z" fill="#CBD0D8"/>
<path id="Vector_41" d="M66.8575 134.999C66.83 134.999 66.8007 134.997 66.7713 134.995C65.8393 134.946 64.9257 134.534 63.9937 134.451C63.5681 134.412 63.3186 134.026 62.9828 133.817C62.4655 133.492 61.9059 133.476 61.4766 132.988C61.0253 132.48 60.9519 131.558 60.7813 130.918C60.7648 130.863 60.7501 130.804 60.7373 130.749C60.5024 129.829 60.3281 128.755 60.4456 127.79C60.6107 126.435 61.2106 124.789 60.8051 123.437C60.7666 123.309 60.7244 123.183 60.6749 123.061C61.7665 123.286 62.7939 124.7 61.6527 126.187C61.4821 126.878 61.4638 127.583 61.5151 128.291C61.6087 129.392 62.1371 130.392 62.6453 131.332C63.6763 132.155 64.8541 132.515 66.0448 132.515C68.2739 132.515 70.5488 131.255 71.9853 129.397C73.6988 127.337 75.0399 124.471 74.6436 121.649C72.8769 118.886 70.5873 116.55 68.2647 114.33C68.239 114.306 68.2133 114.283 68.1876 114.259C68.5307 113.938 68.8628 113.607 69.1673 113.276C69.2774 113.158 69.7397 112.898 70.0571 112.711C70.1378 112.774 70.2332 112.867 70.3213 113.008C70.8038 113.8 71.622 113.97 72.1541 114.683C72.8329 115.596 73.3264 116.652 74.1079 117.485C74.8454 118.269 75.7407 118.785 76.4617 119.603C76.7754 119.959 76.8305 120.516 77.0745 120.92C77.2249 121.168 77.3974 121.393 77.5203 121.635C77.568 122.277 77.5625 122.919 77.5093 123.556C77.1204 124.883 76.2434 126.061 75.7517 127.296C75.605 127.662 75.427 128.084 75.2215 128.535C74.2345 130.701 72.598 133.545 70.6937 134.132C70.0094 134.343 69.3012 134.347 68.6078 134.516C68.0262 134.658 67.4703 134.999 66.8575 134.999Z" fill="#CBD0D8"/>
<path id="Vector_42" d="M79.6814 93.9143C81.2775 93.1993 82.7764 92.2283 84.101 91.0209C84.0514 91.0958 84.0037 91.1706 83.9524 91.2455C83.2185 92.2657 82.1196 92.8369 81.1876 93.611C81.0885 93.6957 80.9895 93.7804 80.8886 93.8651C80.4886 93.8769 80.085 93.8926 79.6814 93.9143ZM84.8293 74.4743C84.6404 74.2064 84.4349 73.9464 84.2184 73.6963C83.646 73.0345 82.9672 72.3806 82.7801 71.4628C82.7727 71.4312 82.7672 71.3978 82.7617 71.3643C83.0039 71.4056 83.2387 71.5238 83.4405 71.7405C83.4956 71.8508 83.5359 71.9689 83.5891 72.0773C83.901 72.1797 84.1854 72.3609 84.3578 72.7016C84.5743 73.2728 84.7192 73.8676 84.8293 74.4743ZM84.7394 62.9718C84.8293 62.4164 84.9174 61.8609 85.0238 61.3055C85.1522 60.6417 85.4017 59.9563 85.8952 59.5072C86.3979 59.0503 87.0272 58.7903 87.5812 58.4082C86.8859 59.7987 85.8714 60.9391 85.0843 62.2903C84.9688 62.4892 84.8513 62.7236 84.7394 62.9718Z" fill="#D3D8E1"/>
<path id="Vector_43" d="M76.2396 94.2282C76.513 93.1114 76.6799 91.9868 76.7423 90.8622C76.9459 90.9035 77.1551 90.9882 77.3697 91.1281C79.4043 90.2437 81.7453 89.0521 82.3984 86.5901C82.4222 86.5369 82.4241 86.4837 82.4461 86.4305C81.3325 87.246 80.1088 87.8526 78.8447 88.3627C78.7383 88.4494 78.6466 88.5439 78.4998 88.605C78.4044 88.6148 78.3017 88.6267 78.2045 88.6365C77.7293 88.8079 77.245 88.9556 76.7551 89.0836C76.7459 88.8472 76.7313 88.6129 76.7129 88.3785C79.1658 87.9471 81.3747 87.0785 83.0056 85.7688C82.9836 85.7254 82.9598 85.6801 82.9359 85.6368C83.1359 85.1483 83.0093 84.4452 82.7084 83.8031C82.835 83.8681 82.9543 83.9508 83.057 84.0434C83.3616 81.4927 82.6626 78.9204 82.1617 76.3462C81.8278 75.3535 81.4774 74.3628 81.127 73.4095C81.0775 73.2815 81.072 73.1554 81.0591 73.0293C80.6739 73.6813 80.2592 74.3155 79.9088 74.993C79.3823 76.0113 79.019 77.0079 78.2834 77.9081C77.955 78.3118 77.4211 78.5285 77.0523 78.8791C76.6028 79.3084 76.3222 80.0392 75.7644 80.3366C75.3682 80.5493 74.8967 80.7325 74.3976 80.8703C74.0711 80.307 73.8344 79.9899 73.8069 79.9505C73.6051 79.6827 73.3097 79.5428 73.0107 79.5428C72.7869 79.5428 72.5612 79.6216 72.3722 79.7831C71.9301 80.1633 71.8604 80.8526 72.2108 81.3253C72.2218 81.3431 73.0455 82.4697 73.7464 84.3762C73.0749 84.4412 72.319 84.4787 71.4531 84.4787C71.044 84.4787 70.6312 84.4688 70.2 84.4334C69.6735 83.2733 69.0919 82.1348 68.5709 81.0141C68.3985 80.5473 68.4755 80.0589 68.6792 79.6295C68.3563 79.4897 68.1856 79.0485 67.8719 78.8791C66.6776 78.239 63.8486 75.9916 65.1163 75.3417C65.3181 75.2392 65.5181 75.192 65.7144 75.192C67.1436 75.192 68.4296 77.6402 70.1358 77.845C70.2533 77.8608 70.3707 77.8667 70.4862 77.8667C71.8604 77.8667 72.952 76.8937 74.0124 76.0389C76.0378 74.41 77.7256 72.4286 79.0612 70.136C79.485 69.4092 79.5621 68.4264 79.8391 67.6346C80.0152 67.1264 80.2978 66.5631 80.4207 66.0392C80.5142 65.6335 80.4555 65.2573 80.6151 64.8555C81.8498 61.7652 82.1947 58.9407 85.2806 57.2843C86.0181 56.8884 86.9024 56.8628 87.6729 56.5871C87.7316 56.5654 88.126 56.335 88.3003 56.335C88.3444 56.335 88.3756 56.3487 88.3829 56.3862C88.4544 56.7722 87.9995 57.4478 87.871 57.7708C87.7811 57.9894 87.6857 58.2021 87.5812 58.409C87.0271 58.7911 86.3978 59.051 85.8952 59.508C85.4016 59.9571 85.1521 60.6425 85.0237 61.3062C84.9173 61.8617 84.8293 62.4171 84.7394 62.9725C84.4898 63.526 84.2624 64.1543 84.1101 64.6447C83.9982 65.0052 84.0587 65.4129 83.923 65.7536C83.5322 66.7345 82.9561 67.6346 82.5562 68.6056C82.1617 69.5569 82.0682 70.6363 81.7489 71.6132C81.9948 71.4477 82.281 71.3493 82.5672 71.3493C82.6314 71.3493 82.6956 71.3552 82.7616 71.365C82.7671 71.3985 82.7726 71.432 82.78 71.4635C82.9671 72.3813 83.6459 73.0353 84.2183 73.697C84.4348 73.9472 84.6403 74.2072 84.8293 74.475C84.8953 74.8237 84.9467 75.1782 84.9962 75.5307C86.7464 80.6438 87.1445 86.3458 84.1009 91.0217C82.7763 92.2291 81.2774 93.2001 79.6813 93.915C78.5439 93.9761 77.3954 94.0785 76.2396 94.2282ZM46.9243 88.0811C46.7519 88.0811 46.6051 88.0673 46.4822 88.0436C47.1628 87.1849 48.0141 86.3931 48.6213 85.4595C48.6397 85.3867 48.6709 85.3295 48.6911 85.2567C49.0892 83.7578 48.8066 80.4154 49.4249 78.7038C50.7458 78.367 52.1585 77.847 53.5876 77.0611C53.6537 77.7229 53.7601 78.5127 53.927 79.3478C54.371 81.542 55.0718 83.2339 56.0222 84.4018C55.0223 84.9888 53.5271 85.82 51.9585 86.5467C49.4047 87.7265 47.8214 88.0811 46.9243 88.0811ZM57.633 83.0389C56.0442 81.1756 55.5819 77.2857 55.5268 75.4973L56.4827 74.156C56.8954 75.8183 57.6293 77.9908 58.8603 79.535C58.6236 79.4739 58.4127 79.4463 58.2237 79.4463C57.3669 79.4463 56.9982 80.0549 57.0734 81.0752C57.1963 81.3155 57.3302 81.5518 57.4752 81.7803C57.444 81.8098 57.4128 81.8433 57.3853 81.8768C57.5449 82.125 57.7173 82.3653 57.8971 82.5997L57.633 83.0389Z" fill="#CBD0D8"/>
<path id="Vector_44" d="M30.9561 95.3997C31.0001 95.313 31.0313 95.25 31.0441 95.2145C31.6954 93.5876 32.1944 91.8957 32.787 90.2413C33.2677 88.898 33.8364 87.4287 33.9483 85.9771C34.1134 83.8617 34.2602 81.7956 34.4418 79.6704C34.5207 78.727 34.4308 77.8584 34.6088 76.9149C34.7005 76.4166 35.0087 74.7247 35.2509 74.1279C35.2197 74.4785 35.1903 74.9059 35.1738 75.4042C35.1096 75.7982 35.1188 76.194 35.1592 76.586C35.1702 77.6161 35.2362 78.8294 35.4142 80.1766C35.8086 83.1487 36.8231 87.2357 39.3476 91.3423C39.3054 91.4546 39.2558 91.5688 39.2008 91.687C39.0082 91.8445 38.81 91.9962 38.6064 92.14C38.6064 92.14 38.5275 92.463 38.4945 92.8963C38.3972 93.0342 38.2982 93.1681 38.1954 93.3001C38.1386 93.2686 38.0872 93.2351 38.0377 93.1977C38.0523 93.2764 38.0707 93.3533 38.0927 93.4281C37.9386 93.6192 37.779 93.7984 37.6194 93.9619C35.3041 94.3617 33.0824 94.8403 30.9561 95.3997Z" fill="#CBD0D8"/>
<path id="Vector_45" d="M40.9508 89.976C39.1217 86.9664 37.9494 83.6082 37.454 79.9526C37.3439 79.1392 37.2761 78.373 37.2412 77.6758C37.421 78.0146 37.588 78.2864 37.7072 78.3947C38.3236 78.9442 39.1786 79.6375 39.8922 80.0216C40.2793 80.2284 40.8279 80.1851 41.2205 80.4273C41.2517 83.1966 41.9011 85.2292 42.5194 86.5449C42.646 86.8167 42.7799 87.0708 42.9138 87.3091C42.4644 88.0359 41.7984 89.0089 40.9508 89.976Z" fill="#CBD0D8"/>
<path id="Vector_46" d="M9.21954 32.9497L7.99585 29.4792C7.99585 29.4792 8.26187 28.5831 8.91132 27.1768C8.85261 27.6376 8.81042 28.1005 8.78657 28.5673C8.74988 29.2389 8.71318 29.9204 8.84161 30.5802C8.94801 31.1455 9.17184 31.6753 9.37548 32.2091C9.36997 32.2426 9.3608 32.2761 9.35346 32.3115C9.30576 32.5223 9.26173 32.735 9.21954 32.9497Z" fill="#D3D8E1"/>
<path id="Vector_47" d="M9.37546 32.2094C9.17182 31.6756 8.94799 31.1458 8.84159 30.5805C8.71316 29.9207 8.74985 29.2392 8.78655 28.5675C8.8104 28.1008 8.85259 27.6379 8.9113 27.177C11.2211 22.1841 18.3779 10.7919 35.6893 10.5772C35.8544 10.5752 36.0195 10.5752 36.1865 10.5752C37.5166 10.5752 38.9054 10.6402 40.3547 10.7781C40.3547 10.7781 52.0541 11.1208 62.0307 19.7161C57.8679 16.9449 53.6153 14.9064 49.3241 13.6301C45.7155 12.5546 42.0756 12.015 38.4577 12.015C36.9937 12.015 35.5334 12.1036 34.0804 12.2789C25.8062 13.2873 20.5611 16.8011 19.9648 17.2167C19.4787 17.4944 16.1011 19.5093 13.1603 23.6849C11.3513 26.2572 10.0781 29.123 9.37546 32.2094Z" fill="#CBD0D8"/>
<path id="Vector_48" d="M66.2412 39.6368C65.8834 39.0302 65.4449 38.459 65.0762 37.8937C65.3037 37.2161 65.4688 36.6548 65.5825 36.2432C65.7513 36.71 65.9421 37.1669 66.1494 37.612C66.1659 37.6514 66.1733 37.6967 66.1898 37.7381L66.2283 37.7913C66.2577 37.8543 66.2907 37.9173 66.32 37.9804L66.5677 39.1405C66.4228 39.2665 66.3072 39.4359 66.2412 39.6368Z" fill="#C7D3E9"/>
<path id="Vector_49" d="M36.0929 64.7097C30.1799 64.7097 25.1274 63.0671 20.9958 59.8054C25.2742 60.743 29.1544 61.1566 32.675 61.1566C55.0995 61.1546 62.9149 44.3105 65.0761 37.8936C65.4449 38.4588 65.8833 39.03 66.2411 39.6367C66.2319 39.6682 66.2227 39.6977 66.2154 39.7292C66.2007 39.7883 64.7826 45.7168 60.6125 51.7222C60.097 52.4647 59.5649 53.1738 59.0145 53.8533C57.1854 55.8406 54.971 57.9875 52.4576 59.9374C48.3242 62.7263 43.5634 64.302 38.2174 64.6428C37.4982 64.6861 36.7882 64.7097 36.0929 64.7097Z" fill="#03266A"/>
<path id="Vector_50" d="M66.32 37.9801C66.2907 37.9171 66.2577 37.8541 66.2283 37.7911L66.1898 37.7379C66.1733 37.6965 66.1659 37.6512 66.1494 37.6118C65.9421 37.1667 65.7513 36.7097 65.5825 36.243C65.722 35.7368 65.7807 35.4512 65.7807 35.4512L66.32 37.9801Z" fill="#A5B3CD"/>
<path id="Vector_51" d="M102.981 99.5796C102.924 99.5796 102.867 99.5737 102.809 99.5638C102.253 99.4634 101.875 98.8981 101.968 98.2993C102.673 93.7988 105.439 90.1058 109.971 87.6201C111.042 87.0332 112.088 86.5782 113.02 86.2335C104.838 83.7597 98.3963 83.9153 93.8428 86.7082C91.9219 87.886 90.4065 89.5031 89.3424 91.5101C88.5371 93.0247 88.3041 94.2085 88.3041 94.2203C88.1885 94.8131 87.6491 95.1972 87.0987 95.0771C86.5447 94.9569 86.1869 94.3838 86.297 93.7909C86.3374 93.5624 87.3868 88.1657 92.7787 84.8312C95.3435 83.2437 98.4715 82.3987 102.076 82.314C106.377 82.2175 111.413 83.2141 117.036 85.2802C117.482 85.4417 117.766 85.9105 117.724 86.4147C117.684 86.917 117.328 87.3247 116.862 87.4035C116.834 87.4074 113.908 87.9175 110.853 89.6035C106.896 91.7898 104.586 94.8368 103.988 98.6617C103.904 99.1994 103.471 99.5796 102.981 99.5796Z" fill="#092558"/>
<path id="Vector_52" d="M36.1314 66.905C31.5211 66.905 27.3345 65.9478 23.6616 64.055C20.2492 62.2922 17.2808 59.7258 14.8389 56.4247C10.7367 50.8783 9.54239 45.2098 9.47451 44.8769C8.52785 40.4236 8.48565 36.1949 9.35343 32.3108C10.0506 29.1851 11.3311 26.2838 13.1602 23.6839C16.1011 19.5084 19.4787 17.4935 19.9648 17.2158C20.5611 16.8002 25.8062 13.2864 34.0803 12.278C39.1255 11.6654 44.2533 12.1184 49.3241 13.6291C55.6352 15.5061 61.8655 19.0337 67.8427 24.1114C68.2867 24.4895 68.3619 25.1789 68.0115 25.6555C67.6593 26.1302 67.0153 26.211 66.5732 25.8348C53.5969 14.8109 41.9233 13.5582 34.4161 14.4485C26.2667 15.4155 21.1041 19.0416 21.0528 19.079C21.0197 19.1026 20.9849 19.1243 20.95 19.144C20.917 19.1617 17.5633 21.0388 14.7417 25.0824C10.9881 30.4614 9.88913 36.9591 11.4724 44.3944L11.4761 44.4081C11.4871 44.4613 12.6227 49.9309 16.4937 55.1267C21.6325 62.0302 28.9416 65.2288 38.2174 64.6419C47.5354 64.0491 55.0701 59.7021 60.6125 51.7213C64.7826 45.716 66.2007 39.7874 66.2154 39.7284C66.353 39.1414 66.9071 38.7849 67.4574 38.9307C68.0042 39.0764 68.3381 39.6732 68.2023 40.2621C68.1418 40.5182 66.6924 46.6121 62.3004 52.9661C59.7135 56.7103 56.6369 59.7593 53.1585 62.0302C48.8068 64.8704 43.8203 66.4855 38.3385 66.8341C37.5936 66.8813 36.8579 66.905 36.1314 66.905Z" fill="#092558"/>
<path id="Vector_53" d="M72.0294 24.2381C69.971 24.2381 68.2318 27.4269 68.2318 31.2026C68.2318 34.9764 69.971 38.1672 72.0294 38.1672C74.0897 38.1672 75.8289 34.9764 75.8289 31.2026C75.8289 27.4269 74.0897 24.2381 72.0294 24.2381ZM72.0294 40.3633C70.3819 40.3633 68.8647 39.345 67.7584 37.4955C66.7439 35.7977 66.1843 33.5642 66.1843 31.2026C66.1843 28.8411 66.7439 26.6056 67.7584 24.9078C68.8647 23.0583 70.3819 22.04 72.0294 22.04C73.6787 22.04 75.1959 23.0583 76.3022 24.9078C77.3168 26.6056 77.8763 28.8411 77.8763 31.2026C77.8763 33.5642 77.3168 35.7977 76.3022 37.4955C75.1959 39.345 73.6787 40.3633 72.0294 40.3633Z" fill="#092558"/>
<path id="Vector_54" d="M70.3835 23.5623C69.0332 23.5623 67.7417 24.3856 66.7436 25.8806C65.6722 27.4878 65.0833 29.6465 65.0833 31.9548C65.0833 34.2612 65.6722 36.4199 66.7436 38.0271C67.7417 39.524 69.0332 40.3473 70.3835 40.3473C71.7338 40.3473 73.0272 39.524 74.0234 38.0271C75.0948 36.4199 75.6855 34.2612 75.6855 31.9548C75.6855 29.6465 75.0948 27.4878 74.0234 25.8806C73.0272 24.3856 71.7338 23.5623 70.3835 23.5623ZM70.3835 42.5434C68.3544 42.5434 66.4703 41.3932 65.0778 39.3034C63.7606 37.3259 63.0359 34.7162 63.0359 31.9548C63.0359 29.1915 63.7606 26.5817 65.0778 24.6043C66.4703 22.5165 68.3544 21.3643 70.3835 21.3643C72.4126 21.3643 74.2949 22.5165 75.6892 24.6043C77.0065 26.5817 77.7311 29.1915 77.7311 31.9548C77.7311 34.7162 77.0065 37.3259 75.6892 39.3034C74.2949 41.3932 72.4126 42.5434 70.3835 42.5434Z" fill="#092558"/>
<path id="Vector_55" d="M9.75321 35.705C9.41014 35.705 9.07991 35.4982 8.91847 35.1436C8.87077 35.0392 7.74615 32.5181 7.60488 28.9532C7.47279 25.6482 8.19379 20.7891 12.3694 16.393C13.9435 14.7365 17.1669 12.247 21.4947 10.2301C26.584 7.8567 32.0951 6.64146 37.4283 6.71827C42.4515 6.78918 47.4105 7.97882 52.1695 10.2478C57.6623 12.8713 62.9496 16.976 67.8756 22.4456C68.2333 22.8415 68.2223 23.4737 67.8536 23.8558C67.4848 24.2379 66.8959 24.2281 66.54 23.8322C57.6348 13.9467 47.8343 8.85923 37.4045 8.71151C25.197 8.53622 16.1322 15.227 13.6701 17.817C10.7292 20.9132 9.31291 24.6043 9.45784 28.7916C9.56975 31.9607 10.5806 34.2534 10.5916 34.275C10.8136 34.7714 10.621 35.3662 10.1587 35.6065C10.0284 35.6735 9.89081 35.705 9.75321 35.705Z" fill="#092558"/>
<g id="Clip path group">
<mask id="mask0_1728_15442" style="mask-type:luminance" maskUnits="userSpaceOnUse" x="18" y="0" width="53" height="25">
<g id="3b293158ce">
<path id="Vector_56" d="M18.2422 0H70.8442V24.9372H18.2422V0Z" fill="white"/>
</g>
</mask>
<g mask="url(#mask0_1728_15442)">
<g id="Group">
<path id="Vector_57" d="M69.6096 24.6398H69.5986C69.0867 24.6319 68.6739 24.1829 68.6794 23.6314C68.7051 21.1733 67.2851 16.8933 64.0507 12.8753C61.2419 9.38718 56.0133 4.81178 47.0603 2.82642C40.3181 1.33149 33.708 2.56643 27.4153 6.49579C22.7095 9.43248 19.9888 12.8261 19.9631 12.8616C19.6292 13.2791 19.0421 13.3303 18.6532 12.9738C18.2624 12.6173 18.2147 11.9871 18.5486 11.5675C18.6642 11.4178 21.5024 7.87846 26.4797 4.77239C29.4059 2.94656 32.4697 1.65056 35.583 0.921809C39.4852 0.0118503 43.4718 -0.00587603 47.4346 0.874538C56.9012 2.97217 62.4601 7.84891 65.456 11.5734C69.2518 16.2867 70.5654 21.0275 70.5379 23.653C70.5324 24.2006 70.1178 24.6398 69.6096 24.6398Z" fill="#092558"/>
</g>
</g>
</g>
<path id="Vector_58" d="M73.1576 28.6502C72.6897 28.6502 72.0109 29.6331 72.0109 31.1772C72.0109 32.7234 72.6897 33.7082 73.1576 33.7082C73.6236 33.7082 74.3024 32.7234 74.3024 31.1772C74.3024 29.6331 73.6236 28.6502 73.1576 28.6502ZM73.1576 35.9043C71.3651 35.9043 69.9653 33.8283 69.9653 31.1772C69.9653 28.5281 71.3651 26.4521 73.1576 26.4521C74.9463 26.4521 76.3498 28.5281 76.3498 31.1772C76.3498 33.8283 74.9463 35.9043 73.1576 35.9043Z" fill="#092558"/>
<path id="Vector_59" d="M58.5797 56.9709C58.1926 56.9709 57.8239 56.7365 57.6514 56.3366C57.4111 55.7871 57.6331 55.1332 58.1449 54.8772C62.5168 52.687 65.2981 49.0865 66.863 46.4512C68.5765 43.5618 69.2498 41.1589 69.2572 41.1352C69.4168 40.5542 69.9873 40.2213 70.5267 40.3927C71.0698 40.564 71.3798 41.1726 71.2202 41.7537C71.1927 41.862 70.4809 44.4264 68.6279 47.566C66.9144 50.4692 63.8561 54.4399 59.0109 56.8665C58.8714 56.9374 58.7247 56.9709 58.5797 56.9709Z" fill="#092558"/>
<path id="Vector_60" d="M35.4931 71.1325C34.1758 71.1325 32.9448 71.0104 31.8073 70.7682C29.7581 70.3329 28.0042 69.5017 26.5897 68.3022C24.124 66.2085 23.5626 63.7052 23.5406 63.6008C23.414 63.0079 23.7589 62.419 24.3093 62.2831C24.8578 62.1492 25.4064 62.5135 25.5348 63.1005C25.5568 63.1931 26.0081 65.0622 27.9657 66.6694C30.6295 68.8537 34.851 69.4722 40.1695 68.4578C46.5411 67.2445 52.8467 64.7865 57.4681 61.7119C61.4455 59.0687 66.1843 54.6016 66.1843 48.3383C66.1843 47.7317 66.643 47.2393 67.208 47.2393C67.7749 47.2393 68.2317 47.7317 68.2317 48.3383C68.2317 51.4207 67.2869 54.3594 65.423 57.0755C63.803 59.4351 61.4895 61.6233 58.5468 63.5791C53.7126 66.7955 47.1447 69.3619 40.5273 70.6224C38.7367 70.9632 37.0543 71.1325 35.4931 71.1325Z" fill="#092558"/>
<path id="Vector_61" d="M22.0159 100.044C21.7811 100.044 21.5444 99.9571 21.35 99.7799C20.9207 99.384 20.8711 98.6907 21.2399 98.2318C21.9774 97.308 28.8554 86.6012 29.6002 83.3455C30.2167 80.6452 29.4094 72.5717 29.048 69.6863C28.971 69.0855 29.3654 68.5321 29.925 68.4513C30.4845 68.3706 31 68.7921 31.0753 69.3928C31.1303 69.832 32.4219 80.2138 31.5871 83.8674C30.7193 87.6727 23.6359 98.604 22.7938 99.6597C22.592 99.9138 22.3058 100.044 22.0159 100.044Z" fill="#092558"/>
<path id="Vector_62" d="M72.2109 63.2498C71.7944 63.2498 71.4037 62.9741 71.2514 62.5309C69.6186 57.7606 65.3274 56.6714 65.2834 56.6615C64.733 56.5276 64.3863 55.9406 64.511 55.3478C64.6339 54.7569 65.1843 54.3866 65.7347 54.5206C65.9549 54.5737 71.1596 55.8953 73.1722 61.7726C73.3667 62.3419 73.0952 62.9721 72.565 63.1829C72.4494 63.2282 72.3283 63.2498 72.2109 63.2498Z" fill="#092558"/>
<path id="Vector_63" d="M72.0733 81.3373C70.6368 81.3373 69.2865 80.9217 68.0335 80.0925C63.069 76.8151 61.4949 68.1409 61.4307 67.7726C61.3261 67.1758 61.6912 66.6027 62.2471 66.4904C62.803 66.3781 63.3369 66.7701 63.4433 67.3669C63.4561 67.4457 64.9165 75.46 69.1086 78.2253C70.5836 79.1963 72.1944 79.3933 74.0327 78.8221C82.4939 76.1986 84.5468 59.9001 84.567 59.7366C84.6404 59.1359 85.1523 58.7105 85.7136 58.7873C86.2732 58.8661 86.6695 59.4156 86.5979 60.0183C86.5759 60.1956 86.0512 64.4873 84.3615 69.2006C83.358 71.9994 82.149 74.3649 80.7657 76.2301C78.9861 78.635 76.9112 80.2166 74.6014 80.9335C73.7336 81.2014 72.8897 81.3373 72.0733 81.3373Z" fill="#092558"/>
<path id="Vector_64" d="M69.2627 72.1842C69.1874 72.1842 69.1141 72.1763 69.0388 72.1586C68.4866 72.0246 68.1399 71.4397 68.2628 70.8468C68.2958 70.6853 69.103 66.8485 71.1376 62.6178C72.6585 59.4487 74.4601 56.9138 76.4874 55.0801C76.9203 54.6901 77.5661 54.7492 77.9312 55.2121C78.2945 55.6769 78.2394 56.3702 77.8064 56.7602C75.9847 58.4048 74.3537 60.7132 72.9557 63.6243C71.0496 67.591 70.268 71.288 70.2589 71.3254C70.1543 71.8355 69.7305 72.1842 69.2627 72.1842Z" fill="#092558"/>
<path id="Vector_65" d="M79.6962 53.522C79.6705 54.0321 79.7549 55.2474 80.186 55.7418C80.2741 55.8422 80.4025 55.9486 80.6703 55.9505H80.6942C81.6775 55.9505 81.9289 55.0957 81.9894 54.686C81.8665 53.9415 81.417 52.2418 80.4777 51.4992C80.0649 51.1742 79.5879 51.062 79.021 51.1604C78.2835 51.2885 78.0083 51.6371 77.8634 51.8912C77.3864 52.7243 77.5588 54.1208 77.7313 54.8929C77.6194 54.1385 77.6451 53.5181 77.6524 53.392C77.6873 52.7873 78.1716 52.3265 78.7367 52.3619C79.2981 52.3993 79.7274 52.9173 79.6962 53.522ZM80.696 58.1466H80.6428C79.8705 58.1368 79.1935 57.8197 78.6853 57.2327C78.2743 56.76 78.023 56.1613 77.8707 55.5783C77.8707 56.0431 77.5974 56.4744 77.1644 56.6241C76.6269 56.8112 76.0508 56.4981 75.8747 55.921C75.7793 55.6039 74.9665 52.7696 76.1132 50.7508C76.6544 49.7975 77.5478 49.1908 78.6945 48.9919C79.8044 48.8009 80.8446 49.0589 81.6996 49.7364C83.5672 51.2195 83.9965 54.1858 84.0387 54.5206C84.0497 54.5994 84.0515 54.6801 84.046 54.7589C83.9396 56.1278 82.9618 58.1466 80.696 58.1466Z" fill="#092558"/>
<path id="Vector_66" d="M80.0666 50.9949C79.5749 50.9949 79.1401 50.6128 79.0594 50.0751C79.0374 49.9333 78.5274 46.5692 78.3641 43.3509C78.2925 41.921 78.6319 40.8712 79.3805 40.231C80.4097 39.3447 81.7104 39.7032 81.8535 39.7465C82.0113 39.7958 82.1581 39.8824 82.2791 40.0045C82.336 40.0636 83.0772 40.8318 83.7065 42.3464C84.3009 40.879 85.0751 39.9553 86.0218 39.5929C87.306 39.1005 88.4875 39.3388 89.2635 40.2507C90.1661 41.3123 90.3478 43.1874 89.691 44.706C89.1644 45.9291 88.5664 47.6033 88.3132 48.4049C88.3425 48.6413 88.304 48.8894 88.1829 49.112C87.6179 50.1421 86.807 49.7265 86.7152 49.6773C86.5465 49.5827 86.0089 49.2026 86.2034 48.3104C86.2291 48.1981 86.2676 48.0543 86.3208 47.8731C86.4144 47.5658 86.552 47.1503 86.7207 46.6697C87.0803 45.6514 87.506 44.5445 87.8344 43.7842C88.1701 43.0082 88.0618 42.0963 87.7536 41.7338C87.5518 41.4955 87.2014 41.4719 86.7097 41.661C86.0841 41.9013 85.4549 43.1736 85.0274 45.0644C84.7247 46.4038 84.5963 47.684 84.5577 48.1607C84.5522 48.2335 84.5467 48.3084 84.5412 48.3793C84.4917 48.982 84.0018 49.4252 83.4441 49.3799C82.8846 49.3326 82.4644 48.8126 82.5011 48.2138C82.5011 48.1981 82.5066 48.1154 82.5176 47.9755C82.7525 44.4637 81.5526 42.4843 81.0646 41.8343C80.9234 41.8323 80.7601 41.856 80.6555 41.9485C80.4684 42.1159 80.3748 42.5926 80.4078 43.2288C80.5656 46.3329 81.0738 49.6871 81.0775 49.7206C81.1692 50.3194 80.7913 50.8846 80.2336 50.9831C80.1767 50.991 80.1216 50.9949 80.0666 50.9949Z" fill="#092558"/>
<path id="Vector_67" d="M84.1706 56.0035C84.4183 56.1138 85.0751 56.1768 85.7741 56.0389C86.5189 55.8912 88.1407 55.1861 88.7021 54.9241C88.9883 54.7922 89.3002 54.8119 89.5607 54.9478C89.5736 54.8847 89.5791 54.8237 89.5791 54.7666C89.5717 54.4554 89.5204 54.0496 89.3057 53.8822C89.0709 53.701 88.4636 53.6262 87.4638 53.961C87.3005 54.0142 87.1354 54.0674 86.9702 54.1205C85.42 54.6228 84.4568 54.997 84.1853 55.9424L84.1706 56.0035ZM85.974 61.1146C85.6236 61.1146 85.2842 60.9216 85.0916 60.5769C84.8036 60.0569 84.9632 59.3833 85.4475 59.0721C85.963 58.7432 86.4859 58.365 86.9794 57.9672C86.6749 58.0696 86.3868 58.1503 86.1447 58.1996C85.5539 58.3158 83.5505 58.6053 82.5782 57.4314C82.3122 57.1104 81.9122 56.4033 82.2296 55.2964C82.8424 53.1613 84.8036 52.5271 86.3813 52.019C86.5391 51.9658 86.6969 51.9165 86.8547 51.8634C88.3792 51.3532 89.6396 51.436 90.5 52.0997C90.9972 52.4838 91.5953 53.248 91.6247 54.7193C91.6522 56.0389 90.7789 57.4669 88.9571 59.0839C87.7463 60.1593 86.5464 60.9275 86.4951 60.959C86.33 61.0654 86.152 61.1146 85.974 61.1146Z" fill="#092558"/>
<path id="Vector_68" d="M82.9562 54.3929C82.492 54.3929 82.0719 54.0502 81.9618 53.544C81.7344 52.4962 81.883 51.6059 82.4077 50.8929C82.8296 50.3178 83.4185 49.9594 83.9873 49.6127C84.2514 49.4532 84.5248 49.2858 84.7743 49.1006C86.3246 47.9582 87.983 47.2433 89.3278 47.1428C91.3092 46.9931 92.0155 48.2753 92.5237 49.4886C93.3071 51.3696 91.7697 53.3648 91.5917 53.5854C91.223 54.0463 90.5772 54.0975 90.1479 53.7016C89.7223 53.3057 89.6727 52.6144 90.0396 52.1555C90.3497 51.7635 90.845 50.8457 90.6542 50.3868C90.1919 49.2798 90.0396 49.2917 89.4709 49.333C88.5096 49.4059 87.1556 50.0106 85.9356 50.9107C85.6127 51.149 85.2862 51.3479 84.9981 51.5232C83.8864 52.2008 83.7983 52.3288 83.9542 53.0438C84.0827 53.6346 83.7396 54.2255 83.1892 54.3654C83.1121 54.3831 83.0351 54.3929 82.9562 54.3929Z" fill="#092558"/>
<path id="Vector_69" d="M69.9451 104.693C69.692 104.693 69.4424 104.594 69.2443 104.395C68.8315 103.98 68.8132 103.282 69.2003 102.843C73.4768 97.9645 75.2857 92.8731 74.5794 87.7107C74.051 83.8424 72.2292 81.3509 72.2109 81.3253C71.8605 80.8526 71.9302 80.1632 72.3723 79.7831C72.8108 79.4049 73.4529 79.4798 73.807 79.9505C73.8951 80.0687 75.9535 82.8537 76.5883 87.2755C76.9607 89.8694 76.7662 92.493 76.0122 95.0771C75.0802 98.2639 73.2896 101.382 70.69 104.348C70.4882 104.576 70.2167 104.693 69.9451 104.693Z" fill="#092558"/>
<path id="Vector_70" d="M51.5771 107.398C51.135 107.398 50.7258 107.087 50.5956 106.607C49.1793 101.409 50.3571 97.6035 51.5954 95.3266C52.9439 92.8449 54.6482 91.604 54.7198 91.5509C55.1876 91.214 55.8242 91.348 56.1398 91.8522C56.4535 92.3544 56.3287 93.0359 55.8609 93.3747C55.8316 93.3964 54.4189 94.4521 53.3181 96.5182C51.8523 99.2697 51.5973 102.459 52.5604 105.992C52.7182 106.575 52.4082 107.184 51.8633 107.353C51.7697 107.385 51.6725 107.398 51.5771 107.398Z" fill="#092558"/>
<path id="Vector_71" d="M51.7311 107.438C51.2926 108.803 50.7807 111.115 51.4852 113.043C51.9641 114.347 52.9217 115.277 54.4151 115.884C56.2332 116.618 58.6421 116.664 61.1977 116.008C63.6561 115.375 66.0741 114.123 67.8261 112.571C69.0535 111.486 71.0459 109.268 70.6202 106.597L70.6147 106.56C70.5028 105.695 70.1377 104.824 69.8974 104.661C69.5415 104.748 68.6223 105.143 67.8023 105.494C64.9678 106.713 60.5354 108.616 56.4735 108.616C54.782 108.616 53.1529 108.285 51.7311 107.438ZM57.7449 118.663C56.2626 118.663 54.8848 118.421 53.6923 117.938C51.6522 117.111 50.267 115.73 49.5772 113.835C48.1756 109.991 50.2524 105.468 50.3404 105.277C50.4799 104.98 50.7385 104.765 51.0431 104.694C51.3476 104.625 51.665 104.708 51.9054 104.921C55.7434 108.309 63.0928 105.151 67.0409 103.455C68.9819 102.622 69.624 102.364 70.1983 102.473C72.0953 102.835 72.5613 105.634 72.642 106.244C73.0786 109.027 71.8311 111.876 69.1305 114.265C67.1143 116.049 64.467 117.426 61.6728 118.143C60.3226 118.489 58.9961 118.663 57.7449 118.663Z" fill="#092558"/>
<path id="Vector_72" d="M65.4779 136.241C64.4798 136.241 63.5313 136.058 62.6544 135.686C60.6161 134.823 59.1631 133.027 58.4531 130.494C58.4366 130.437 58.4238 130.378 58.4183 130.319C58.3963 130.136 57.9046 125.803 60.0969 122.722C60.4382 122.242 61.0803 122.149 61.5298 122.517C61.9793 122.886 62.0655 123.573 61.7224 124.056C60.1923 126.208 60.3923 129.403 60.44 129.956C60.9721 131.772 61.9958 133.047 63.4048 133.644C65.3183 134.455 67.8959 133.998 70.4735 132.393C73.8859 130.268 75.9352 125.797 76.1957 122.478C76.3094 121.036 76.0654 119.898 75.5407 119.431C72.9392 117.107 69.67 112.567 69.5305 112.376C69.1856 111.895 69.27 111.204 69.7195 110.834C70.1653 110.465 70.8092 110.554 71.1542 111.034C71.1872 111.08 74.4234 115.574 76.8506 117.743C77.9184 118.694 78.41 120.441 78.2376 122.661C78.0761 124.707 77.3808 126.957 76.2782 128.993C75.0362 131.288 73.3832 133.12 71.5009 134.294C69.4278 135.584 67.3657 136.241 65.4779 136.241Z" fill="#092558"/>
<path id="Vector_73" d="M65.7384 126.148C65.1752 126.148 64.612 126.075 64.0451 125.933C59.1136 124.684 55.9434 118.358 55.8095 118.088C55.5435 117.553 55.7361 116.889 56.2333 116.605C56.7341 116.32 57.3524 116.526 57.6184 117.06C57.6606 117.145 60.5079 122.784 64.5202 123.796C66.1494 124.208 67.729 123.804 69.3508 122.561C69.8094 122.211 70.4497 122.323 70.7781 122.817C71.1065 123.312 70.9982 123.997 70.5396 124.35C68.9765 125.545 67.3675 126.148 65.7384 126.148Z" fill="#092558"/>
<path id="Vector_74" d="M75.5517 58.0738C75.1572 58.0738 74.783 57.8276 74.6142 57.416C72.1778 51.4599 70.101 50.0437 69.0791 49.7305C68.3692 49.5119 67.9362 49.7562 67.9343 49.7562C67.4665 50.0989 66.8299 49.9708 66.5107 49.4706C66.1915 48.9703 66.3125 48.2849 66.7785 47.9441C66.896 47.8555 67.9857 47.109 69.6424 47.6172C72.0714 48.3656 74.3738 51.3634 76.4891 56.5336C76.7148 57.089 76.48 57.737 75.9626 57.9812C75.8287 58.0443 75.6893 58.0738 75.5517 58.0738Z" fill="#092558"/>
<path id="Vector_75" d="M75.3884 96.2781C74.8454 96.2781 74.3904 95.8172 74.3666 95.2283C74.3409 94.6217 74.7793 94.1096 75.3426 94.082C79.9199 93.8614 82.9929 92.3212 84.4771 89.5007C87.9775 82.8493 82.0793 71.0474 82.0187 70.9293C81.7509 70.3975 81.9343 69.7298 82.4297 69.4383C82.9269 69.1507 83.547 69.3457 83.8185 69.8795C84.0845 70.4053 90.3167 82.867 86.2622 90.5781C84.4074 94.1036 80.7657 96.0201 75.4343 96.2761L75.3884 96.2781Z" fill="#092558"/>
<path id="Vector_76" d="M42.525 95.0454C42.2461 95.0454 41.9691 94.9233 41.7691 94.683C37.4229 89.5483 35.9148 83.9585 35.414 80.1769C34.8709 76.0663 35.3571 73.1749 35.3791 73.0528C35.4819 72.458 36.0157 72.0641 36.5716 72.1763C37.1257 72.2847 37.4926 72.8578 37.3917 73.4546C37.3862 73.4802 36.9422 76.1766 37.4541 79.9523C38.1329 84.9788 40.0959 89.438 43.2845 93.2078C43.6642 93.6569 43.6312 94.3521 43.2129 94.7598C43.0185 94.9509 42.7708 95.0454 42.525 95.0454Z" fill="#092558"/>
<path id="Vector_77" d="M46.0437 87.8546C46.4216 88.2249 48.0617 88.347 51.9585 86.5468C53.5271 85.82 55.0223 84.9888 56.0221 84.4019C55.0718 83.2339 54.371 81.542 53.927 79.3479C53.7601 78.5128 53.6536 77.723 53.5876 77.0612C49.3405 79.3952 45.2144 79.3853 43.2973 79.212C42.9762 84.4649 45.1429 87.0156 45.7061 87.5848C45.7997 87.6321 45.8877 87.6951 45.9666 87.7758L46.0437 87.8546ZM46.9353 90.2831C46.0107 90.2831 45.2915 90.0448 44.7576 89.5682C44.2091 89.1979 43.2697 88.1422 42.5194 86.5448C41.7213 84.849 40.8737 81.9616 41.3636 77.8411C41.4003 77.5418 41.5507 77.2699 41.78 77.0927C42.0075 76.9154 42.2937 76.8465 42.5708 76.9036C42.6533 76.9194 48.4947 78.0322 53.949 74.3116C54.2627 74.0989 54.6609 74.0851 54.9874 74.2742C55.314 74.4652 55.5176 74.8316 55.5213 75.2314C55.5378 77.071 56.0717 82.1723 58.3227 83.6613C58.6273 83.8622 58.8126 84.2207 58.8071 84.6048C58.8052 84.9888 58.6163 85.3434 58.3062 85.5403C58.2017 85.6073 55.646 87.2322 52.7675 88.5637C50.2853 89.712 48.3645 90.2831 46.9353 90.2831Z" fill="#092558"/>
<path id="Vector_78" d="M57.9798 85.5771C57.789 85.5771 57.5964 85.518 57.4239 85.3979C56.9487 85.067 56.8148 84.3874 57.123 83.8793L59.3924 80.1292C57.8349 78.5929 56.9524 76.0462 56.4828 74.1553L55.2756 75.8512C54.9325 76.3337 54.2886 76.4243 53.8409 76.056C53.3914 75.6877 53.3052 75.0003 53.6483 74.5177L56.2167 70.9094C56.4681 70.5569 56.8955 70.4013 57.2955 70.5155C57.6954 70.6317 57.9926 70.9941 58.0458 71.4373C58.244 73.0701 59.2145 77.6041 61.2931 78.9297C61.5316 79.0813 61.7041 79.3334 61.7664 79.623C61.8306 79.9145 61.7793 80.2217 61.627 80.4719L58.8384 85.0768C58.6421 85.3998 58.3155 85.5771 57.9798 85.5771Z" fill="#092558"/>
<path id="Vector_79" d="M42.149 79.7352C41.9729 79.7352 41.7913 79.684 41.6298 79.5796C41.1418 79.2723 40.9822 78.5987 41.2684 78.0768L43.6919 73.6826C43.8405 73.4128 44.0882 73.2256 44.3744 73.1646L56.9433 70.4997C57.4956 70.3815 58.0349 70.7695 58.145 71.3644C58.2551 71.9592 57.8937 72.5363 57.3396 72.6545L45.2202 75.2248L43.0296 79.1935C42.8407 79.5422 42.4994 79.7352 42.149 79.7352Z" fill="#092558"/>
<path id="Vector_80" d="M82.8811 85.7512L82.8572 85.7689C76.7058 90.7639 62.282 89.3241 57.5359 81.877C57.3689 81.617 57.2148 81.3491 57.0736 81.0754C56.9231 79.0112 58.5798 78.637 62.4361 81.552C67.1456 84.2051 69.3325 84.4788 71.4533 84.4788C76.8507 84.4788 77.9808 83.0528 80.9988 82.2118C82.1674 82.2611 83.4865 84.6738 82.8811 85.7512Z" fill="#EEF1F7"/>
<path id="Vector_81" d="M72.8842 88.7035C72.8787 88.7035 72.8732 88.7035 72.8659 88.7035C73.4768 88.7035 74.0822 88.6779 74.6785 88.6306C74.6785 88.6326 74.6785 88.6326 74.6785 88.6326C74.0896 88.6798 73.4896 88.7035 72.8842 88.7035ZM70.1965 88.5538C66.1292 88.1047 62.1242 86.6373 59.3796 84.1852L59.4237 84.1123C62.1389 86.6078 66.1347 88.0988 70.1965 88.5538Z" fill="#A8B0BF"/>
<path id="Vector_82" d="M76.7131 88.3785C76.7131 88.3745 76.7113 88.3706 76.7113 88.3647C79.1073 87.9294 81.2611 87.0647 82.8573 85.7687L82.8811 85.751C82.9013 85.7136 82.9196 85.6762 82.9361 85.6368C82.96 85.6801 82.9838 85.7254 83.0059 85.7687C81.3749 87.0785 79.166 87.9471 76.7131 88.3785ZM57.8974 82.5996C57.7176 82.3652 57.5451 82.125 57.3855 81.8768C57.413 81.8433 57.4442 81.8098 57.4754 81.7803C57.4956 81.8138 57.5158 81.8433 57.5359 81.8768C57.6699 82.0875 57.813 82.2943 57.9634 82.4933L57.8974 82.5996Z" fill="#A8B0BF"/>
<path id="Vector_83" d="M74.6785 88.6321C74.6785 88.6321 74.6785 88.6321 74.6785 88.6302C75.3701 88.573 76.0508 88.4844 76.7112 88.3643C76.7112 88.3702 76.7131 88.3741 76.7131 88.378C76.0508 88.4962 75.3701 88.5789 74.6785 88.6321Z" fill="#07204E"/>
<path id="Vector_84" d="M59.3796 84.1851C58.831 83.6966 58.3357 83.1668 57.8972 82.5995L57.9633 82.4932C58.3907 83.0722 58.8824 83.6119 59.4236 84.1122L59.3796 84.1851Z" fill="#07204E"/>
<path id="Vector_85" d="M72.8659 88.7028C71.9835 88.7028 71.0882 88.6516 70.1965 88.5531C66.1347 88.0982 62.1389 86.6072 59.4237 84.1117C58.8825 83.6114 58.3908 83.0717 57.9633 82.4926C57.8129 82.2937 57.6698 82.0869 57.5359 81.8762C57.5157 81.8427 57.4955 81.8131 57.4753 81.7797C57.6661 81.5984 57.934 81.5039 58.2789 81.5039C59.165 81.5039 60.5685 82.1362 62.5389 83.6094C67.2997 86.2625 69.5177 86.5363 71.6624 86.5363C77.124 86.5363 78.267 85.1063 81.3198 84.2653C81.9069 84.2909 82.5306 84.8995 82.9361 85.6361C82.9196 85.6755 82.9012 85.713 82.8811 85.7504L82.8572 85.7681C81.2611 87.0641 79.1073 87.9288 76.7113 88.364C76.0508 88.4842 75.3702 88.5728 74.6785 88.6299C74.0823 88.6772 73.4768 88.7028 72.8659 88.7028Z" fill="#C5CCDA"/>
<path id="Vector_86" d="M58.0863 80.7693C59.809 83.8931 63.4488 86.2783 68.1271 87.334C73.4108 88.5237 78.7587 87.7102 81.7509 85.262L81.7729 85.2443C82.0114 85.0591 82.0151 84.6633 81.9381 84.356C81.8298 83.9227 81.5179 83.4638 81.0483 83.3318C80.2943 83.5563 79.665 83.8163 78.999 84.094C77.2433 84.8208 75.427 85.5772 71.4551 85.5772C69.3049 85.5772 66.9621 85.3428 61.961 82.5243C61.9206 82.5026 61.8821 82.477 61.8472 82.4514C59.2457 80.4838 58.2899 80.5231 58.1156 80.5547C58.1028 80.594 58.0899 80.665 58.0863 80.7693ZM72.9063 90.0679C71.1872 90.0679 69.4297 89.8709 67.707 89.4829C62.3334 88.2716 58.1303 85.3999 56.1764 81.6064C56.1049 81.4686 56.0627 81.3169 56.0498 81.1593C55.9398 79.5896 56.6443 78.914 57.0791 78.652C58.2972 77.9075 60.2254 78.5476 62.9718 80.6118C67.5253 83.1723 69.5086 83.3791 71.4551 83.3791C75.0454 83.3791 76.6085 82.7311 78.2615 82.0456C79.0082 81.7345 79.7806 81.4154 80.7382 81.1475C80.8575 81.1121 80.9822 81.1042 81.1033 81.116C82.4444 81.2657 83.5489 82.3155 83.9158 83.7888C84.2368 85.0769 83.8791 86.3118 82.9838 87.015C81.2207 88.4547 78.8045 89.4336 75.9976 89.8473C74.9922 89.993 73.9557 90.0679 72.9063 90.0679Z" fill="#092558"/>
<path id="Vector_87" d="M81.2776 68.4201C80.2043 68.4201 79.1788 68.168 78.2083 67.6638C74.5684 65.7828 73.0971 61.0301 73.0347 60.8273C72.8604 60.2502 73.1558 59.6297 73.6951 59.4446C74.2308 59.2575 74.8069 59.5726 74.983 60.1477C74.9995 60.2009 76.2599 64.2268 79.1036 65.6922C80.4502 66.3835 81.9784 66.3914 83.6479 65.7178C84.1763 65.5051 84.767 65.7926 84.9652 66.3599C85.1633 66.9271 84.8973 67.5633 84.3671 67.7741C83.3012 68.2054 82.2701 68.4201 81.2776 68.4201Z" fill="#092558"/>
<path id="Vector_88" d="M48.9718 147.391C42.8296 147.391 37.1313 146.877 31.9228 145.847C24.1495 144.309 17.4404 141.63 11.9805 137.882C2.57632 131.426 0.152798 124.087 0.0555641 123.778C0.00786393 123.632 -0.00864747 123.478 0.00419494 123.323C0.0298793 123.016 0.716025 115.712 7.70406 108.224C11.7622 103.877 17.1248 100.363 23.6413 97.781C31.721 94.5803 41.6187 92.8038 53.063 92.5044C53.6263 92.4867 54.0959 92.9692 54.1106 93.5739C54.1253 94.1805 53.6776 94.6828 53.1126 94.6985C27.9105 95.3603 15.3617 103.195 9.27082 109.65C5.85294 113.274 4.07153 116.849 3.17624 119.212C2.41488 121.229 2.15069 122.728 2.0718 123.287C2.28095 123.831 2.91939 125.344 4.24399 127.311C5.78506 129.596 8.59752 132.982 13.2409 136.139C21.504 141.754 37.2578 147.691 65.388 144.084C65.4632 144.075 72.7026 143.159 81.7417 140.547C90.0066 138.16 101.506 133.829 109.439 126.744C109.824 126.187 111.978 122.941 113.009 118.59C114.471 112.405 113.081 106.942 108.872 102.352C108.094 101.96 104.359 100.146 99.0164 98.5747C93.5071 96.9537 85.1027 95.2658 76.3626 96.4239C75.8012 96.4987 75.2912 96.0713 75.2215 95.4686C75.1518 94.8679 75.5499 94.3184 76.1113 94.2435C85.2018 93.0401 93.9052 94.7911 99.6053 96.4692C105.777 98.2911 109.758 100.369 109.923 100.456C110.024 100.509 110.118 100.58 110.197 100.664C112.866 103.53 114.57 106.772 115.26 110.304C115.81 113.126 115.715 116.122 114.974 119.206C113.728 124.4 111.101 128.034 110.991 128.186C110.947 128.245 110.897 128.3 110.842 128.349C107.197 131.625 102.544 134.607 97.0112 137.209C92.6099 139.279 87.6418 141.12 82.2425 142.678C73.064 145.325 65.6998 146.257 65.6265 146.265C59.774 147.015 54.2115 147.391 48.9718 147.391Z" fill="#092558"/>
<path id="Vector_89" d="M37.5037 146.543C37.3093 146.543 37.1148 146.484 36.9423 146.361C36.4708 146.029 36.3387 145.347 36.6488 144.841C44.0937 132.704 46.2989 120.865 43.202 109.65C40.8886 101.273 36.3112 96.3866 36.2654 96.3393C35.8617 95.9139 35.8544 95.2186 36.2488 94.7853C36.6451 94.352 37.2927 94.3441 37.6964 94.7676C37.8982 94.9783 42.6516 100.03 45.1339 108.917C46.5906 114.133 46.952 119.589 46.2108 125.131C45.288 132.023 42.6461 139.06 38.3605 146.048C38.1623 146.369 37.8376 146.543 37.5037 146.543Z" fill="#092558"/>
<path id="Vector_90" d="M45.8217 88.5062C45.8217 88.5062 43.3028 94.6947 40.5196 95.1398C37.7384 95.583 38.6061 92.1401 38.6061 92.1401C41.692 89.9342 43.589 86.1309 43.589 86.1309L45.8217 88.5062Z" fill="#F5F5F5"/>
<path id="Vector_91" d="M38.2723 93.8493C38.1934 93.7193 38.1347 93.5775 38.0925 93.4278C38.1274 93.3865 38.1604 93.3431 38.1953 93.2998C38.2815 93.3451 38.3769 93.3845 38.4833 93.414C38.487 93.544 38.4998 93.678 38.5218 93.808C38.4393 93.8237 38.3549 93.8375 38.2723 93.8493Z" fill="#CBD0D8"/>
<path id="Vector_92" d="M38.0926 93.4287C38.0706 93.3538 38.0523 93.277 38.0376 93.1982C38.0871 93.2357 38.1385 93.2691 38.1954 93.3007C38.1605 93.344 38.1275 93.3873 38.0926 93.4287Z" fill="#A8B0BF"/>
<path id="Vector_93" d="M38.6339 94.2478C38.4834 94.1395 38.3642 94.0036 38.2725 93.85C38.355 93.8381 38.4394 93.8244 38.522 93.8086C38.5458 93.9603 38.5825 94.106 38.6339 94.2478Z" fill="#07204E"/>
<path id="Vector_94" d="M45.2823 87.9328L44.5925 87.1981C44.6072 87.1627 44.6219 87.1292 44.6366 87.0977L45.3264 87.8323C45.3264 87.8323 45.3099 87.8678 45.2823 87.9328Z" fill="#07204E"/>
<path id="Vector_95" d="M39.5585 94.5055C39.1604 94.5055 38.8613 94.407 38.6338 94.2475C38.5825 94.1057 38.5458 93.9599 38.5219 93.8082C38.4999 93.6782 38.4871 93.5443 38.4834 93.4143C38.632 93.4557 38.8008 93.4774 38.9898 93.4774C39.1329 93.4774 39.2888 93.4655 39.4576 93.438C41.8151 93.0598 43.9854 88.5632 44.5927 87.1982L45.2825 87.9329C44.9431 88.7345 42.5966 94.0564 40.0245 94.4661C39.8557 94.4937 39.7016 94.5055 39.5585 94.5055Z" fill="#CBD0D8"/>
<path id="Vector_96" d="M40.0574 96.276C39.0575 96.276 38.4613 95.8348 38.1237 95.4271C37.0761 94.1626 37.5605 92.0867 37.6192 91.8543C37.6834 91.5982 37.8338 91.3757 38.0393 91.2279C40.8646 89.2051 42.6699 85.648 42.6864 85.6126C42.9542 85.0769 43.5743 84.8779 44.0715 85.1635C44.5705 85.4511 44.7576 86.1148 44.4916 86.6486C44.4127 86.8081 42.58 90.4381 39.5308 92.7898C39.4776 93.2409 39.4923 93.7746 39.6538 93.9677C39.7455 94.078 40.0133 94.1095 40.3693 94.0523C42.0479 93.7845 44.1357 89.9044 44.8824 88.0667C45.1099 87.5093 45.7135 87.2572 46.2308 87.4995C46.75 87.7417 46.9849 88.3878 46.7592 88.9452C46.7335 89.0121 46.0841 90.5977 45.0714 92.258C43.6073 94.659 42.1268 95.9944 40.6701 96.2248C40.45 96.2603 40.2463 96.276 40.0574 96.276Z" fill="#092558"/>
<path id="Vector_97" d="M104.144 132.763C103.95 132.763 103.753 132.702 103.581 132.578C103.109 132.243 102.981 131.561 103.293 131.055C108.215 123.092 109.712 115.539 107.744 108.606C106.289 103.485 103.42 100.674 103.392 100.644C102.972 100.239 102.937 99.5454 103.315 99.0964C103.693 98.6434 104.34 98.6079 104.761 99.0136C104.896 99.1436 108.083 102.267 109.701 107.965C110.648 111.302 110.861 114.835 110.334 118.465C109.679 122.954 107.885 127.599 104.999 132.27C104.803 132.59 104.476 132.763 104.144 132.763Z" fill="#092558"/>
<path id="Vector_98" d="M104.961 148C102.541 148 100.328 147.572 98.3504 146.722C92.5751 144.238 90.8248 139.054 90.7533 138.835C90.5662 138.262 90.8469 137.636 91.3807 137.435C91.9128 137.234 92.4962 137.535 92.6851 138.105C92.6906 138.124 93.0778 139.259 94.0703 140.632C95.3875 142.457 97.0992 143.828 99.1577 144.703C104.032 146.777 110.43 145.955 118.206 142.266C117.238 142.065 116.141 141.774 115.003 141.356C110.191 139.582 106.966 136.346 105.678 131.995C105.505 131.418 105.803 130.801 106.342 130.616C106.881 130.433 107.456 130.752 107.628 131.331C108.723 135.026 111.411 137.695 115.616 139.259C118.863 140.466 121.826 140.525 121.855 140.527C122.327 140.533 122.732 140.884 122.839 141.376C122.943 141.868 122.725 142.375 122.307 142.603C117.01 145.498 112.158 147.249 107.887 147.805C106.881 147.935 105.905 148 104.961 148Z" fill="#092558"/>
<path id="Vector_99" d="M72.0294 24.2381C69.971 24.2381 68.2318 27.4269 68.2318 31.2026C68.2318 34.9764 69.971 38.1672 72.0294 38.1672C74.0897 38.1672 75.8289 34.9764 75.8289 31.2026C75.8289 27.4269 74.0897 24.2381 72.0294 24.2381ZM72.0294 40.3633C70.3819 40.3633 68.8647 39.345 67.7584 37.4955C66.7439 35.7977 66.1843 33.5642 66.1843 31.2026C66.1843 28.8411 66.7439 26.6056 67.7584 24.9078C68.8647 23.0583 70.3819 22.04 72.0294 22.04C73.6787 22.04 75.1959 23.0583 76.3022 24.9078C77.3168 26.6056 77.8763 28.8411 77.8763 31.2026C77.8763 33.5642 77.3168 35.7977 76.3022 37.4955C75.1959 39.345 73.6787 40.3633 72.0294 40.3633Z" fill="#092558"/>
<path id="Vector_100" d="M130.3 111.763C130.3 111.763 106.294 130.921 90.2029 114.842C90.2029 114.842 90.4212 114.359 90.8964 113.603C93.5235 109.435 104.058 96.9241 129.607 111.371C129.838 111.495 130.067 111.627 130.3 111.763Z" fill="#F73232"/>
<path id="Vector_101" d="M92.0319 113.936C91.8962 113.897 91.7586 113.861 91.6265 113.822C91.9805 113.294 92.4502 112.664 93.041 111.994C94.4976 110.346 97.0276 108.108 100.807 106.804C102.986 106.054 105.326 105.678 107.821 105.678C113.66 105.678 120.353 107.732 127.82 111.819C127.605 111.872 127.389 111.925 127.172 111.978C119.447 107.976 113.181 106.523 108.154 106.523C99.4272 106.523 94.4389 110.905 92.0319 113.936Z" fill="#F96767"/>
<path id="Vector_102" d="M91.1238 114.617C97.4202 120.489 105.63 121.727 115.544 118.304C121.114 116.38 125.745 113.424 127.941 111.887C117.234 105.996 108.11 104.287 100.807 106.804C97.0276 108.108 94.4976 110.345 93.041 111.994C92.109 113.049 91.4834 114.005 91.1238 114.617ZM105.344 122.366C104.472 122.366 103.619 122.322 102.781 122.238C97.5596 121.698 92.9657 119.482 89.1277 115.645C88.7993 115.316 88.7094 114.796 88.9039 114.365C89.0268 114.085 92.0521 107.54 100.124 104.732C103.819 103.447 107.993 103.164 112.532 103.887C117.96 104.751 123.974 107.077 130.408 110.796C130.715 110.975 130.917 111.31 130.944 111.684C130.968 112.059 130.814 112.421 130.533 112.646C130.282 112.844 124.303 117.573 116.223 120.376C112.407 121.7 108.758 122.366 105.344 122.366Z" fill="#092558"/>
<g id="Clip path group_2">
<mask id="mask1_1728_15442" style="mask-type:luminance" maskUnits="userSpaceOnUse" x="108" y="93" width="44" height="42">
<g id="5dc1eb3f34">
<path id="Vector_103" d="M108.887 93.8164H152V134.739H108.887V93.8164Z" fill="white"/>
</g>
</mask>
<g mask="url(#mask1_1728_15442)">
<g id="Group_2">
<path id="Vector_104" d="M125.152 134.573C123.795 134.573 122.41 134.431 121.006 134.15C117.251 133.395 113.354 131.623 109.422 128.881C108.947 128.552 108.813 127.87 109.122 127.362C109.43 126.854 110.063 126.708 110.536 127.039C117.144 131.644 123.633 133.312 129.302 131.863C131.12 131.398 132.577 130.689 133.648 130.029C131.26 129.594 129.741 128.572 128.822 127.67C127.424 126.293 127.046 124.879 127.007 124.723C126.925 124.382 126.996 124.022 127.203 123.752C127.409 123.478 127.724 123.329 128.051 123.346C134.502 123.707 141.568 119.545 145.972 116.366C143.043 116.768 140.679 116.287 138.993 115.663C136.109 114.593 134.538 112.892 134.472 112.819C134.114 112.425 134.081 111.808 134.397 111.377C136.217 108.876 139.67 108.267 142.262 108.2C139.501 106.199 136.397 104.952 132.999 104.481C129.649 104.017 127.251 104.525 127.225 104.531C126.769 104.629 126.304 104.385 126.101 103.932C125.897 103.483 126.004 102.939 126.36 102.616C128.713 100.477 131.434 99.7248 133.608 99.516C127.811 96.0574 122.428 95.2735 117.57 97.1899C113.332 98.8641 111.118 102.031 111.096 102.063C110.76 102.551 110.12 102.654 109.665 102.293C109.21 101.933 109.112 101.245 109.448 100.757C109.553 100.605 112.057 97.0264 116.864 95.1297C119.683 94.0169 122.712 93.7155 125.864 94.2355C129.743 94.8736 133.815 96.7625 137.965 99.8528C138.363 100.15 138.514 100.708 138.321 101.186C138.13 101.665 137.652 101.935 137.175 101.83C137.14 101.822 134.518 101.283 131.594 102.134C132.095 102.165 132.623 102.216 133.175 102.291C136.553 102.746 141.539 104.219 146.115 108.657C146.449 108.982 146.544 109.504 146.353 109.941C146.159 110.38 145.722 110.63 145.274 110.56C143.561 110.286 139.055 110.097 136.731 111.978C137.375 112.47 138.398 113.132 139.761 113.622C143.056 114.81 146.694 114.503 150.573 112.712C151.035 112.5 151.574 112.679 151.842 113.138C152.112 113.597 152.029 114.195 151.646 114.55C151.519 114.67 148.483 117.481 144.058 120.256C138.807 123.551 134.001 125.324 129.743 125.542C130.654 126.699 132.584 128.138 136.518 128.048H136.54C136.949 128.048 137.319 128.31 137.481 128.715C137.644 129.129 137.558 129.606 137.261 129.923C137.153 130.041 134.549 132.779 129.776 134C128.28 134.382 126.736 134.573 125.152 134.573Z" fill="#092558"/>
</g>
</g>
</g>
<path id="Vector_105" d="M21.5829 24.226C20.528 24.226 19.2145 24.7794 18.088 25.7997C17.1469 26.6545 16.4442 27.7457 16.1635 28.7974C16.0204 29.3233 15.8645 30.3081 16.402 30.9896C17.3138 32.1497 19.6273 31.7282 21.4545 30.0737C23.2781 28.4173 24.0505 26.04 23.1405 24.8819C22.7901 24.4387 22.2361 24.226 21.5829 24.226ZM17.9688 33.8396C16.7139 33.8396 15.5948 33.3689 14.8389 32.4077C13.984 31.3244 13.7565 29.8256 14.195 28.1908C14.5912 26.7097 15.5067 25.2659 16.7671 24.1216C19.5337 21.6143 23.0195 21.3248 24.7036 23.4637C26.3878 25.6027 25.542 29.2426 22.7736 31.7518C21.2509 33.1325 19.5098 33.8396 17.9688 33.8396Z" fill="#092558"/>
<path id="Vector_106" d="M17.5817 37.0717C16.8901 37.0717 15.9801 37.4125 15.1637 38.1412C14.3528 38.8641 13.8098 39.8174 13.7456 40.6328C13.7162 40.9932 13.7841 41.2788 13.9474 41.4817C14.4555 42.1159 16.0076 41.9504 17.323 40.7785C18.1339 40.0557 18.677 39.1024 18.743 38.285C18.7706 37.9265 18.7027 37.6429 18.5394 37.44C18.3468 37.1978 18.0037 37.0717 17.5817 37.0717ZM14.9105 44.05C13.907 44.05 13.0062 43.6758 12.3953 42.9136C11.8687 42.2557 11.6302 41.4029 11.7055 40.4476C11.8155 39.0472 12.6191 37.5523 13.8556 36.4513C16.0131 34.529 18.7504 34.334 20.0915 36.0062C20.618 36.664 20.8547 37.5149 20.7813 38.4702C20.6712 39.8725 19.8677 41.3655 18.6311 42.4685C17.457 43.5143 16.1104 44.05 14.9105 44.05Z" fill="#092558"/>
<path id="Vector_107" d="M43.7892 9.1568C43.7231 9.1568 43.6571 9.14892 43.5892 9.13317C43.0865 9.01499 42.771 8.4832 42.881 7.94549C43.8589 3.1692 48.1299 1.70775 48.3115 1.64669C48.8013 1.48518 49.3224 1.78063 49.4728 2.30651C49.6232 2.8324 49.3499 3.38782 48.8619 3.5513C48.7151 3.60251 45.4385 4.7567 44.6955 8.3729C44.6001 8.8397 44.2166 9.1568 43.7892 9.1568Z" fill="#092558"/>
<path id="Vector_108" d="M32.3631 8.4797C32.2567 8.4797 32.1503 8.46198 32.0457 8.42062C31.5632 8.23153 31.3156 7.66035 31.4898 7.14234C33.6418 0.806118 39.0319 0.3472 39.2613 0.331443C39.7731 0.29402 40.2153 0.709608 40.2501 1.25913C40.285 1.80865 39.8979 2.28135 39.3879 2.32075C39.1989 2.3365 34.9609 2.74421 33.2364 7.82383C33.0988 8.22956 32.7429 8.4797 32.3631 8.4797Z" fill="#092558"/>
<path id="Vector_109" d="M37.9127 95.6678C37.4944 95.6678 37.1018 95.3901 36.9514 94.943C35.869 91.7444 34.2508 89.3001 32.2731 87.8741C30.7944 86.8085 29.6111 86.6726 29.6001 86.6707L29.6093 86.6726L29.7744 84.4824C30.0202 84.5041 35.8029 85.1068 38.8759 94.1946C39.0685 94.7638 38.7933 95.394 38.2613 95.6009C38.1476 95.6462 38.0283 95.6678 37.9127 95.6678Z" fill="#092558"/>
<path id="Vector_110" d="M105.313 120.191C99.9613 120.191 95.2922 118.404 91.3606 114.835C91.5569 114.554 91.7807 114.252 92.0321 113.935C95.2665 114.826 99.4677 115.544 104.61 115.544C108.391 115.544 112.682 115.156 117.474 114.164C120.973 113.439 124.208 112.704 127.172 111.978C127.291 112.041 127.413 112.104 127.535 112.169C125.206 113.762 120.793 116.492 115.544 118.304C111.899 119.562 108.485 120.191 105.313 120.191Z" fill="#BC2121"/>
<path id="Vector_111" d="M91.3607 114.836C91.2818 114.765 91.2029 114.692 91.124 114.617C91.2561 114.395 91.4231 114.125 91.6267 113.821C91.7588 113.861 91.8964 113.896 92.0322 113.936C91.7808 114.253 91.557 114.554 91.3607 114.836ZM127.536 112.169C127.413 112.104 127.292 112.041 127.172 111.978C127.389 111.925 127.605 111.872 127.82 111.818C127.858 111.84 127.901 111.866 127.941 111.887C127.814 111.976 127.679 112.068 127.536 112.169Z" fill="#BD4545"/>
<path id="Vector_112" d="M105.722 121.268C100.407 121.268 94.96 119.594 90.2029 114.842C90.2029 114.842 90.4212 114.359 90.8964 113.603C91.1349 113.676 91.377 113.748 91.6265 113.821C91.4229 114.125 91.2559 114.394 91.1239 114.617C91.2027 114.692 91.2816 114.765 91.3605 114.836C95.2921 118.405 99.9612 120.191 105.313 120.191C108.485 120.191 111.899 119.563 115.544 118.304C120.793 116.492 125.205 113.762 127.535 112.169C127.679 112.068 127.814 111.976 127.941 111.887C127.901 111.865 127.858 111.84 127.82 111.818C128.427 111.669 129.023 111.519 129.607 111.371C129.838 111.495 130.067 111.627 130.3 111.763C130.3 111.763 118.388 121.268 105.722 121.268Z" fill="#07193A"/>
<path id="Vector_113" d="M35.9717 59.6143C36.012 59.6104 36.0487 59.6064 36.0891 59.6005C36.012 59.6104 35.9717 59.6143 35.9717 59.6143ZM36.0891 59.6005C37.6283 59.3917 54.0701 56.6993 60.4124 35.4512C60.4124 35.4512 60.7408 56.5023 36.0891 59.6005Z" fill="#506392"/>
</g>
</svg>
