<svg width="16" height="17" viewBox="0 0 16 17" fill="none" xmlns="http://www.w3.org/2000/svg">
<path d="M13.3779 7.87881H13.3773C13.2958 7.87888 13.2151 7.895 13.1398 7.92626C13.0646 7.95751 12.9962 8.00328 12.9386 8.06097C12.881 8.11865 12.8354 8.18711 12.8042 8.26243C12.7731 8.33776 12.7571 8.41848 12.7572 8.49999C12.7564 9.37009 12.5171 10.2233 12.0654 10.967C11.6136 11.7106 10.9667 12.3162 10.1949 12.7179C9.42304 13.1196 8.55587 13.3021 7.68761 13.2454C6.81935 13.1888 5.98323 12.8953 5.27011 12.3967C3.12118 10.892 2.59703 7.91949 4.10175 5.77052C5.60647 3.62156 8.57901 3.09736 10.728 4.60213C11.0531 4.82918 11.3485 5.09596 11.6075 5.39628H9.86093C9.69633 5.39628 9.53847 5.46167 9.42208 5.57806C9.30569 5.69445 9.2403 5.85231 9.2403 6.01692C9.2403 6.18152 9.30569 6.33938 9.42208 6.45577C9.53847 6.57216 9.69633 6.63755 9.86093 6.63755H12.7572C12.9218 6.63755 13.0797 6.57216 13.1961 6.45577C13.3125 6.33938 13.3778 6.18152 13.3778 6.01692V3.12063C13.3778 2.95603 13.3125 2.79817 13.1961 2.68178C13.0797 2.56539 12.9218 2.5 12.7572 2.5C12.5926 2.5 12.4348 2.56539 12.3184 2.68178C12.202 2.79817 12.1366 2.95603 12.1366 3.12063V4.15417C11.9188 3.94752 11.6859 3.75736 11.4399 3.58525C10.7946 3.13339 10.0666 2.81306 9.29745 2.64255C8.52832 2.47204 7.73313 2.4547 6.9573 2.5915C6.18147 2.72831 5.44018 3.01658 4.77575 3.43987C4.11133 3.86316 3.53678 4.41317 3.08492 5.0585C2.17234 6.36181 1.81488 7.97426 2.09117 9.54113C2.36746 11.108 3.25486 12.5009 4.55817 13.4135C5.56161 14.1203 6.75894 14.4998 7.98631 14.5C8.33982 14.4998 8.69265 14.4688 9.04076 14.4073C10.4298 14.1623 11.6881 13.4357 12.5947 12.3552C13.5014 11.2747 13.9984 9.90938 13.9985 8.4989C13.9983 8.3344 13.9329 8.17668 13.8165 8.06041C13.7001 7.94414 13.5424 7.87882 13.3779 7.87881Z" fill="#FF1640"/>
</svg>
