<svg width="16" height="16" viewBox="0 0 16 16" fill="none" xmlns="http://www.w3.org/2000/svg">
<path d="M7.75002 0C5.64523 0 5.3813 0.00892916 4.55468 0.04663C3.72978 0.0842617 3.16641 0.215292 2.67344 0.406842C2.16381 0.604898 1.73161 0.869912 1.30077 1.30075C0.869912 1.73159 0.604898 2.16383 0.406865 2.67346C0.215269 3.16641 0.0842848 3.72978 0.046607 4.55468C0.00890608 5.3813 0 5.64523 0 7.75002C0 9.85477 0.00890608 10.1187 0.046607 10.9453C0.0842848 11.7702 0.215269 12.3336 0.406865 12.8265C0.604922 13.3362 0.869935 13.7684 1.30077 14.1993C1.73163 14.6301 2.16381 14.8951 2.67344 15.0932C3.16641 15.2847 3.72978 15.4157 4.55468 15.4534C5.3813 15.4911 5.64523 15.5 7.75002 15.5C9.85477 15.5 10.1187 15.4911 10.9453 15.4534C11.7702 15.4157 12.3336 15.2847 12.8265 15.0932C13.3362 14.8951 13.7684 14.6301 14.1993 14.1993C14.6301 13.7684 14.8951 13.3362 15.0932 12.8265C15.2847 12.3336 15.4157 11.7702 15.4534 10.9453C15.4911 10.1187 15.5 9.85477 15.5 7.75002C15.5 5.64523 15.4911 5.3813 15.4534 4.55468C15.4157 3.72978 15.2847 3.16641 15.0932 2.67346C14.8951 2.16383 14.6301 1.73159 14.1993 1.30075C13.7684 0.869912 13.3362 0.604898 12.8265 0.406842C12.3336 0.215292 11.7702 0.0842617 10.9453 0.04663C10.1187 0.00892916 9.85477 0 7.75002 0ZM7.75002 1.39639C9.81933 1.39639 10.0645 1.4043 10.8817 1.44159C11.6373 1.47603 12.0476 1.60229 12.3207 1.70842C12.6825 1.84903 12.9407 2.01695 13.2118 2.28815C13.483 2.55935 13.651 2.81753 13.7916 3.17926C13.8977 3.45235 14.024 3.86273 14.0584 4.61833C14.0957 5.43555 14.1036 5.68067 14.1036 7.75C14.1036 9.81933 14.0957 10.0645 14.0584 10.8817C14.024 11.6373 13.8977 12.0476 13.7916 12.3207C13.651 12.6825 13.483 12.9407 13.2118 13.2118C12.9407 13.483 12.6825 13.651 12.3207 13.7916C12.0476 13.8977 11.6373 14.024 10.8817 14.0584C10.0646 14.0957 9.81949 14.1036 7.75 14.1036C5.68051 14.1036 5.43546 14.0957 4.61833 14.0584C3.8627 14.024 3.45235 13.8977 3.17929 13.7916C2.81751 13.651 2.55935 13.483 2.28817 13.2118C2.01697 12.9407 1.84903 12.6825 1.70842 12.3207C1.60229 12.0476 1.47606 11.6373 1.44159 10.8817C1.4043 10.0645 1.39639 9.81933 1.39639 7.75C1.39639 5.68067 1.4043 5.43555 1.44159 4.61833C1.47606 3.8627 1.60229 3.45235 1.70842 3.17929C1.84903 2.81751 2.01697 2.55935 2.28815 2.28817C2.55935 2.01695 2.81753 1.84903 3.17926 1.70842C3.45235 1.60229 3.86273 1.47603 4.61833 1.44159C5.43555 1.4043 5.6807 1.39639 7.75002 1.39639Z" fill="white"/>
<path d="M7.75001 10.3332C6.32324 10.3332 5.16665 9.1766 5.16665 7.74987C5.16665 6.3231 6.32324 5.16651 7.75001 5.16651C9.17674 5.16651 10.3333 6.3231 10.3333 7.74987C10.3333 9.1766 9.17674 10.3332 7.75001 10.3332ZM7.75001 3.77012C5.55203 3.77012 3.77026 5.55189 3.77026 7.74987C3.77026 9.9478 5.55203 11.7296 7.75001 11.7296C9.94795 11.7296 11.7297 9.9478 11.7297 7.74987C11.7297 5.55189 9.94795 3.77012 7.75001 3.77012ZM12.817 3.61288C12.817 4.12652 12.4006 4.54287 11.887 4.54287C11.3734 4.54287 10.957 4.12652 10.957 3.61288C10.957 3.09926 11.3734 2.68286 11.887 2.68286C12.4006 2.68286 12.817 3.09926 12.817 3.61288Z" fill="white"/>
</svg>
